<?xml version="1.0" encoding="UTF-8"?>
<svg width="14px" height="30px" viewBox="0 0 14 30" version="1.1" xmlns="http://www.w3.org/2000/svg" xmlns:xlink="http://www.w3.org/1999/xlink">
    <!-- Generator: Sketch 51.2 (57519) - http://www.bohemiancoding.com/sketch -->
    <title>ic_facebook_normal_e</title>
    <desc>Created with Sketch.</desc>
    <defs></defs>
    <g id="FAQ" stroke="none" stroke-width="1" fill="none" fill-rule="evenodd">
        <g transform="translate(-798.000000, -1368.000000)" fill="#FFC80A" fill-rule="nonzero" id="Group-7">
            <g transform="translate(0.000000, 1202.000000)">
                <g id="Group-22" transform="translate(768.000000, 141.000000)">
                    <path d="M37.980565,53 L37.980565,40.4294914 L41.8544633,40.4294914 L42,36.6949996 L37.9801662,36.6949996 L37.9801662,32.9936541 C37.9801662,31.3151722 38.4849817,30.5985971 39.8763815,30.5985971 C40.4844627,30.5985971 41.1648842,30.6019286 41.9177102,30.6085896 L41.9884455,27.1394842 C41.2129264,27.0464489 40.4568759,27 39.7202624,27 C36.428816,27 34.7310873,29.2856614 34.7310873,32.4319962 L34.7310873,36.6940289 L32,36.6940289 L32,40.4281568 L34.7310873,40.4281568 L34.7310873,53 L37.980565,53 Z M39.7471836,55 L32.8323617,55 L32.8323617,42.4609386 L30,42.4609386 L30,34.6687511 L32.8323617,34.6687511 L32.8323617,32.4517302 C32.8323617,28.2413244 35.3357371,25 39.7789694,25 C40.8696274,25 41.9940331,25.0872932 43.1521098,25.2615608 L43.9422142,25.3804558 L43.7873513,32.6848094 L42.9142792,32.6753597 C41.7838884,32.6631249 40.7926989,32.6570101 39.9408777,32.6570101 C39.6873358,32.6570101 39.6487941,32.6683524 39.7213977,32.5692373 C39.7659397,32.5084305 39.7467701,32.6373824 39.7467701,33.0119236 L39.7467701,34.6697193 L44,34.6697193 L43.6842323,42.4622698 L39.7471836,42.4622698 L39.7471836,55 Z" id="ic_facebook_normal_e"></path>
                </g>
            </g>
        </g>
    </g>
</svg>