<svg width="14" height="30" viewBox="0 0 14 30" xmlns="http://www.w3.org/2000/svg"><path d="M7.98 28V15.43h3.874L12 11.694H7.98v-3.7c0-1.679.505-2.395 1.896-2.395.608 0 1.289.003 2.042.01l.07-3.47A19.04 19.04 0 0 0 9.72 2C6.43 2 4.731 4.286 4.731 7.432v4.262H2v3.734h2.731V28h3.25zm1.767 2H2.832V17.46H0V9.67h2.832V7.452C2.832 3.242 5.336 0 9.78 0c1.09 0 2.215.087 3.373.262l.79.118-.155 7.305-.873-.01c-1.13-.012-2.121-.018-2.973-.018-.254 0-.292.011-.22-.088.045-.06.026.068.026.443V9.67H14l-.316 7.792H9.747V30z" fill="#FFC80A"/></svg>