<?xml version="1.0" encoding="UTF-8"?>
<svg width="34px" height="33px" viewBox="0 0 34 33" version="1.1" xmlns="http://www.w3.org/2000/svg" xmlns:xlink="http://www.w3.org/1999/xlink">
    <!-- Generator: Sketch 51.2 (57519) - http://www.bohemiancoding.com/sketch -->
    <title>ic_github</title>
    <desc>Created with Sketch.</desc>
    <defs></defs>
    <g id="FAQ" stroke="none" stroke-width="1" fill="none" fill-rule="evenodd">
        <g transform="translate(-1022.000000, -1367.000000)" id="Group-7" stroke="#FFC80A" stroke-width="1.68478261">
            <g transform="translate(0.000000, 1202.000000)">
                <g id="Group-22" transform="translate(1002.000000, 141.000000)">
                    <path d="M50.5927129,33.2237572 C49.1745743,30.8226663 47.2501386,28.9216461 44.8206733,27.5200703 C42.3899406,26.1181814 39.7377426,25.4173936 36.8602772,25.4173936 C33.9828119,25.4173936 31.3293465,26.1181814 28.8986139,27.5200703 C26.4691485,28.9216461 24.5456634,30.8226663 23.1275248,33.2237572 C21.7090693,35.6257875 21,38.2482622 21,41.0921208 C21,44.5074441 22.0087921,47.578636 24.0247921,50.3063229 C26.0420594,53.0340097 28.6473663,54.9225047 31.8416634,55.9696158 C32.2129901,56.0381915 32.4889505,55.9905956 32.6670099,55.8277673 C32.8466535,55.6639996 32.9356832,55.4595249 32.9356832,55.2149693 C32.9356832,55.1745754 32.9318812,54.8075855 32.9258614,54.1127471 C32.9182574,53.4194744 32.9144554,52.8138784 32.9144554,52.2965855 L32.4404752,52.3783128 C32.1372673,52.4334239 31.7548515,52.4565956 31.294495,52.4493936 C30.8328713,52.4431309 30.3538218,52.395535 29.8589307,52.3062925 C29.3627723,52.2183027 28.902099,52.0150804 28.4753267,51.6947471 C28.0482376,51.3753532 27.746297,50.9570097 27.5669703,50.4397168 L27.3600792,49.9700198 C27.2228911,49.6568885 27.0061782,49.3108784 26.7102574,48.9291713 C26.4133861,48.5487168 26.1139802,48.2894441 25.8120396,48.1535451 L25.6669307,48.0520905 C25.5706139,47.9835148 25.4815842,47.9017875 25.3985743,47.8062824 C25.3155644,47.7120299 25.2537822,47.6165249 25.2129109,47.521333 C25.1720396,47.4258279 25.2053069,47.3475451 25.3155644,47.2864845 C25.4258218,47.2238582 25.6263762,47.194737 25.9146931,47.194737 L26.3278416,47.2557976 C26.6028515,47.3096562 26.944396,47.4734239 27.3502574,47.7452218 C27.7561188,48.0179592 28.0903762,48.3714845 28.3514455,48.806737 C28.6682772,49.3644239 29.0494257,49.7890299 29.4974257,50.082434 C29.9454257,50.3748986 30.3959604,50.5205047 30.850297,50.5205047 C31.3043168,50.5205047 31.6968713,50.4860602 32.0273267,50.4190501 C32.3577822,50.3504744 32.6670099,50.2490198 32.9565941,50.1131208 C33.0804752,49.2006562 33.4182178,48.4998683 33.9679208,48.0104441 C33.1831287,47.9284037 32.4778614,47.8062824 31.8514851,47.6422016 C31.2251089,47.4796865 30.5778218,47.2141511 29.9108911,46.8459087 C29.2426931,46.4792319 28.6882376,46.0229996 28.2475248,45.4797168 C27.8080792,44.9354946 27.4456238,44.2199895 27.1645941,43.3366461 C26.882297,42.4511107 26.7413069,41.4309289 26.7413069,40.2751612 C26.7413069,38.6287168 27.2846733,37.227141 28.3726733,36.0698077 C27.8625743,34.8319996 27.9107327,33.445141 28.5174653,31.9073532 C28.9157228,31.7839794 29.5085149,31.8769794 30.2933069,32.1825956 C31.078099,32.4885249 31.652198,32.7515552 32.0171881,32.9679289 C32.382495,33.1855552 32.6746139,33.3703027 32.8948119,33.5196663 C34.1757624,33.166141 35.4975842,32.9889087 36.8602772,32.9889087 C38.2226535,32.9889087 39.5444752,33.166141 40.8254257,33.5196663 L41.6102178,33.0289895 C42.1459802,32.7023936 42.7796436,32.4039794 43.5099406,32.131242 C44.2389703,31.8597572 44.7969109,31.7852319 45.1831287,31.9073532 C45.801901,33.445141 45.8576634,34.8319996 45.3478812,36.0710602 C46.4355644,37.227141 46.9789307,38.6287168 46.9789307,40.2751612 C46.9789307,41.4309289 46.8379406,42.4548683 46.5556436,43.3466663 C46.2736634,44.2381511 45.9096238,44.9527168 45.4616238,45.4894239 C45.0136238,46.0276966 44.4566337,46.4792319 43.7884356,46.8471612 C43.1211881,47.2141511 42.473901,47.4796865 41.8478416,47.6422016 C41.2214653,47.8062824 40.516198,47.9284037 39.7314059,48.0104441 C40.4468119,48.623242 40.8045149,49.5883128 40.8045149,50.9081612 L40.8045149,55.2149693 C40.8045149,55.4595249 40.8910099,55.6639996 41.0630495,55.8265148 C41.2350891,55.9893431 41.506297,56.0381915 41.8785743,55.9696158 C45.0728713,54.9212521 47.6781782,53.0340097 49.6941782,50.3050703 C51.7117624,47.5773835 52.7202376,44.5061915 52.7202376,41.0911814 C52.7189703,38.2482622 52.009901,35.6257875 50.5927129,33.2237572 Z" id="ic_github"></path>
                </g>
            </g>
        </g>
    </g>
</svg>