<svg width="34" height="33" viewBox="0 0 34 33" xmlns="http://www.w3.org/2000/svg"><path d="M30.593 9.224A15.704 15.704 0 0 0 24.82 3.52c-2.431-1.402-5.083-2.103-7.96-2.103-2.878 0-5.532.701-7.962 2.103a15.702 15.702 0 0 0-5.771 5.704C1.709 11.626 1 14.248 1 17.092c0 3.415 1.009 6.487 3.025 9.214 2.017 2.728 4.622 4.617 7.817 5.664.371.068.647.02.825-.142a.795.795 0 0 0 .269-.613l-.01-1.102a168.3 168.3 0 0 1-.012-1.816l-.474.081a6.063 6.063 0 0 1-1.146.071 8.763 8.763 0 0 1-1.435-.143 3.215 3.215 0 0 1-1.384-.611 2.585 2.585 0 0 1-.908-1.255l-.207-.47c-.137-.313-.354-.66-.65-1.04-.297-.381-.596-.64-.898-.776l-.145-.102a1.535 1.535 0 0 1-.268-.246 1.08 1.08 0 0 1-.186-.285c-.041-.095-.008-.173.103-.235.11-.062.31-.091.599-.091l.413.06c.275.055.616.218 1.022.49.406.273.74.626 1.001 1.062.317.557.698.982 1.146 1.275.448.293.899.439 1.353.439.454 0 .847-.035 1.177-.102.33-.069.64-.17.93-.306.123-.912.461-1.613 1.01-2.103a14.231 14.231 0 0 1-2.116-.368 8.403 8.403 0 0 1-1.94-.796 5.549 5.549 0 0 1-1.663-1.366c-.44-.545-.802-1.26-1.083-2.143-.283-.886-.424-1.906-.424-3.062 0-1.646.544-3.048 1.632-4.205-.51-1.238-.462-2.625.144-4.163.399-.123.992-.03 1.776.276.785.306 1.36.569 1.724.785.365.218.658.402.878.552a14.837 14.837 0 0 1 3.965-.531c1.363 0 2.684.177 3.965.53l.785-.49c.536-.327 1.17-.625 1.9-.898.729-.271 1.287-.346 1.673-.224.619 1.538.675 2.925.165 4.164 1.088 1.156 1.63 2.558 1.63 4.204 0 1.156-.14 2.18-.422 3.072-.282.891-.646 1.606-1.094 2.142a5.759 5.759 0 0 1-1.674 1.358 8.463 8.463 0 0 1-1.94.795c-.627.164-1.332.286-2.117.368.716.613 1.074 1.578 1.074 2.898v4.307c0 .245.086.449.258.612.172.162.443.211.816.143 3.194-1.049 5.8-2.936 7.815-5.665 2.018-2.728 3.026-5.799 3.026-9.214-.001-2.843-.71-5.465-2.127-7.867z" stroke="#FFC80A" stroke-width="1.685" fill="none"/></svg>