<svg width="28" height="28" viewBox="0 0 28 28" xmlns="http://www.w3.org/2000/svg" xmlns:xlink="http://www.w3.org/1999/xlink"><defs><path d="M25.813 24.719c0 .603-.491 1.093-1.094 1.093h-1.64c-.604 0-1.095-.49-1.095-1.093V13.562c0-.603.491-1.093 1.094-1.093h1.64c.604 0 1.095.49 1.095 1.094v11.156zM24.718 10.28h-1.64c-.357 0-.7.057-1.022.163l-5.4-8.409-.704-.99-.06-.06A3.256 3.256 0 0 0 13.55 0a3.285 3.285 0 0 0-3.104 4.347l.022.066.03.061c.173.35.356.716.55 1.103.49.976 1.3 2.587 1.421 3.071-.079.573-.845.922-1.39.922H3.882a3.12 3.12 0 0 0-3.117 3.117c0 .566.154 1.113.436 1.588A3.113 3.113 0 0 0 0 16.735a3.165 3.165 0 0 0 1.236 2.509 3.09 3.09 0 0 0-.412 1.537c0 1.186.67 2.219 1.654 2.746-.188.394-.29.826-.29 1.27C2.188 26.653 3.502 28 5.316 28h10.707a1.094 1.094 0 1 0 0-2.188H5.316c-.85 0-.941-.71-.941-1.015 0-.451.381-.697.498-.761.614-.339.705-.825.705-1.085 0-.695-.6-1.24-1.367-1.24h-.247a.943.943 0 0 1-.953-.93c0-.326.182-.633.475-.802l.051-.028c.484-.261.729-.636.729-1.115 0-.413-.276-1.126-1.308-1.182-.418-.023-.77-.444-.77-.92 0-.42.296-.799.705-.902.657-.166 1.1-.682 1.1-1.285 0-.299-.11-.73-.635-1.095a.934.934 0 0 1-.405-.764.93.93 0 0 1 .93-.93h7.195c1.667 0 3.51-1.184 3.583-3.096l.001-.042c0-.657-.48-1.678-1.659-4.025-.178-.356-.348-.693-.505-1.013a1.095 1.095 0 0 1 1.782-1.116l.552.774 5.488 8.547a3.262 3.262 0 0 0-.523 1.775V24.72A3.285 3.285 0 0 0 23.078 28h1.64A3.285 3.285 0 0 0 28 24.719V13.562a3.285 3.285 0 0 0-3.281-3.28z" id="a"/></defs><use fill="#FFC80A" xlink:href="#a" fill-rule="evenodd"/></svg>