<svg width="29" height="30" viewBox="0 0 29 30" xmlns="http://www.w3.org/2000/svg"><g fill="#FFC80A"><path d="M28.944 11.484v-.002c-.002-1.453-1.142-2.634-2.544-2.634-.4 0-.788.094-1.14.272C24.21 3.918 19.772 0 14.472 0S4.732 3.918 3.684 9.12a2.525 2.525 0 0 0-1.14-.272C1.14 8.848 0 10.03 0 11.484 0 19.536 6.163 25.953 13.624 26.4v1.843h-4.24c-.468 0-.848.394-.848.88 0 .484.38.878.848.878h10.175c.469 0 .848-.394.848-.879s-.38-.879-.848-.879h-4.24V26.4c7.46-.446 13.625-6.862 13.625-14.915zm-2.544-.879c.467 0 .848.395.848.88 0 .484-.38.878-.848.878-.482 0-.905-.41-.905-.879 0-.468.423-.879.905-.879zM14.472 1.758c5.143 0 9.327 4.363 9.327 9.726 0 5.331-4.184 9.668-9.327 9.668s-9.328-4.337-9.328-9.668c0-5.363 4.185-9.726 9.328-9.726zM2.544 10.605c.482 0 .904.411.904.88 0 .468-.422.878-.904.878-.468 0-.848-.394-.848-.879 0-.484.38-.879.848-.879zm11.928 14.063c-6.196 0-11.375-4.575-12.533-10.623a2.52 2.52 0 0 0 1.747-.198c1.053 5.17 5.489 9.063 10.786 9.063s9.732-3.893 10.785-9.063a2.524 2.524 0 0 0 1.748.198c-1.158 6.048-6.338 10.623-12.533 10.623z"/><path d="M15.071 5.59a.827.827 0 0 0-1.199 0l-5.088 5.273a.902.902 0 0 0 0 1.243.827.827 0 0 0 1.2 0l5.087-5.274a.902.902 0 0 0 0-1.243zm5.089 5.273a.827.827 0 0 0-1.2 0l-5.088 5.273a.902.902 0 0 0 0 1.243.827.827 0 0 0 1.2 0l5.087-5.273a.902.902 0 0 0 0-1.243zm-.001-5.273a.827.827 0 0 0-1.2 0L8.785 16.135a.902.902 0 0 0 0 1.243.827.827 0 0 0 1.2 0L20.159 6.832a.902.902 0 0 0 0-1.243z"/></g></svg>