<svg width="34" height="31" viewBox="0 0 34 31" xmlns="http://www.w3.org/2000/svg"><path d="M29.751.082H4.186C1.88.082 0 1.983 0 4.327v16.446c0 2.337 1.874 4.245 4.186 4.245h11.831v4.052h-5.898a.954.954 0 0 0-.952.965c0 .536.423.965.952.965h13.698a.954.954 0 0 0 .952-.965.954.954 0 0 0-.952-.965H17.92v-4.052h11.83c2.304 0 4.186-1.901 4.186-4.245V4.327c0-2.344-1.875-4.245-4.186-4.245zM4.186 2.012h25.572c1.254 0 2.283 1.036 2.283 2.315v13.744H1.903V4.327c0-1.279 1.021-2.315 2.283-2.315zM29.75 23.088H4.186c-1.255 0-2.283-1.036-2.283-2.315V20h30.131v.772c0 1.272-1.022 2.315-2.283 2.315z" fill="#FFC80A" fill-rule="evenodd"/></svg>