<svg width="26" height="26" viewBox="0 0 26 26" xmlns="http://www.w3.org/2000/svg"><g fill="#FFC80A" fill-rule="evenodd"><path d="M24.136 22.287a1.857 1.857 0 0 1-3.713 0V8.362h3.713v13.925zM3.713 24.143a1.857 1.857 0 0 1-1.856-1.856V1.864h16.71v20.423c.001.224.024.447.067.666a3.735 3.735 0 0 0 .223.772c0 .01.01.018.013.027.057.134.122.265.195.391H3.713zM25.064 6.505h-4.641V.935a.928.928 0 0 0-.928-.928H.928A.928.928 0 0 0 0 .936v21.35A3.713 3.713 0 0 0 3.713 26H22.28a3.713 3.713 0 0 0 3.714-3.713V7.434a.928.928 0 0 0-.929-.929z"/><path d="M7.426 6.505h5.57a.928.928 0 1 0 0-1.856h-5.57a.928.928 0 0 0 0 1.856m8.355 2.785H4.641a.928.928 0 0 0 0 1.857h11.14a.928.928 0 1 0 0-1.857m0 3.714H4.641a.928.928 0 0 0 0 1.856h11.14a.928.928 0 1 0 0-1.856m0 3.713H4.641a.928.928 0 0 0 0 1.856h11.14a.928.928 0 1 0 0-1.856m0 3.713H4.641a.928.928 0 0 0 0 1.857h11.14a.928.928 0 1 0 0-1.857"/></g></svg>