<svg width="30" height="31" viewBox="0 0 30 31" xmlns="http://www.w3.org/2000/svg"><g fill="#FFC80A" fill-rule="evenodd"><path d="M27.38 9.796C25.907 4.166 20.81.158 14.97.158 9.166.158 4.074 4.165 2.577 9.793A3.182 3.182 0 0 0 0 12.926v3.59a3.19 3.19 0 0 0 2.136 3.016v1.502c0 4.508 3.63 8.176 8.092 8.176h.996a2.623 2.623 0 0 0 2.413 1.619h2.665c1.444 0 2.619-1.188 2.619-2.647 0-1.459-1.175-2.646-2.62-2.646h-2.664a2.62 2.62 0 0 0-2.413 1.619h-.996c-3.34 0-6.058-2.746-6.058-6.121v-2.36c0-.567-.455-1.027-1.017-1.027a1.126 1.126 0 0 1-1.12-1.13v-3.591c0-.624.503-1.13 1.115-1.13h.245c.483 0 .9-.343.996-.821C5.418 5.898 9.868 2.213 14.97 2.213c5.136 0 9.59 3.683 10.59 8.755.096.481.513.827.998.827h.228c.617 0 1.12.507 1.12 1.13v3.591c0 .624-.503 1.131-1.12 1.131-.561 0-1.017.46-1.017 1.028 0 .567.456 1.027 1.017 1.027 1.739 0 3.154-1.43 3.154-3.186v-3.59a3.183 3.183 0 0 0-2.56-3.13zM13.636 27.591h2.665a.59.59 0 0 1 .585.591.59.59 0 0 1-.585.592h-2.665a.589.589 0 0 1-.585-.592c0-.326.262-.591.585-.591z"/><path d="M10.865 16.11H8.66v1.4h2.605v1.09H7.258v-5.877h4.015v1.094H8.66v1.239h2.205v1.054zm6.465 2.49h-1.394l-2.061-3.657V18.6h-1.403v-5.877h1.403l2.057 3.657v-3.657h1.398V18.6zm6.286-.727c-.216.243-.532.438-.947.586a4.05 4.05 0 0 1-1.367.222c-.761 0-1.37-.236-1.825-.707-.456-.47-.7-1.126-.731-1.965l-.004-.509c0-.579.1-1.084.303-1.516a2.27 2.27 0 0 1 .87-.997 2.44 2.44 0 0 1 1.308-.349c.724 0 1.287.168 1.687.503.401.335.635.835.702 1.5h-1.35c-.049-.33-.153-.563-.312-.703-.16-.14-.387-.21-.68-.21a.913.913 0 0 0-.814.452c-.192.301-.29.732-.292 1.292v.355c0 .587.1 1.027.298 1.322.198.295.51.442.936.442.365 0 .637-.082.815-.246v-.913h-.974v-.972h2.377v2.413z"/></g></svg>