<svg width="30" height="33" viewBox="0 0 30 33" xmlns="http://www.w3.org/2000/svg"><g fill="#FFC80A" fill-rule="evenodd"><path d="M27.435 10.37C25.96 4.313 20.85 0 15 0 9.185 0 4.083 4.311 2.582 10.367 1.114 10.662 0 12.061 0 13.737v3.864c0 1.503.897 2.783 2.14 3.245v1.615c0 4.85 3.638 8.797 8.108 8.797h.998C11.645 32.28 12.578 33 13.664 33h2.67c1.447 0 2.625-1.278 2.625-2.848 0-1.57-1.178-2.847-2.625-2.847h-2.67c-1.085 0-2.02.719-2.417 1.742h-.999c-3.347 0-6.07-2.954-6.07-6.586v-2.538c0-.611-.456-1.106-1.019-1.106-.618 0-1.121-.545-1.121-1.216v-3.864c0-.67.503-1.216 1.116-1.216l.241.001H3.4c.484 0 .9-.37.998-.884C5.428 6.175 9.888 2.211 15 2.211c5.146 0 9.609 3.962 10.612 9.42.096.518.514.89 1 .89h.228c.618 0 1.122.545 1.122 1.216v3.864c0 .67-.504 1.216-1.122 1.216-.562 0-1.019.495-1.019 1.106 0 .61.457 1.105 1.02 1.105 1.741 0 3.159-1.538 3.159-3.427v-3.864c0-1.67-1.107-3.065-2.565-3.367zm-13.77 19.146h2.67c.322 0 .586.286.586.636 0 .351-.264.637-.587.637h-2.67c-.323 0-.586-.286-.586-.637 0-.35.263-.636.586-.636z"/><path d="M12.256 16.83h-.792v2.089H10V13h2.39c.72 0 1.283.156 1.69.467.405.312.608.753.608 1.322 0 .412-.085.753-.256 1.024-.171.271-.439.49-.803.659l1.268 2.386v.06h-1.569l-1.072-2.089zm-.792-1.102h.926c.278 0 .487-.071.628-.214.14-.142.21-.34.21-.595 0-.255-.07-.455-.212-.6-.142-.145-.35-.217-.626-.217h-.926v1.626zM21 13v3.874c0 .439-.096.82-.288 1.14a1.848 1.848 0 0 1-.826.734c-.358.168-.782.252-1.272.252-.74 0-1.322-.187-1.747-.561-.426-.374-.643-.886-.651-1.537V13h1.472v3.93c.017.649.326.972.926.972.303 0 .533-.08.688-.243.156-.163.234-.427.234-.793V13H21z"/></g></svg>