<svg width="30" height="20" viewBox="0 0 30 20" xmlns="http://www.w3.org/2000/svg"><path d="M12.308 4.135c.163 1.2.183 2.472.065 4-.039.475-.114.858-.245 1.199a1.658 1.658 0 0 1-.151.306l-.401.623-.66-.294a1.453 1.453 0 0 1-.29-.175c-.374-.282-.626-.602-.997-1.177l-.065-.101c-1.033-1.61-1.9-3.383-2.65-5.417-.177-.478-.436-.686-.79-.692a96.149 96.149 0 0 0-3.856.002c-.308.006-.436.07-.49.164-.065.112-.061.31.079.655 1.7 4.17 3.235 7.189 4.98 9.8 1.19 1.778 2.369 2.993 3.716 3.843 1.393.88 2.966 1.31 4.815 1.31.214 0 .431-.005.654-.017.782-.039.932-.2.968-1.068.04-.938.151-1.554.444-2.143.173-.348.388-.605.759-.709.38-.104.7.019 1.02.248.276.197.498.425.768.75l.125.152.128.156.256.316c.521.644.761.933 1.064 1.274.684.768 1.417 1.096 2.304 1.024l3.916.002c.144-.014.27-.105.36-.281.14-.276.138-.654-.026-1.006-.221-.471-.501-.904-.921-1.463-.484-.64-.92-1.122-1.913-2.161a134.414 134.414 0 0 1-.606-.638l-.119-.127c-.448-.482-.688-.857-.729-1.308-.04-.454.131-.866.488-1.415l.052-.081c.211-.324.436-.66.714-1.068l.405-.59c.514-.749.747-1.092 1.024-1.515l.076-.116c.955-1.458 1.327-2.138 1.598-3.078.094-.327.1-.539.031-.664-.06-.11-.208-.186-.494-.24a1.684 1.684 0 0 0-.32-.02l-4.308-.004c-.365-.007-.555.136-.71.566-.327.909-.552 1.49-.822 2.091-.826 1.858-1.563 3.17-2.557 4.334l-.047.055-.098.114-.04.044a1.28 1.28 0 0 1-.378.312l-.45.237-.42-.291c-.422-.292-.648-1.035-.636-1.57l-.004-5.454c-.088-.709-.2-.898-.684-1.01h-4.431c-.426 0-.65.14-.964.545.83.215 1.337.833 1.463 1.771zM9.654 18.428c-1.57-.991-2.92-2.383-4.241-4.359C3.59 11.346 2 8.22.257 3.94c-.341-.838-.354-1.635.03-2.304C.683.95 1.375.608 2.235.592A97.75 97.75 0 0 1 6.154.59c1.093.017 1.96.713 2.382 1.854.627 1.702 1.337 3.199 2.16 4.56a15.053 15.053 0 0 0-.11-2.614c-.028-.212-.017-.198-.126-.22-.626-.131-1.114-.412-1.354-1.16-.18-.564-.066-1.08.208-1.532.058-.096.105-.16.178-.256C10.11.425 10.786 0 11.81 0h4.466c.096 0 .193.01.286.03 1.387.303 1.914 1.161 2.09 2.584.008.065.012.132.012.197l.003 4.028c.443-.715.86-1.543 1.313-2.56.247-.55.458-1.096.77-1.963.408-1.132 1.249-1.764 2.353-1.743l4.293.004c.253 0 .423.01.628.049.739.138 1.313.437 1.69 1.119.369.666.348 1.333.13 2.097-.34 1.178-.776 1.973-1.829 3.582l-.076.116a71.2 71.2 0 0 1-1.047 1.548l-.402.586c-.27.397-.488.722-.69 1.033l-.052.08a3.482 3.482 0 0 0-.138.229c.04.041.101.115.188.208a36.034 36.034 0 0 0 .366.39l.34.355c1.041 1.088 1.508 1.606 2.049 2.321.49.653.831 1.18 1.117 1.79.404.863.41 1.856-.003 2.663-.368.72-1.022 1.182-1.777 1.237-.053.004-.053.004-.102.004l-3.859-.005c-1.37.116-2.615-.44-3.647-1.601-.327-.368-.58-.672-1.118-1.337l-.253-.312-.124-.151c-.034.16-.049.361-.06.6-.073 1.793-.93 2.717-2.619 2.802-.25.013-.496.02-.739.02-2.157 0-4.04-.516-5.714-1.572zm7.9-10.089z" fill="#FFC80A"/></svg>