<?xml version="1.0" encoding="UTF-8"?>
<svg width="30px" height="20px" viewBox="0 0 30 20" version="1.1" xmlns="http://www.w3.org/2000/svg" xmlns:xlink="http://www.w3.org/1999/xlink">
    <!-- Generator: Sketch 51.2 (57519) - http://www.bohemiancoding.com/sketch -->
    <title>ic_vk_normal_e</title>
    <desc>Created with Sketch.</desc>
    <defs></defs>
    <g id="FAQ" stroke="none" stroke-width="1" fill="none" fill-rule="evenodd">
        <g transform="translate(-790.000000, -1473.000000)" fill="#FFC80A" fill-rule="nonzero" id="Group-7">
            <g transform="translate(0.000000, 1202.000000)">
                <g id="Group-22" transform="translate(768.000000, 241.000000)">
                    <path d="M34.3076417,34.1352381 C34.471428,35.3343302 34.4913758,36.6072744 34.3727903,38.1343906 C34.3344492,38.6099013 34.2587149,38.9931471 34.1281996,39.3338263 C34.083357,39.4509842 34.0330796,39.5523978 33.976788,39.6398292 L33.5757797,40.2626692 L32.9151301,39.9685609 C32.8203801,39.92638 32.7242988,39.8684664 32.6255577,39.79391 C32.2516172,39.5115173 32.0001748,39.192246 31.6288921,38.6170257 C31.5958914,38.5658116 31.5958914,38.5658116 31.563696,38.5156784 C30.5306333,36.9061326 29.6636978,35.132677 28.914304,33.0991978 C28.7373413,32.6214241 28.4779034,32.4131811 28.1248503,32.4074917 C26.7610486,32.3823774 25.4997041,32.3830025 24.2679148,32.4093679 C23.9601205,32.4152636 23.8317296,32.4788605 23.7774795,32.5731428 C23.7132374,32.6848075 23.7165174,32.8833552 23.8567494,33.2278042 C25.5561847,37.3978574 27.0918142,40.416826 28.8375798,43.027063 C30.0276822,44.8063057 31.2057773,46.020904 32.5527259,46.8713521 C33.9462418,47.7510833 35.5190727,48.1818744 37.368333,48.1818182 C37.5821107,48.1818182 37.7994966,48.1760343 38.021594,48.1643551 C38.8043765,48.1250046 38.9540054,47.9637221 38.9897956,47.0964857 C39.0309188,46.1582538 39.1412877,45.542172 39.4341848,44.9530742 C39.6070085,44.6050257 39.8221149,44.3477189 40.1925114,44.2444383 C40.5723717,44.1401801 40.8935303,44.2628027 41.2131089,44.4917281 C41.4885619,44.6891174 41.7113712,44.9173126 41.981099,45.242272 C42.0437745,45.3181282 42.0437745,45.3181282 42.1062772,45.3942516 C42.1702476,45.4723731 42.1702476,45.4723731 42.2338385,45.5503822 C42.3632436,45.70956 42.3632436,45.70956 42.4897799,45.8657478 C43.0112617,46.5095959 43.2509551,46.7985888 43.5543602,47.1395776 C44.2378874,47.9084423 44.9708864,48.2362605 45.8581348,48.1640373 L49.7736064,48.1660398 C49.9179719,48.1519322 50.0433946,48.0608277 50.1333617,47.8849918 C50.2746874,47.6088104 50.2723442,47.2305289 50.1079722,46.8789957 C49.8868083,46.407608 49.6069233,45.9751757 49.1865757,45.4159696 C48.7033238,44.7768926 48.2676192,44.2937706 47.27351,43.2549354 C47.10333,43.0770709 47.0259945,42.9961048 46.9299193,42.8950033 C46.8353555,42.7954923 46.7495419,42.7046351 46.667847,42.6174323 C46.608274,42.5537544 46.608274,42.5537544 46.5492056,42.4902259 C46.1013012,42.008135 45.8609572,41.6330317 45.8200739,41.1818922 C45.7791053,40.7282371 45.9510061,40.3164631 46.3076124,39.7674533 C46.3340023,39.726624 46.3340023,39.726624 46.3604713,39.6858291 C46.5710519,39.3615777 46.7962662,39.0252517 47.0737709,38.6184697 C47.1868951,38.4526461 47.2767451,38.3216626 47.4789898,38.0273712 C47.9931545,37.2791707 48.2259269,36.936365 48.5030355,36.5133015 L48.5793052,36.3967554 C49.5338424,34.9388908 49.9063377,34.2590579 50.1769701,33.3190671 C50.270797,32.9918757 50.2774045,32.7801073 50.2082686,32.6550648 C50.1475711,32.5453026 49.9998544,32.4685339 49.7139751,32.4148136 C49.6355273,32.3999534 49.5519086,32.3950886 49.3938059,32.3950881 L45.0857632,32.3906857 C44.721339,32.3839899 44.5313121,32.5267843 44.3764637,32.9569873 C44.048535,33.8659546 43.823872,34.4475855 43.5540578,35.0484934 C42.7275773,36.90614 41.9906007,38.217995 40.9970665,39.3815467 L40.949592,39.4372973 C40.9079093,39.4864 40.9079093,39.4864 40.8517563,39.5507336 C40.8323799,39.5725329 40.8323799,39.5725329 40.8117294,39.5952796 C40.6785382,39.7410708 40.5866693,39.8269594 40.4338133,39.9072371 L39.9834404,40.1437663 L39.5633565,39.8526013 C39.1424679,39.5608786 38.9158084,38.8184533 38.9280475,38.282772 C38.9280256,38.284691 38.92675,36.4667596 38.9242208,32.828978 C38.8355654,32.1204301 38.7234346,31.9305177 38.2395749,31.8181818 L33.8089218,31.8181818 C33.3826614,31.8181818 33.1588506,31.9587197 32.8454739,32.3635237 C33.6747319,32.578591 34.181642,33.1974768 34.3076417,34.1352381 Z M31.65408,48.4278528 C30.0843973,47.4367729 28.7343244,46.044868 27.4128016,44.0691475 C25.5912545,41.3456034 24.0006429,38.2185427 22.2571218,33.9403123 C21.9158397,33.1020285 21.9026722,32.3049633 22.287654,31.6357944 C22.6817701,30.9508526 23.3739178,30.6080053 24.2342016,30.5915289 C25.4867638,30.5647168 26.7701223,30.5640808 28.1535471,30.5895587 C29.2467453,30.6071685 30.1135362,31.3029152 30.536162,32.4439474 C31.1634737,34.146154 31.8726567,35.6429071 32.6968868,37.0043994 C32.7322091,36.0358343 32.6953383,35.1897475 32.5861387,34.3902762 C32.5576362,34.1781486 32.5693345,34.1922713 32.4604767,34.1694698 C31.8338332,34.0386254 31.3458095,33.7576102 31.1059717,33.0091298 C30.9256424,32.4464532 31.0399788,31.9290961 31.3144607,31.4775108 C31.3724171,31.3821593 31.4188088,31.3174596 31.4921264,31.2220632 C32.1087675,30.4254997 32.7863885,30 33.8089218,30 L38.2751311,30 C38.3714636,30 38.4676191,30.010337 38.5614046,30.0308447 C39.9479899,30.3327882 40.4753818,31.1911017 40.6507783,32.6137017 C40.6587901,32.6793558 40.6629033,32.745587 40.6629031,32.8113573 L40.6657045,36.8394437 C41.109222,36.1242414 41.5264339,35.2956638 41.978919,34.2786394 C42.2256747,33.7290736 42.4367495,33.1826214 42.7494549,32.3158513 C43.1568193,31.1841012 43.9976941,30.5522316 45.1018609,30.5726446 L49.3946313,30.5769067 C49.648105,30.5769067 49.8183366,30.5868107 50.0226863,30.625521 C50.7619599,30.7644375 51.3363032,31.0629248 51.7134526,31.7449433 C52.0819761,32.4114724 52.0611662,33.0784216 51.8421201,33.842273 C51.5031113,35.0197589 51.0672977,35.8151527 50.0140628,37.4237582 L49.9377041,37.5404401 C49.6505508,37.978839 49.4127025,38.3291202 48.8909159,39.0884119 C48.6898382,39.3810051 48.6007727,39.5108449 48.4892088,39.6743815 C48.2188317,40.0707154 48.000817,40.3962898 47.7988276,40.7073124 C47.7736403,40.7461319 47.7736403,40.7461319 47.7472362,40.7869793 C47.6895755,40.8757513 47.6437144,40.9522007 47.6092896,41.015561 C47.6490273,41.0574678 47.7101537,41.1305835 47.796536,41.2235591 C47.8529049,41.2841848 47.8529049,41.2841848 47.9098507,41.3450547 C47.9884269,41.4289284 48.0713978,41.5167759 48.1632228,41.6134048 C48.2574407,41.7125518 48.3331458,41.791811 48.5025785,41.9688957 C49.5440881,43.0572638 50.0114533,43.575492 50.5519596,44.2902914 C51.0427402,44.9431902 51.3832743,45.4693275 51.669429,46.0792381 C52.0730991,46.9425404 52.0792526,47.9359628 51.6663932,48.7427808 C51.2982306,49.4623352 50.6435601,49.9249962 49.889441,49.9803017 C49.8358127,49.9836923 49.8358127,49.9836923 49.7872608,49.9842285 L45.9279816,49.9792442 C44.5579706,50.0954292 43.3132957,49.5387749 42.2811984,48.3778214 C41.9535303,48.0095642 41.7019269,47.7062117 41.1631236,47.0409776 C41.0370535,46.8853662 41.0370535,46.8853662 40.910158,46.7292756 C40.8481871,46.653254 40.8481871,46.653254 40.7863716,46.5777643 C40.7522533,46.7373028 40.737196,46.939453 40.7267699,47.1773024 C40.6527349,48.9714105 39.795449,49.8954648 38.1070074,49.9803406 C37.8579282,49.9934412 37.6114287,49.9999998 37.3683709,50 C35.2110759,50.0000635 33.3271399,49.4840611 31.65408,48.4278528 Z M39.554534,38.3393229 C39.5565288,38.337126 39.5581285,38.3353642 39.5594975,38.3338544 C39.5579444,38.3355771 39.5564605,38.3372141 39.554534,38.3393229 Z" id="ic_vk_normal_e"></path>
                </g>
            </g>
        </g>
    </g>
</svg>