<svg width="242" height="177" viewBox="0 0 242 177" xmlns="http://www.w3.org/2000/svg" xmlns:xlink="http://www.w3.org/1999/xlink"><defs><path d="M28.446 62.297c-8.931-9.682-8.315-24.76 1.376-33.683 9.692-8.923 24.785-8.31 33.719 1.37 8.93 9.682 8.313 24.76-1.379 33.687-9.692 8.921-24.79 8.303-33.716-1.374zm-16.831 2.027l-3.596 7.763 9.033 9.793c2.686-.987 5.373-1.968 8.06-2.954a38.23 38.23 0 0 0 9.442 4.342c.983 2.687 1.966 5.366 2.952 8.044l13.318.544c1.206-2.597 2.41-5.192 3.61-7.788a38.408 38.408 0 0 0 9.764-3.587c2.587 1.2 5.177 2.4 7.77 3.593l9.799-9.021c-.988-2.685-1.969-5.368-2.962-8.052a38.386 38.386 0 0 0 4.36-9.436c2.68-.981 5.359-1.968 8.045-2.951l.539-13.3c-2.6-1.207-5.2-2.408-7.792-3.61a38.502 38.502 0 0 0-3.591-9.755c1.205-2.582 2.396-5.17 3.6-7.762l-9.037-9.793a5231.32 5231.32 0 0 1-8.058 2.956 38.666 38.666 0 0 0-9.44-4.346L54.474.971 41.159.427c-1.204 2.593-2.408 5.193-3.611 7.79a38.238 38.238 0 0 0-9.762 3.584c-2.59-1.2-5.178-2.397-7.77-3.596l-9.799 9.026c.987 2.68 1.972 5.364 2.955 8.048a38.694 38.694 0 0 0-4.353 9.437C6.14 35.7 3.458 36.68.773 37.668L.229 50.97l7.8 3.607a38.544 38.544 0 0 0 3.586 9.746z" id="a"/></defs><g fill="none" fill-rule="evenodd"><path d="M131.113.782l-.03-.374a79.814 79.814 0 0 1 4.496-.224l.008.374a79.52 79.52 0 0 0-4.474.224zm13.43.12a73.024 73.024 0 0 0-4.473-.308l.014-.374c1.507.058 3.02.162 4.498.31l-.038.373zm-22.321 1.062l-.069-.368a87.076 87.076 0 0 1 4.445-.712l.05.371a85.75 85.75 0 0 0-4.426.709zm31.164.414a67.147 67.147 0 0 0-4.397-.883l.062-.37c1.485.248 2.973.546 4.421.889l-.086.364zm-39.882 1.673l-.106-.36a93.786 93.786 0 0 1 4.352-1.156l.088.364c-1.44.346-2.899.733-4.334 1.152zm48.443.999a62.942 62.942 0 0 0-4.234-1.488l.111-.358c1.438.449 2.872.952 4.26 1.497l-.137.349zm-56.928 1.914l-.139-.348a97.106 97.106 0 0 1 4.226-1.562l.122.354a98.024 98.024 0 0 0-4.21 1.556zm65.012 1.963a60.63 60.63 0 0 0-3.967-2.086l.162-.338a61.445 61.445 0 0 1 3.991 2.099l-.186.325zm-73.203 1.715l-.17-.334a103.59 103.59 0 0 1 4.071-1.939l.154.342c-1.357.61-2.721 1.26-4.055 1.931zm80.621 3.304a61.685 61.685 0 0 0-3.617-2.645l.21-.31a61.825 61.825 0 0 1 3.64 2.661l-.233.294zm-88.46 1.09l-.197-.318c1.272-.789 2.58-1.56 3.885-2.292l.184.327c-1.3.729-2.604 1.497-3.871 2.284zm95.08 4.944a65.41 65.41 0 0 0-3.203-3.133l.253-.277a65.617 65.617 0 0 1 3.222 3.152l-.272.258zm-102.504.131l-.225-.3a102.14 102.14 0 0 1 3.67-2.63l.212.31a100.883 100.883 0 0 0-3.657 2.62zm-6.94 5.726l-.252-.277a98.676 98.676 0 0 1 3.418-2.955l.239.29a98.377 98.377 0 0 0-3.405 2.942zm115.191 1.016a70.865 70.865 0 0 0-2.762-3.53l.288-.24a71.614 71.614 0 0 1 2.777 3.549l-.303.221zM68.267 32.178l-.277-.253c1-1.1 2.048-2.197 3.114-3.26l.265.265a91.615 91.615 0 0 0-3.102 3.248zm126.415 2.202a80.616 80.616 0 0 0-2.324-3.834l.315-.203a80.908 80.908 0 0 1 2.335 3.852l-.326.185zM62.578 39.119l-.302-.222a85.197 85.197 0 0 1 2.766-3.56l.29.238a84.73 84.73 0 0 0-2.754 3.544zm136.13 3.272a91.964 91.964 0 0 0-1.912-4.057l.336-.168a92.707 92.707 0 0 1 1.92 4.074l-.344.151zM57.68 46.633l-.326-.186a77.483 77.483 0 0 1 2.353-3.845l.315.205a77.514 77.514 0 0 0-2.342 3.826zm144.283 4.116a105.949 105.949 0 0 0-1.536-4.214l.35-.136a107.896 107.896 0 0 1 1.542 4.23l-.356.12zM53.711 54.68l-.346-.143a70.24 70.24 0 0 1 1.87-4.112l.336.166a70.406 70.406 0 0 0-1.86 4.09zm150.818 4.668a124.512 124.512 0 0 0-1.202-4.324l.36-.107c.42 1.412.826 2.87 1.205 4.337l-.363.094zM50.837 63.174l-.362-.094a64.177 64.177 0 0 1 1.296-4.32l.356.12a63.606 63.606 0 0 0-1.29 4.294zm155.645 4.935c-.28-1.482-.585-2.961-.905-4.397l.367-.081c.32 1.44.625 2.922.907 4.408l-.369.07zm-157.267 3.86l-.373-.04c.16-1.48.378-2.978.65-4.453l.37.068a59.445 59.445 0 0 0-.647 4.424zm158.682 5.006c-.196-1.495-.412-2.99-.644-4.443l.37-.06c.232 1.458.45 2.956.646 4.454l-.372.049zM48.578 80.929a57.524 57.524 0 0 1-.044-4.51l.376.01a57.084 57.084 0 0 0 .043 4.482l-.375.018zm160.26 4.977c-.121-1.497-.26-3.002-.415-4.471l.373-.04c.154 1.473.295 2.981.415 4.48l-.374.03zM49.724 89.87a57.927 57.927 0 0 1-.748-4.448l.372-.048a58.19 58.19 0 0 0 .743 4.419l-.367.077zm159.661 3.206l-.374-.015a54.387 54.387 0 0 0 0-4.48l.376-.016a55.293 55.293 0 0 1-.002 4.511zM51.983 98.587c-.421-1.42-.827-2.878-1.207-4.337l.363-.094c.378 1.454.784 2.909 1.204 4.324l-.36.107zm156.282 3.425l-.367-.077c.307-1.459.557-2.944.741-4.414l.372.047a54.905 54.905 0 0 1-.746 4.444zM54.86 107.117a117.982 117.982 0 0 1-1.518-4.238l.356-.12c.48 1.424.988 2.846 1.512 4.226l-.35.132zm150.853 3.527l-.35-.134a57.217 57.217 0 0 0 1.439-4.24l.36.107a57.504 57.504 0 0 1-1.449 4.267zm-147.31 4.75a104.149 104.149 0 0 1-1.86-4.1l.346-.148a104.062 104.062 0 0 0 1.852 4.087l-.338.162zm143.463 3.407l-.327-.183a63.112 63.112 0 0 0 2.062-3.986l.34.16a63.341 63.341 0 0 1-2.075 4.01zM62.67 123.325a92.606 92.606 0 0 1-2.228-3.915l.331-.177a92.855 92.855 0 0 0 2.219 3.899l-.322.193zm134.241 3.014l-.3-.226a68.568 68.568 0 0 0 2.588-3.663l.313.207a69.52 69.52 0 0 1-2.6 3.682zM67.708 130.79a83.522 83.522 0 0 1-2.617-3.667l.311-.209a84.37 84.37 0 0 0 2.605 3.651l-.299.225zm123.332 2.39l-.27-.26a75.621 75.621 0 0 0 3.025-3.315l.285.243a77.084 77.084 0 0 1-3.04 3.332zm-117.503 4.48a77.264 77.264 0 0 1-3.013-3.352l.286-.241a77.11 77.11 0 0 0 2.998 3.334l-.27.259zm110.877 1.634l-.238-.29a82.865 82.865 0 0 0 3.383-2.95l.254.275a84.121 84.121 0 0 1-3.399 2.965zM80.142 143.79a72.374 72.374 0 0 1-3.397-2.963l.255-.275a71.78 71.78 0 0 0 3.38 2.948l-.239.29zm97.027.872l-.208-.313a87.421 87.421 0 0 0 3.677-2.578l.223.3a87.558 87.558 0 0 1-3.692 2.59zm-89.706 4.385a70.37 70.37 0 0 1-3.745-2.512l.22-.304a69.573 69.573 0 0 0 3.724 2.497l-.199.319zm81.939.229l-.176-.331a91.711 91.711 0 0 0 3.924-2.202l.192.322a92.184 92.184 0 0 1-3.94 2.21zm-8.177 3.832l-.143-.347a92.235 92.235 0 0 0 4.118-1.81l.159.34a94.683 94.683 0 0 1-4.134 1.817zm-65.826.215a70.305 70.305 0 0 1-4.038-2.01l.179-.33a69.163 69.163 0 0 0 4.015 2l-.156.34zm57.323 2.812l-.109-.36a94.77 94.77 0 0 0 4.27-1.404l.126.352c-1.41.503-2.853.977-4.287 1.412zm-48.902.42a72.274 72.274 0 0 1-4.264-1.483l.134-.35a71.476 71.476 0 0 0 4.242 1.476l-.112.358zm40.15 1.768l-.074-.367a92.86 92.86 0 0 0 4.385-.984l.091.364a92.44 92.44 0 0 1-4.402.987zm-31.392.398a76.318 76.318 0 0 1-4.411-.95l.09-.363a74.9 74.9 0 0 0 4.39.944l-.069.37zm22.468.91l-.036-.372a87.338 87.338 0 0 0 4.46-.54l.054.371c-1.484.218-2.99.4-4.478.542zm-13.517.205a79.113 79.113 0 0 1-4.49-.428l.046-.372c1.472.182 2.975.326 4.47.426l-.026.374zm5.457.18c-.316 0-.633-.001-.95-.005l.005-.375c1.49.019 2.996-.005 4.49-.07l.016.375a84.17 84.17 0 0 1-3.56.075z" fill="#FFF"/><g transform="translate(35.021 68.247)"><mask id="b" fill="#fff"><use xlink:href="#a"/></mask><use fill="#799921" xlink:href="#a"/><path d="M45.99 18.52c-15.246 0-27.649 12.39-27.649 27.621 0 15.23 12.403 27.62 27.648 27.62 15.246 0 27.648-12.39 27.648-27.62S61.235 18.52 45.989 18.52zm0 55.777c-15.54 0-28.184-12.63-28.184-28.156 0-15.525 12.643-28.155 28.183-28.155s28.183 12.63 28.183 28.155S61.53 74.297 45.99 74.297z" fill="#FFFFFE" mask="url(#b)"/></g><path d="M117.22 17.23c-.141.002 0 .363 0 .363-6.366-2.589-50.249-4.302-51.646 5.386-2.254 15.632-4.531 26.526 7.344 31.216 7.633 3.015 24.408 2.217 35.209 1.211l8.659 6.431-.206-7.402c.46-.068.826-.128 1.068-.174 11.805-2.246 18.493-37.31-.428-37.032" fill="#78C2D0"/><path d="M112.675 27.33c-5.201.232-10.98.345-17.669.345h-.002a923.79 923.79 0 0 1-14.851-.141l-.204-.004-.015.941.21.004c4.07.066 9.441.141 14.887.141 6.69 0 12.47-.113 17.668-.344l.215-.01-.04-.941-.199.009m-32.511 7.145c5.19-.233 10.957-.346 17.63-.346 5.454 0 10.824.077 14.892.143l.204.004.014-.942-.21-.003a928.587 928.587 0 0 0-14.899-.144c-6.69 0-12.464.114-17.655.346l-.216.01.04.94.2-.008m16.384 5.615c0-.308.017-.612.048-.905-6.152.012-11.545.125-16.453.343l-.215.01.04.94.2-.008c4.863-.218 10.233-.33 16.38-.343v-.036" fill="#FFF"/><path d="M154.072 15.711c.3-2.289-2.702-3.185-3.485-1.791.251-2.187-1.163-5.053-3.588-5.3-4.578-.535-3.25 3.713-5.451 3.774-2.01-.048-.512-3.675-5.083-1.858-1.095.407-1.65 1.934-2.423 3.822-1.566-2.152-2.526-.75-2.814 1.353a65.08 65.08 0 0 0 22.844 0zm50.898 145.836c.3-2.29-2.703-3.185-3.485-1.791.25-2.187-1.163-5.054-3.588-5.3-4.578-.535-3.251 3.713-5.451 3.774-2.01-.048-.512-3.675-5.084-1.858-1.094.407-1.649 1.934-2.422 3.822-1.567-2.152-2.527-.75-2.815 1.353a65.095 65.095 0 0 0 22.845 0zM165.614 21.619c-.427-4.399 3.843-6.121 4.955-3.443-.356-4.201 1.656-9.71 5.104-10.184 6.511-1.028 4.624 7.135 7.753 7.253 2.86-.091.728-7.062 7.23-3.57 1.557.78 2.346 3.717 3.446 7.345 2.228-4.136 5.915 2.45 3.43 3.557-10.776 2.588-32.7 2.214-31.918-.958z" fill="#E8EAEC"/><path d="M153.37 46.814c-6.388-4.241-17.457-8.977-23.253-14.018-8.283 8.914 7.492 24.617 14.15 29.648l9.103-15.63" fill="#E3BFB5"/><path d="M139.672 46.837c-2.39-3.029-4.394-3.876-5.72-4.436-.635-.268-1.136-.48-1.473-.836l.197-.185c.298.314.776.516 1.381.772 1.352.571 3.395 1.434 5.828 4.518l-.213.167" fill="#B99765"/><path d="M143.485 43.33c2.018 1.275-1.957 14.286-5.046 13.912-.872.285-.708-8.92-3.16-14.696-3.17-7.467-8.525-2.852-5.999 1.5-.261 1.897.206 15.527 1.483 19.07 1.79 3.981 13.049 18.368 13.98 22.855l12.23-7.214c-.257-9.597-1.661-8.277-.712-24.256.507-8.551-.027-12.9-3.561-14.859-10.467-5.799-28.364-11.923-28.296-11.951-2.362 2.234 5.054 6.775 19.081 15.639" fill="#F7D0C2"/><path d="M241.541 134.381c2.56 8.222-11.07 2.479-5.347 10.197-18.941 3.312-41.929-4.545-62.616-21.025-21.685-15.653-32.716-39.352-34.072-47.488a134.317 134.317 0 0 0 18.466-2.355c7.23 14.414 21.35 26.739 36.12 33.293 14.78 6.862 30.211 7.955 40.284 6.988-.097.61 4.606 12.463 7.165 20.39" fill="#2879FF"/><path d="M161.709 80.098a59.174 59.174 0 0 1-3.737-6.388 134.317 134.317 0 0 1-18.466 2.355c.303 1.82 1.092 4.418 2.374 7.53a1284.803 1284.803 0 0 0 19.829-3.497" fill="#78C2D0"/><path d="M140.215 77.557l-.043-.267c2.623-.424 4.887-.666 6.884-.88 3.295-.352 6.14-.657 9.446-1.62l.076.26c-3.33.97-6.186 1.275-9.493 1.63-1.994.212-4.254.455-6.87.877m17.56 1.836a1.167 1.167 0 1 1 .591-1.54 1.167 1.167 0 0 1-.591 1.54" fill="#FFFFFE"/><path d="M167.471 31.846c1.336 2.396 1.873 6.831.284 8.964-.53.71-6.183.9-6.183.9L162.07 31s3.888-1.868 5.402.847" fill="#FFF"/><path fill="#4F4E4F" d="M161.835 30.428l-40.786 4.494 1.252 11.343 40.787-4.494-1.253-11.343"/><path fill="#F7D0C2" d="M121.1 34.807l-12.736 7.253 14.012 4.305-1.276-11.558"/><path d="M113.692 43.698l-5.328-1.638 5.328 1.637m-5.328-1.637l4.842-2.758-4.842 2.758" fill="#19301F"/><path fill="#FFF" d="M113.692 43.697l-5.328-1.637 4.842-2.758.486 4.395"/><path fill="#FFFFFE" d="M121.536 38.084l-.03-.268 40.65-4.48.03.27-40.65 4.478m.58 5.257l-.03-.268 40.65-4.48.03.27-40.65 4.478"/><path fill="#FFB839" d="M163.614 29.694l1.574 12.747-2.307.357-1.514-12.789 2.247-.315"/><path d="M137.014 59.71c-1.333-3.053-.669-10.254-1.643-15.551-1.468-7.978-6.165-8.456-6.76-3.44-.21 1.532 4.345 17.81 5.68 21.43 2.025-3.205.767.77 2.723-2.438" fill="#F7D0C2"/><path d="M129.515 43.23c.08.026.176.054.27.08a12 12 0 0 0 .635.149c.188.04.367.08.535.125l.071.02c.052-.014.185-.244.193-1.055.015-1.425-.34-3.13-.68-3.259a3.954 3.954 0 0 0-.092-.026c-.623-.17-1.043-.088-1.284.25-.653.916.186 3.399.352 3.716zm.198.34a5.807 5.807 0 0 1-.328-.1c-.219-.112-1.064-2.634-.595-3.827.186-.472.66-.97 1.837-.608.754.285 1.027 3.645.749 4.498-.116.357-.312.362-.418.333l-.074-.021a10.178 10.178 0 0 0-.522-.122 12.713 12.713 0 0 1-.649-.153z" fill="#B99765"/><path d="M159.665 172.841l.276-.386c7.547-10.67 12.23-22.685 13.763-35.324a71.511 71.511 0 0 0 .21-1.931c.311-3.229-2.536-6.256-6.068-6.71l-4.212-.574a70.63 70.63 0 0 1-1.356 12.515l4.17.963c.187.044.374.076.56.105-1.66 8.316-4.768 16.293-9.231 23.692a7.732 7.732 0 0 0-.507-.244c-1.298-.558-2.595-1.116-3.894-1.673a76.706 76.706 0 0 1-7.6 10.472c1.218.666 2.437 1.332 3.656 2 3.049 1.696 7.344 1.006 9.335-1.675.304-.408.603-.818.898-1.23z" fill="#78C2D0"/><path d="M163.634 127.916a70.63 70.63 0 0 1-1.356 12.515l2.401.555a86.208 86.208 0 0 0 1.36-12.742l-2.405-.328m-10.258 35.358a76.706 76.706 0 0 1-7.6 10.472l2.201 1.203a93.453 93.453 0 0 0 7.707-10.685l-2.308-.99" fill="#2879FF"/><path d="M148.083 175.033l-.212-.168a179.075 179.075 0 0 0 7.754-10.491l.224.153a179.343 179.343 0 0 1-7.766 10.506" fill="#DADADA"/><path d="M144.11 122.033c-.141.002 0 .364 0 .364-6.366-2.589-50.249-4.302-51.646 5.385-2.254 15.632-4.53 26.526 7.344 31.217 7.633 3.015 24.409 2.217 35.208 1.212l8.66 6.43-.206-7.402c.46-.068.827-.128 1.069-.174 11.804-2.245 18.492-37.31-.429-37.032" fill="#FC5D16"/><path d="M114.72 135.64a1.749 1.749 0 0 0-.06-.364 1.13 1.13 0 0 1-.038-.164c0-.055-.02-.226-.068-.515l-.132-.769c0-.135-.023-.352-.075-.68-.048-.307-.1-.628-.158-.968l-.157-.927a4.01 4.01 0 0 1-.066-.476 1.76 1.76 0 0 0-.072-.505c-.16-.54-.468-.465-.671-.419a.423.423 0 0 0-.257.167.597.597 0 0 0-.17.2.715.715 0 0 0-.111.358v.732h.167a.926.926 0 0 1 .033.251l.13.591c.06.263.122.55.183.86.061.312.119.61.17.894.068.363.073.48.073.507 0 .215.02.464.06.74.04.274.085.514.143.752.038.11.06.265.068.455.01.217.014.424.014.619 0 .239-.016.55-.048.934-.034.407-.051.817-.051 1.218 0 .274-.007.607-.02.998l-1.402-.062a8.7 8.7 0 0 0-.834.052c-.32.031-.598.047-.883.05-.294.042-.533.054-.7.024-.194-.032-.412-.073-.612-.109a10.62 10.62 0 0 0-.509-.153c-.178-.052-.338-.1-.465-.142l-.273-.1v-.643c0-.228.032-.54.1-.983 0-.053.017-.261.05-.628.033-.402.05-.854.05-1.34 0-.525.016-1.01.048-1.442.03-.384.047-.64.05-.769a2.49 2.49 0 0 0 .088-.59 9.08 9.08 0 0 0-.037-1.495 9.547 9.547 0 0 1-.049-.922c0-.301-.005-.56-.014-.778-.008-.18-.03-.653-.434-.653l-.072.008a.725.725 0 0 0-.376.196l-.063.088c-.064.129-.113.308-.154.566-.024.155-.048.487.018 1.556 0 .586-.005 1.093-.015 1.518-.01.5-.047.748-.076.869l-.01.08c0 .138-.014.41-.041.811-.03.42-.044.834-.044 1.242 0 .394-.016.861-.049 1.404a22.28 22.28 0 0 0-.048 1.406 67.23 67.23 0 0 0-.137 1.24c-.044.443-.066.76-.066.968 0 .174-.019.36-.057.551a1.652 1.652 0 0 1-.106.377 1.24 1.24 0 0 0-.12.456 3.563 3.563 0 0 0-.016.283c0 .101.017.318.052.651.031.297.047.643.047 1.033 0 .412.018.819.052 1.205.032.372.049.655.049.847 0 .229-.016.473-.047.726a5.6 5.6 0 0 0-.054.657c0 .118-.019.278-.057.474a4.343 4.343 0 0 1-.112.46c-.102.162-.18.343-.232.537a1.95 1.95 0 0 0-.084.497l.018.11.068.196v.395l.198-.075c.078.06.19.107.35.107a.55.55 0 0 0 .368-.147.537.537 0 0 0 .17-.292l.544-.204-.447-.112c.008-.088.013-.18.013-.278 0-.053.009-.105.027-.156.026-.07.045-.133.057-.19a.8.8 0 0 0 .107-.262l.008-.072a2.28 2.28 0 0 1 .043-.255 2.67 2.67 0 0 0 .057-.533c0-.127.016-.285.046-.474.029-.185.046-.33.052-.436.05-.141.076-.334.08-.594.006-.26.008-.513.008-.763 0-.205-.015-.521-.044-.95-.028-.41-.042-.782-.042-1.117v-1.57a1.74 1.74 0 0 0 .124-.47 4.53 4.53 0 0 0 .062-.711v-.392c.062.013.108.026.141.037.154.052.349.1.586.147.207.04.382.063.532.069.123.048.273.078.455.093.147.012.28.037.396.075l.11.019c.1 0 .303-.015.606-.045.273-.026.528-.04.797-.043.15-.013.304-.02.465-.02l.123.001c.212.004.416.013.61.027.196.014.36.029.496.042.07.008.128.013.174.017a.71.71 0 0 0 .236.081c-.01.379-.016.737-.016 1.075 0 .467-.016.959-.049 1.458-.034.517-.05.848-.05.994 0 .134-.017.342-.049.626a8.043 8.043 0 0 0-.052.856c0 .228-.015.462-.046.695a5.449 5.449 0 0 0-.053.49 1.8 1.8 0 0 1-.044.324 2.47 2.47 0 0 0-.056.46c0 .146.004.331.014.556.01.225.038.445.086.653.003.155.022.322.056.494.026.137.041.227.043.268l.002.141.1.1c.12.12.245.144.33.144l.168-.021.09-.062a1.49 1.49 0 0 0 .19-.16c.111-.112.17-.271.186-.5a5.214 5.214 0 0 0-.038-1.173 5.153 5.153 0 0 1-.046-.64c0-.176.03-.417.1-.784 0-.049.017-.195.047-.436a8.88 8.88 0 0 0 .053-1.048c-.002-.38.015-.72.047-1.009a9.29 9.29 0 0 0 .052-.557c0-.055.017-.32.05-.798.032-.502.05-1.059.05-1.656a64.044 64.044 0 0 1 .036-2.14l.041-1.044c.016-.334.023-.619.023-.85 0-.546-.005-1.01-.014-1.392-.01-.384-.038-.65-.087-.83m10.88 14.107l-.079-.044h-.09c-.104 0-.196.006-.277.018-.11.016-.225.057-.347.125-.003.001-.068.031-.29.036-.214.005-.526.007-.942.007-.396 0-.695-.017-.888-.052a3.75 3.75 0 0 1-.507-.122 8.465 8.465 0 0 0-.604-.134c-.396-.074-.926-.06-1.49-.07a1.703 1.703 0 0 1-.481-.06l-.11-.018c-.115 0-.235-.016-.36-.047-.09-.023-.129-.042-.134-.036-.026-.035-.095-.143-.19-.421-.025-.074-.055-.224-.062-.515a49.055 49.055 0 0 1-.006-.744c0-.135.016-.35.048-.648.035-.337.052-.638.052-.92 0-.314.013-.634.041-.962.03-.35.045-.619.045-.806 0-.156.014-.306.041-.441a1.97 1.97 0 0 0 .058-.385c0-.074.014-.186.039-.337.031-.191.047-.39.047-.59v-1.113l-.017-.11.123-.042c.002 0 .051-.027.202-.027.124 0 .24.018.347.053l.117.018c.067 0 .205.005.413.014a31.676 31.676 0 0 0 1.393.029h.347c.117 0 .266-.013.372-.102a.762.762 0 0 0 .18-.23.874.874 0 0 0 .159-.422l.05-.397h-.401l-.366-.009-.772-.013a52.479 52.479 0 0 1-.87-.022c-.783-.025-1.148-.014-1.351-.022.006-.087.017-.206.03-.355.03-.331.044-.704.044-1.142 0-.4.033-.916.106-1.57a.824.824 0 0 0 .08-.37c0-.08.016-.304.047-.667a14.7 14.7 0 0 0 .052-1.286c0-.507.015-1.04.043-1.6.03-.572.043-1.024.043-1.35 0-.366.005-.67.015-.914v-.016c.103.013.195.029.27.048.151.05.35.101.595.152.212.044.384.088.49.123.091.039.232.075.455.12.194.04.406.077.639.116a60.71 60.71 0 0 0 1.123.18c.276.072.46.125.582.186l.006.028c.053.199.22.288.36.288l.07-.006c.122-.023.206-.093.43-.316.219-.219.285-.311.317-.368l.087-.193-.038-.142a.454.454 0 0 0-.154-.233c-.125-.163-.374-.212-.5-.236a3.705 3.705 0 0 0-.662-.063c-.214-.045-.417-.09-.609-.134-.17-.04-.224-.065-.216-.055l-.103-.096-.144-.001c-.028 0-.093-.004-.197-.012-.12-.01-.256-.021-.405-.036l-.45-.042a3.84 3.84 0 0 0-.36-.023 1.35 1.35 0 0 1-.328-.043l-.02-.164h-.349a.841.841 0 0 0-.281-.076c.008-.002.001-.009-.03-.029a2.303 2.303 0 0 0-.3-.201 2.11 2.11 0 0 0-.373-.156 1.253 1.253 0 0 0-.37-.072 1.19 1.19 0 0 0-.149.008.4.4 0 0 0-.342.271.674.674 0 0 0-.109.295 2.01 2.01 0 0 0-.017.229c0 .051-.015.33-.042.836a34.617 34.617 0 0 0-.044 1.844c0 .74-.017 1.404-.05 1.977-.033.599-.05.99-.05 1.174 0 .129-.018.304-.052.523-.036.229-.077.43-.122.6l-.011.088c0 .176-.014.455-.042.837-.029.404-.044.772-.044 1.102v3.25c0 .217-.016.46-.048.731-.032.278-.048.51-.051.695-.048.203-.09.499-.128.902-.039.423-.058.853-.058 1.28 0 .361-.013.715-.041 1.062-.03.373-.045.602-.045.691 0 .15.017.395.052.733.032.314.072.57.12.765.001.225.017.448.046.666.025.192.039.326.039.403 0 .099.006.196.018.29.024.212.138.34.27.395a.523.523 0 0 0 .299.097c.097 0 .24-.029.399-.189a1.31 1.31 0 0 0 .233-.431h.057c.075 0 .207.016.396.045.478.074 1 .043 1.493.095.28.03.517.045.708.045.13 0 .307.019.532.053.24.037.473.08.71.128.224.037.416.072.58.104.255.051.353.035.452-.012.067-.009.154-.023.26-.044.15-.03.329-.044.527-.044l.177.002c.344 0 .76 0 .885-.275a.618.618 0 0 0 .12-.345.715.715 0 0 0-.053-.272c-.05-.125-.152-.23-.31-.317m7.313-.4c-.098 0-.276-.014-.534-.042a3.022 3.022 0 0 0-.886.042 34.3 34.3 0 0 0-.828.008c-.34.008-.507.107-.584.228a.589.589 0 0 1-.08.042l-.064.022c.085-.157.129-.349.134-.583.006-.186.008-.331.008-.44 0-.102.002-.265.007-.492a2.28 2.28 0 0 1 .08-.57l.013-.092c0-.193.018-.432.054-.71.04-.308.06-.606.06-.887 0-.205.016-.598.05-1.177.033-.602.05-1.198.05-1.773 0-.626.02-1.216.056-1.751.033-.48.052-.794.056-.942a2.63 2.63 0 0 0 .102-.699 3.43 3.43 0 0 1 .052-.356 4.12 4.12 0 0 0 .062-.7c0-.194.018-.442.055-.735.043-.352.092-.538.126-.631l.019-1.172c0-.053.008-.146.047-.3.044-.18.067-.366.067-.555 0-.131.03-.313.089-.54l.01-.086c.002-.059.02-.234.055-.523.04-.33.06-.693.06-1.075v-1.367a.754.754 0 0 0 .1-.314c.001-.05.02-.141.049-.278.041-.185.062-.366.065-.541.083-.396.08-.511.048-.606-.037-.115-.151-.307-.51-.307l-.447-.009v.347a.378.378 0 0 1-.035.096 6.753 6.753 0 0 1-.16.325 4.504 4.504 0 0 0-.174.793 26.08 26.08 0 0 0-.16 1.647c0 .52-.019.991-.055 1.401-.04.44-.059.714-.059.823 0 .101-.002.227-.006.372a1.217 1.217 0 0 1-.074.368l-.022.064.002.066c.021.462-.034.688-.083.796l-.031.143c0 .053-.018.165-.045.336-.037.22-.055.423-.055.606 0 .192-.019.421-.053.68a5.24 5.24 0 0 0-.061.703c0 .14-.018.313-.052.512a1.34 1.34 0 0 1-.105.377l-.043.077v.09c0 .103-.005.336-.014.703a11.77 11.77 0 0 1-.1 1.206v2.224c0 .258-.017.571-.05.94-.032.392-.05.748-.05 1.071 0 .262-.005.516-.014.763l-.002.044h-.098v.348c0 .054-.002.147-.007.281a1.14 1.14 0 0 1-.073.343l-.02.117c0 .158-.005.366-.014.621a1.854 1.854 0 0 1-.08.532l-.02.115c0 .137-.017.282-.05.434-.026.124-.052.172-.036.164a.484.484 0 0 0-.18.403c.012.177.123.333.328.462l.085.055h.63c.132 0 .3-.025.512-.074.2-.045.386-.1.559-.16.15-.053.313-.1.488-.138.135-.03.26-.049.377-.055.124.055.26.087.407.097.136.01.234.015.297.016l.006.07.316.03c.002 0 .031.003.104.031.2.08.38.101.671.066.29-.037.42-.25.42-.445v-.314a.639.639 0 0 0-.199-.491c-.126-.116-.305-.17-.563-.17m8.996-15.567l-.007.076c0 .192-.021.41-.06.65-.05.308-.098.413-.112.438l-.043.077v.09c0 .087-.015.202-.044.347a2.708 2.708 0 0 0-.056.479.526.526 0 0 1-.03.184 1.318 1.318 0 0 0-.059.219c-.08.131-.18.362-.296.828a2.626 2.626 0 0 1-.212.415.568.568 0 0 0-.427.416.558.558 0 0 0-.499.327c-.169.106-.288.18-.335.208-.15.057-.291.108-.422.155-.115.04-.2.09-.263.142v-3.407c0-.203.021-.548.062-1.032.044-.495.093-.973.152-1.478 0-.448.016-.88.048-1.281a13.508 13.508 0 0 0 .055-.927l.125-.039h.566c.074 0 .168.016.28.046.117.03.215.068.317.123.056.025.09.046.11.06v.285h.442c.054.078.112.15.174.211.021.021.07.079.159.217.076.122.142.231.196.331.03.055.074.157.117.333.045.175.055.275.055.328v.09l.042.076c.004.008.043.087.043.347 0 .211-.026.436-.078.666zm1.186-1.499c-.027-.272-.123-.49-.265-.626 0 0-.011-.024-.017-.086a.702.702 0 0 0-.217-.568l-.176-.173c-.223-.275-.42-.47-.594-.59a6.083 6.083 0 0 0-.636-.407l-.444-.243a1.152 1.152 0 0 0-.518-.136 11.652 11.652 0 0 0-.376-.007h-.728l-.122.021a2.708 2.708 0 0 1-.336.109.525.525 0 0 0-.418.53c0 .053-.017.17-.046.353-.036.228-.054.46-.054.69 0 .24-.018.526-.055.844a8.06 8.06 0 0 0-.06.922c0 .204-.015.508-.048.914-.034.431-.05.863-.05 1.283 0 .414-.018 1.032-.05 1.853a58.45 58.45 0 0 0-.05 2.423c0 .367-.008.767-.022 1.2l-.043 1.312a63.19 63.19 0 0 0-.034 2.247 28.204 28.204 0 0 0-.101 2.209c-.01.828-.014 1.527-.014 2.1 0 .525.004 1.005.014 1.44.01.486.021.989.447.989h.297l.082-.05a.626.626 0 0 0 .26-.334c.043-.112.068-.278.087-.556.013-.232.024-.576.03-1.03.004-.448.005-1.052.005-1.814 0-.437.004-.88.008-1.329a51.3 51.3 0 0 1 .028-1.26c.015-.392.028-.736.043-1.03.013-.276.02-.483.022-.62.028-.145.048-.349.057-.617.01-.273.017-.588.02-.942l.016-1.134.002-.249.063.007c.223.015.343.02.637-.092a2.41 2.41 0 0 0 .475-.251c.167-.066.314-.147.435-.242.12-.092.212-.171.244-.234.138 0 .283-.06.466-.193a1.24 1.24 0 0 0 .344-.358c.122-.135.245-.335.376-.61a3.89 3.89 0 0 0 .267-.699c.115-.229.202-.446.258-.643.082-.28.093-.384.093-.45a3.06 3.06 0 0 1 .057-.34c.042-.206.09-.41.15-.629.058-.265.11-.575.154-.93.044-.358.067-.704.067-1.027 0-.434-.01-.743-.03-.947z" fill="#FFFFFE"/><path d="M93.603 83.922c-.425.889-.642 19.464 0 20.526l14.512-9.563-14.123-10.963m19.187 16.266l-5.525-4.822-14.066 9.11c1.044 1.773 3.454 3.454 5.436 3.802.638.102 25.87.049 26.178 0 2.235-.394 6.414-1.57 7.38-3.666l-13.876-9.246-5.527 4.822" fill="#FFB839"/><path d="M132.468 83.023l-13.694 11.792 13.506 10.138c.426-.906 1.33-2.31 1.33-3.278 0-5.687.5-9.094.5-14.782 0-1.291-.918-2.733-1.642-3.87z" fill="#FFB839"/><path d="M132.582 83.072c-1.055-1.674-2.749-2.978-4.658-3.312-9.772-1.57-18.27-1.57-28.043 0-2.225.39-5.323 2.096-6.293 4.174l19.585 16.01 19.409-16.872" fill="#FFB839"/><path fill="#FFFFFE" d="M132.063 104.522l-13.395-8.741-5.493 4.693-5.495-4.696-13.584 8.615-.508-.795 14.176-8.992 5.411 4.625 5.417-4.628 13.99 9.13-.519.789"/><path fill="#FFFFFE" d="M113.176 99.944L93.588 83.975l.593-.742 18.976 15.47 18.81-16.306.615.723-19.406 16.824"/><path d="M202.47 40.013l-22 36.377a10.19 10.19 0 0 0-.13 10.32c1.83 3.206 5.273 5.198 8.986 5.198h22.002V35.039c-3.662 0-6.972 1.86-8.857 4.974" fill="#F87C45"/><path d="M239.969 76.39l-21.354-36.377c-1.828-3.114-5.042-4.974-8.596-4.974v56.868h21.354c3.605 0 6.947-1.99 8.724-5.197a10.462 10.462 0 0 0-.128-10.32" fill="#FC5D16"/><path d="M208.335 43.787l-21.949 36.268c-1.54 2.545.309 5.783 3.304 5.783h21.949V41.932a3.825 3.825 0 0 0-3.304 1.855" fill="#EFEFEF"/><path d="M236.891 80.054l-21.949-36.268a3.826 3.826 0 0 0-3.303-1.854v43.906h21.949c2.994 0 4.843-3.239 3.303-5.784" fill="#E1E1E1"/><path d="M210.16 50.405c-.449 0-.81.481-.798 1.064l.42 21.804c.01.563.364 1.01.798 1.01h1.059V50.406h-1.48zm1.479 31.581v-4.621c-1.258 0-2.278 1.034-2.278 2.31 0 1.277 1.02 2.311 2.278 2.311z" fill="#4F4E4F"/><path d="M213.117 50.405h-1.478v23.879h1.059c.433 0 .787-.448.798-1.01l.42-21.805c.01-.583-.35-1.064-.799-1.064m-1.478 26.96v4.621c1.257 0 2.277-1.034 2.277-2.31 0-1.277-1.02-2.311-2.277-2.311" fill="#404041"/><path d="M46.36 64.373a1.41 1.41 0 0 1-1.402 1.42 1.41 1.41 0 0 1-1.403-1.42c0-.783.628-1.42 1.403-1.42.774 0 1.401.637 1.401 1.42m5.754 12.637c0 4.002-3.205 7.244-7.155 7.244-3.953 0-7.154-3.242-7.154-7.244 0-4 3.201-7.245 7.154-7.245 3.95 0 7.155 3.244 7.155 7.245" fill="#000"/><path d="M48.514 78.875c0-1.189-.951-2.153-2.126-2.153h-.582a2.345 2.345 0 0 0 1.469-2.182c0-1.295-1.038-2.346-2.317-2.346-1.28 0-2.318 1.05-2.318 2.346 0 .993.61 1.84 1.468 2.182h-.58c-1.176 0-2.126.964-2.126 2.153l-.489 2.95h8.088l-.487-2.95zm13.284 13.623c0 2.115-1.692 3.83-3.78 3.83h-25.89c-2.09 0-3.782-1.715-3.782-3.83 0-2.114 1.693-3.828 3.781-3.828h25.89c2.089 0 3.78 1.714 3.78 3.828" fill="#000"/><path fill="#3F46AD" d="M35.37 91.164l-.492-.701-1.676 1.204v-2.082h-.848v2.082l-1.676-1.204-.492.701 1.858 1.335-1.858 1.338.492.7 1.676-1.205v2.08h.848v-2.08l1.676 1.205.492-.7-1.859-1.338zm6.113 0l-.492-.701-1.675 1.204v-2.082h-.848v2.082l-1.677-1.204-.492.701 1.86 1.335-1.86 1.338.492.7 1.677-1.205v2.08h.848v-2.08l1.675 1.205.492-.7-1.858-1.338zm6.113 0l-.492-.701-1.675 1.204v-2.082h-.848v2.082l-1.677-1.204-.491.701 1.858 1.335-1.858 1.338.491.7 1.677-1.205v2.08h.848v-2.08l1.675 1.205.492-.7-1.858-1.338zm6.113 0l-.49-.701-1.677 1.204v-2.082h-.849v2.082l-1.675-1.204-.493.701 1.86 1.335-1.86 1.338.493.7 1.675-1.205v2.08h.85v-2.08l1.675 1.205.49-.7-1.857-1.338zm6.113 0l-.491-.701-1.675 1.204v-2.082h-.85v2.082l-1.675-1.204-.491.701 1.858 1.335-1.858 1.338.49.7 1.677-1.205v2.08h.849v-2.08l1.675 1.205.491-.7-1.858-1.338z"/><path d="M76.522 103.163c0 1.555-1.271 2.814-2.838 2.814H8.962c-1.568 0-2.84-1.259-2.84-2.814v-41.35C6.122 60.26 7.394 59 8.962 59h64.722c1.567 0 2.838 1.259 2.838 2.813v41.35z" fill="#2879FF"/><path d="M12.414 101.43c-.935 0-1.7-.757-1.7-1.682V65.23c0-.926.765-1.684 1.7-1.684h57.815c.938 0 1.702.758 1.702 1.684v34.518c0 .925-.764 1.683-1.702 1.683H12.414z" fill="#FFF"/><path d="M82.644 104.353c0 1.315-1.265 2.381-2.826 2.381H2.826c-1.56 0-2.826-1.066-2.826-2.38v-3.573C0 99.465 1.265 98.4 2.826 98.4h76.992c1.56 0 2.826 1.065 2.826 2.381v3.572z" fill="#2879FF"/><path d="M47.444 101.809c0 1.048-1.09 1.895-2.435 1.895h-7.372c-1.346 0-2.437-.847-2.437-1.895 0-1.045 1.091-1.894 2.437-1.894h7.372c1.344 0 2.435.849 2.435 1.894m-3.826-40.536c0 .838-.685 1.515-1.53 1.515a1.522 1.522 0 0 1-1.531-1.515c0-.836.685-1.515 1.53-1.515.846 0 1.53.679 1.53 1.515m5.357 12.503c0 3.975-3.256 7.197-7.27 7.197-4.016 0-7.269-3.222-7.269-7.197 0-3.976 3.253-7.2 7.269-7.2 4.014 0 7.27 3.224 7.27 7.2" fill="#FFF"/><path d="M45.407 75.683a2.208 2.208 0 0 0-2.213-2.203h-.606a2.399 2.399 0 0 0 1.528-2.23c0-1.326-1.08-2.4-2.41-2.4a2.405 2.405 0 0 0-2.412 2.4c0 1.014.634 1.88 1.527 2.23h-.603a2.207 2.207 0 0 0-2.214 2.203l-.508 3.017h8.417l-.506-3.017z" stroke="#4F4E4F" stroke-width="1.171"/><path d="M58.922 89.306a3.797 3.797 0 0 1-3.805 3.79H29.06a3.798 3.798 0 0 1-3.807-3.79c0-2.091 1.704-3.787 3.807-3.787h26.058a3.796 3.796 0 0 1 3.805 3.787" fill="#FFF"/><path fill="#4F4E4F" d="M32.14 87.92l-.51-.73-1.73 1.253v-2.166h-.877v2.166l-1.732-1.253-.508.73 1.92 1.388-1.92 1.392.508.728 1.732-1.253v2.163h.876v-2.163l1.731 1.253.51-.728-1.922-1.392zm6.121 0l-.508-.73-1.73 1.253v-2.166h-.878v2.166l-1.732-1.253-.508.73 1.92 1.388-1.92 1.392.508.728 1.732-1.253v2.163h.877v-2.163l1.73 1.253.51-.728-1.921-1.392zm6.122 0l-.51-.73-1.73 1.253v-2.166h-.876v2.166l-1.732-1.253-.509.73 1.92 1.388-1.92 1.392.509.728 1.732-1.253v2.163h.877v-2.163l1.73 1.253.509-.728-1.92-1.392zm6.122 0l-.507-.73-1.732 1.253v-2.166h-.877v2.166l-1.732-1.253-.509.73 1.921 1.388-1.92 1.392.508.728 1.732-1.253v2.163h.877v-2.163l1.732 1.253.507-.728-1.92-1.392zm6.122 0l-.509-.73-1.73 1.253v-2.166h-.878v2.166l-1.732-1.253-.508.73 1.92 1.388-1.92 1.392.508.728 1.732-1.253v2.163h.878v-2.163l1.73 1.253.509-.728-1.92-1.392z"/></g></svg>