<?xml version="1.0" encoding="UTF-8"?>
<svg width="242px" height="177px" viewBox="0 0 242 177" version="1.1" xmlns="http://www.w3.org/2000/svg" xmlns:xlink="http://www.w3.org/1999/xlink">
    <!-- Generator: Sketch 51.2 (57519) - http://www.bohemiancoding.com/sketch -->
    <title>img_459</title>
    <desc>Created with Sketch.</desc>
    <defs>
        <path d="M28.4455678,62.2967695 C19.5147232,52.6146595 20.1313204,37.536117 29.8224268,28.613528 C39.5144256,19.6913847 54.6072273,20.3033696 63.5407489,29.9841425 C72.4707013,39.6658068 71.854104,54.744795 62.1621053,63.6713956 C52.4701066,72.5922017 37.3715047,71.9739766 28.4455678,62.2967695 Z M11.6149612,64.3243876 C10.4165674,66.9122861 9.21638897,69.5024132 8.01933365,72.0867458 L17.0523496,81.880288 C19.7382509,80.8934455 22.4245982,79.9115061 25.1127303,78.9260008 C28.0814988,80.8185632 31.2635333,82.2685173 34.5539854,83.2678401 C35.5373286,85.9546903 36.5202257,88.6339631 37.5057998,91.3118987 L50.8242113,91.8556872 C52.0297437,89.2593199 53.2334915,86.663844 54.4341161,84.0679224 C57.7972927,83.3253391 61.0868525,82.1356903 64.197947,80.4807011 C66.7852462,81.6801559 69.3747763,82.8818394 71.9674294,84.0737169 L81.7665072,75.0526219 C80.7787024,72.3675547 79.7980361,69.6847161 78.8053235,67.0014317 C80.703747,64.033327 82.1551152,60.8570672 83.1647821,57.5653637 C85.844437,56.58387 88.5236458,55.5974733 91.2104393,54.6137509 L91.7485119,41.3132186 C89.1491663,40.1066321 86.5498207,38.9062858 83.9571675,37.7041565 C83.2134138,34.3438109 82.0217125,31.0654793 80.3660016,27.9485013 C81.5706417,25.366843 82.762343,22.7780531 83.966537,20.1874802 L74.9290594,10.3943839 C72.2440505,11.3812263 69.5559184,12.3680688 66.8713557,13.3504539 C63.9034795,11.463686 60.721445,10.0097203 57.4309929,9.00415731 C56.4445265,6.3262217 55.4598448,3.65006902 54.4738246,0.971241957 L41.1589824,0.427007707 C39.9552346,3.02025493 38.7514868,5.62018808 37.5477391,8.21744686 C34.1836701,8.95601865 30.9003566,10.1452217 27.7856928,11.8011024 C25.1957166,10.6016475 22.6084174,9.40352986 20.0166566,8.20452074 L10.2171326,17.2305187 C11.2044913,19.9102372 12.1887268,22.5948588 13.1716239,25.2785888 C11.2781082,28.2480308 9.83164773,31.425182 8.8193039,34.7155483 C6.13875663,35.7006079 3.4577632,36.6798729 0.772754305,37.6676068 L0.229327779,50.9708135 C2.83001187,52.1742799 5.43114213,53.3759634 8.02870308,54.5776469 C8.7746876,57.9353182 9.96237349,61.2163242 11.6149612,64.3243876 Z" id="path-1"></path>
    </defs>
    <g id="FAQ" stroke="none" stroke-width="1" fill="none" fill-rule="evenodd">
        <g transform="translate(-843.000000, -1603.000000)" id="Group-7">
            <g transform="translate(0.000000, 1202.000000)">
                <g id="img_459" transform="translate(843.000000, 401.000000)">
                    <g id="417" transform="translate(35.000000, 0.000000)">
                        <path d="M96.1127622,0.781846696 L96.0835064,0.408031762 C97.5848955,0.290876885 99.0973477,0.21522971 100.579069,0.183791923 L100.586936,0.558098073 C99.1123444,0.589781467 97.6070217,0.664937426 96.1127622,0.781846696 Z M109.543889,0.902931297 C108.07323,0.755566671 106.568399,0.65167461 105.070452,0.594448014 L105.084466,0.220141864 C106.590772,0.277614068 108.10347,0.38150613 109.581503,0.530098794 L109.543889,0.902931297 Z M87.2219427,1.9639566 L87.1531054,1.59603625 C88.6316307,1.31972758 90.1268736,1.08001446 91.5975318,0.883528288 L91.6474388,1.25513275 C90.1829268,1.44989967 88.6940759,1.68887597 87.2219427,1.9639566 Z M118.385785,2.3780512 C116.946595,2.03788452 115.46684,1.7409448 113.988807,1.49484588 L114.050514,1.12520627 C115.536415,1.37253324 117.024283,1.67119221 118.472077,2.01356936 L118.385785,2.3780512 Z M78.5037079,4.0506397 L78.3984852,3.6905788 C79.8396418,3.27058962 81.3039079,2.88179261 82.7502272,2.53499453 L82.8377488,2.89947637 C81.3973299,3.24480081 79.938964,3.63236977 78.5037079,4.0506397 Z M126.946677,5.04977186 C125.566491,4.50796126 124.142052,4.00790396 122.713434,3.56212597 L122.824311,3.20402993 C124.262025,3.6525096 125.695561,4.1557598 127.08386,4.70076331 L126.946677,5.04977186 Z M70.0185363,6.96403835 L69.8803701,6.61576662 C71.2753073,6.06290366 72.6967961,5.53754877 74.1059925,5.05370159 L74.2279327,5.4076223 C72.8246366,5.88999584 71.4083107,6.41363147 70.0185363,6.96403835 Z M135.030626,8.92693516 C133.741157,8.18667353 132.406453,7.48448109 131.063635,6.84098889 L131.22614,6.50303268 C132.576825,7.15070021 133.919397,7.85706798 135.21747,8.60175056 L135.030626,8.92693516 Z M61.8278896,10.6422594 L61.6587467,10.3079873 C62.9978766,9.63354854 64.3669999,8.98121447 65.7289936,8.36940566 L65.882894,8.71104599 C64.5260631,9.32039872 63.1618568,9.97027671 61.8278896,10.6422594 Z M142.449312,13.9464199 C141.27785,13.0221981 140.061152,12.1323614 138.832408,11.3007337 L139.042607,10.9905311 C140.278973,11.8268254 141.503046,12.7225567 142.681638,13.6524275 L142.449312,13.9464199 Z M53.989788,15.0366725 L53.7916351,14.7181193 C55.0643862,13.929473 56.371556,13.1577736 57.6772507,12.425617 L57.8608986,12.7527665 C56.5601208,13.4819757 55.2573763,14.2504823 53.989788,15.0366725 Z M149.069241,19.9800189 C148.035699,18.8976257 146.958397,17.8434774 145.865851,16.8465558 L146.118582,16.5702471 C147.217274,17.5728178 148.30146,18.6328606 149.340902,19.7218852 L149.069241,19.9800189 Z M46.5652013,20.1111734 L46.3400053,19.8112864 C47.5360521,18.9133446 48.7706969,18.0289113 50.0100128,17.1818103 L50.2216873,17.4907848 C48.9867966,18.3346929 47.756577,19.2161789 46.5652013,20.1111734 Z M39.6251796,25.8372716 L39.3726945,25.5597349 C40.4797446,24.5571642 41.629818,23.5634354 42.7912004,22.6050741 L43.0296722,22.8941544 C41.8732068,23.8485859 40.7275586,24.8388762 39.6251796,25.8372716 Z M154.816166,26.8533507 C153.930133,25.6437327 153.000338,24.4569562 152.054072,23.3237223 L152.341714,23.0837635 C153.293388,24.2226465 154.227608,25.4163 155.11905,26.6315669 L154.816166,26.8533507 Z M33.2670783,32.1776346 L32.9895168,31.9249043 C33.9903609,30.8240905 35.0384077,29.7276977 36.1041555,28.6654443 L36.3689329,28.9304551 C35.3076104,29.9885331 34.2639889,31.0807506 33.2670783,32.1776346 Z M159.68222,34.3799989 C158.938041,33.0716467 158.155755,31.7822062 157.357981,30.545817 L157.672911,30.3431906 C158.474619,31.584492 159.260592,32.8810551 160.00846,34.1948107 L159.68222,34.3799989 Z M27.5781732,39.1185085 L27.2760269,38.8967247 C28.1559142,37.6993871 29.086446,36.5018039 30.0420542,35.3366409 L30.3319081,35.5746348 C29.3807252,36.7339032 28.4543728,37.9265742 27.5781732,39.1185085 Z M163.708215,42.3909856 C163.099005,41.0128807 162.455623,39.6480387 161.796015,38.3340374 L162.131842,38.1662874 C162.794155,39.485692 163.439504,40.856183 164.051418,42.2396912 L163.708215,42.3909856 Z M22.679667,46.6328763 L22.3539194,46.4469513 C23.0902318,45.1599669 23.8821058,43.8668423 24.707415,42.6019626 L25.0216078,42.8065538 C24.200478,44.0650477 23.4125376,45.3527689 22.679667,46.6328763 Z M166.963478,50.7492615 C166.477192,49.3225264 165.960421,47.904633 165.427425,46.5346332 L165.776773,46.3985666 C166.311983,47.7734785 166.829983,49.1967752 167.319219,50.6284225 L166.963478,50.7492615 Z M18.7114467,54.6802129 L18.3648021,54.5370236 C18.9356593,53.1640765 19.5650283,51.7805683 20.2342245,50.425305 L20.5705435,50.5908446 C19.905035,51.9394765 19.2793538,53.3153709 18.7114467,54.6802129 Z M169.528894,59.3479874 C169.150289,57.8858848 168.746608,56.4316415 168.327193,55.0240637 L168.687359,54.91747 C169.107266,56.3289775 169.512668,57.7878873 169.89201,59.2544109 L169.528894,59.3479874 Z M15.8374924,63.17431 L15.4746219,63.079751 C15.8515057,61.640981 16.2876387,60.1877202 16.7714661,58.7602482 L17.1267154,58.8803504 C16.6455923,60.2994717 16.2119178,61.7441363 15.8374924,63.17431 Z M171.482396,68.1088144 C171.201639,66.6265719 170.896788,65.1477679 170.576695,63.7119452 L170.943745,63.6308947 C171.264084,65.0701559 171.56918,66.5533808 171.850675,68.0388162 L171.482396,68.1088144 Z M14.2151465,71.968294 L13.8421962,71.9282599 C14.0012594,70.4487191 14.2200635,68.9507577 14.492708,67.4763746 L14.8617247,67.5444079 C14.5908011,69.0099491 14.3734721,70.4978406 14.2151465,71.968294 Z M172.897247,76.9747615 C172.700815,75.4802386 172.484715,73.9854701 172.253127,72.5317181 L172.623865,72.4727722 C172.855207,73.9302084 173.072536,75.4284154 173.268968,76.9261312 L172.897247,76.9747615 Z M13.5781563,80.9290457 C13.5324287,79.9977012 13.5090732,79.0533396 13.5090732,78.1195391 C13.5090732,77.556115 13.517432,76.9840946 13.5341497,76.4189513 L13.9095584,76.4295124 C13.8928408,76.9914629 13.884482,77.5597991 13.884482,78.1195391 C13.884482,79.0467082 13.9075916,79.9861577 13.9528275,80.9108707 L13.5781563,80.9290457 Z M173.837121,85.9055491 C173.716656,84.4085701 173.577261,82.9042229 173.422868,81.4345063 L173.795819,81.3957003 C173.950211,82.8681185 174.09059,84.3761499 174.210809,85.8758305 L173.837121,85.9055491 Z M14.7252795,89.8696575 C14.4184622,88.3996954 14.1667146,86.9034532 13.9766747,85.4217019 L14.3486416,85.374054 C14.5376981,86.8454898 14.7877247,88.3323988 15.0920836,89.7930279 L14.7252795,89.8696575 Z M174.386344,93.0763118 L174.011673,93.0605929 C174.042649,92.3164015 174.058629,91.5591929 174.058629,90.8081246 C174.058629,90.0720383 174.043633,89.3229347 174.012656,88.5809538 L174.387819,88.5654806 C174.418304,89.3126192 174.434284,90.0678629 174.434284,90.8081246 C174.434284,91.5638595 174.417321,92.3269626 174.386344,93.0763118 Z M16.9833864,98.5870119 C16.5620043,97.1671538 16.1556188,95.7087352 15.7757848,94.2503166 L16.139147,94.1557576 C16.5172601,95.6100009 16.9226622,97.064981 17.3430609,98.4801726 L16.9833864,98.5870119 Z M173.26528,102.012257 L172.897985,101.935382 C173.205294,100.475981 173.454829,98.9905454 173.639214,97.5208289 L174.010935,97.5679855 C173.825075,99.0472808 173.574556,100.542786 173.26528,102.012257 Z M19.8597991,107.117213 C19.3339319,105.733214 18.8230613,104.307215 18.3421841,102.879007 L18.6979251,102.759396 C19.1770813,104.183429 19.686231,105.605007 20.2101314,106.984585 L19.8597991,107.117213 Z M170.713386,110.643894 L170.363054,110.510038 C170.898755,109.112776 171.382828,107.686286 171.801506,106.270358 L172.161426,106.376706 C171.739798,107.801968 171.252775,109.238036 170.713386,110.643894 Z M23.4027037,115.39493 C22.7627633,114.061771 22.1375738,112.681702 21.5438527,111.293281 L21.8890222,111.146408 C22.4802848,112.529425 23.1037534,113.904582 23.7409895,115.232829 L23.4027037,115.39493 Z M166.865631,118.801263 L166.5389,118.617549 C167.276196,117.308214 167.969977,115.967196 168.601067,114.631581 L168.94009,114.791963 C168.305804,116.134946 167.607352,117.484069 166.865631,118.801263 Z M27.6703659,123.324866 C26.9062727,122.056302 26.1569303,120.738862 25.4424982,119.409879 L25.7731628,119.23255 C26.4846447,120.555885 27.2310369,121.867921 27.9916883,123.131573 L27.6703659,123.324866 Z M161.911071,126.339455 L161.61163,126.11325 C162.518314,124.914685 163.388122,123.682225 164.19868,122.450257 L164.512381,122.656567 C163.697152,123.894922 162.822427,125.134012 161.911071,126.339455 Z M32.7082675,130.790112 C31.8138753,129.606774 30.9332505,128.372841 30.0912237,127.123435 L30.4022204,126.914423 C31.2408054,128.15818 32.1172508,129.386464 33.0072178,130.565381 L32.7082675,130.790112 Z M156.040239,133.180121 L155.770545,132.919531 C156.814658,131.840822 157.83222,130.725518 158.794712,129.604564 L159.080141,129.848452 C158.111257,130.975546 157.088778,132.096254 156.040239,133.180121 Z M38.5370597,137.65976 C37.5106475,136.583507 36.4967735,135.456168 35.523956,134.308443 L35.8098763,134.066765 C36.7782686,135.208349 37.7869798,136.330531 38.8084751,137.401135 L38.5370597,137.65976 Z M149.41441,139.294279 L149.175693,139.003971 C150.328962,138.051996 151.467481,137.059495 152.558551,136.054222 L152.812757,136.329303 C151.71677,137.339242 150.573334,138.336409 149.41441,139.294279 Z M45.1415,143.789146 C43.9899515,142.846749 42.8474994,141.849582 41.7448745,140.825643 L42.0003098,140.550808 C43.0970343,141.569835 44.233832,142.561599 45.3794801,143.499329 L45.1415,143.789146 Z M142.168801,144.660808 L141.960814,144.348395 C143.211439,143.518486 144.448788,142.651 145.637951,141.770251 L145.861426,142.070874 C144.667346,142.955799 143.424588,143.827215 142.168801,144.660808 Z M52.4630766,149.045642 C51.1972092,148.254785 49.9372421,147.409649 48.7183314,146.534303 L48.9371355,146.229504 C50.1496541,147.100429 51.4027375,147.941144 52.661967,148.727335 L52.4630766,149.045642 Z M134.401503,149.274794 L134.225722,148.943961 C135.552068,148.241768 136.872022,147.501261 138.149936,146.741842 L138.341697,147.064079 C137.05862,147.826446 135.733012,148.5699 134.401503,149.274794 Z M126.22487,153.106766 L126.081787,152.759968 C127.46099,152.194087 128.846339,151.584735 130.200219,150.950084 L130.359037,151.290251 C129.000239,151.926375 127.60899,152.537938 126.22487,153.106766 Z M60.3985338,153.321918 C59.0394902,152.698811 57.6811842,152.022653 56.3614763,151.311373 L56.5397155,150.981277 C57.8522939,151.689118 59.2029787,152.362083 60.5551385,152.98126 L60.3985338,153.321918 Z M117.721505,156.133635 L117.613333,155.774802 C119.041213,155.342287 120.477945,154.869738 121.882962,154.369926 L122.009081,154.722128 C120.59841,155.224641 119.155778,155.699401 117.721505,156.133635 Z M68.820031,156.554852 C67.386004,156.10539 65.9509937,155.606315 64.5560564,155.070891 L64.690289,154.7209 C66.0783425,155.253623 67.5057316,155.750241 68.9323831,156.196756 L68.820031,156.554852 Z M108.970081,158.321754 L108.896327,157.954816 C110.358626,157.663771 111.833218,157.333183 113.280767,156.971157 L113.371976,157.334902 C111.918773,157.698402 110.437789,158.030218 108.970081,158.321754 Z M77.5783389,158.720375 C76.1015345,158.447751 74.616863,158.128707 73.166856,157.770856 L73.2570819,157.406865 C74.6999594,157.762997 76.1765179,158.081059 77.6466844,158.351227 L77.5783389,158.720375 Z M100.046072,159.630843 L100.010424,159.25752 C101.491654,159.117278 102.991814,158.935282 104.469356,158.717919 L104.52418,159.089033 C103.040492,159.306887 101.533448,159.489128 100.046072,159.630843 Z M86.529391,159.834698 C85.0282477,159.73449 83.5170248,159.590809 82.0384995,159.406603 L82.0847188,159.034508 C83.5566062,159.217485 85.0604537,159.361412 86.5544674,159.460883 L86.529391,159.834698 Z M91.9864622,160.015465 C91.6700568,160.015465 91.3534055,160.013746 91.0367543,160.009816 L91.0411795,159.635019 C92.5312596,159.65393 94.0365823,159.629615 95.5308418,159.565266 L95.5470677,159.940309 C94.3633133,159.990659 93.1652997,160.015465 91.9864622,160.015465 Z" id="Fill-3" fill="#FFFFFF"></path>
                        <g id="Group-70" transform="translate(0.021294, 68.247137)">
                            <mask id="mask-2" fill="white">
                                <use xlink:href="#path-1"></use>
                            </mask>
                            <use id="Clip-39" fill="#799921" xlink:href="#path-1"></use>
                            <path d="M45.9891429,18.5200107 C30.7441996,18.5200107 18.3413145,30.9108116 18.3413145,46.1413475 C18.3413145,61.3709919 30.7441996,73.761347 45.9891429,73.761347 C61.2345324,73.761347 73.6369713,61.3709919 73.6369713,46.1413475 C73.6369713,30.9108116 61.2345324,18.5200107 45.9891429,18.5200107 Z M45.9891429,74.2971125 C30.4492858,74.2971125 17.8063651,61.666064 17.8063651,46.1413475 C17.8063651,30.6161852 30.4492858,17.9855825 45.9891429,17.9855825 C61.5294462,17.9855825 74.1723669,30.6161852 74.1723669,46.1413475 C74.1723669,61.666064 61.5294462,74.2971125 45.9891429,74.2971125 Z" id="Fill-71" fill="#FFFFFE" mask="url(#mask-2)"></path>
                        </g>
                        <path d="M82.2196889,17.2292126 C82.0785726,17.2319143 82.2196889,17.5932032 82.2196889,17.5932032 C75.8542122,15.0044979 31.9714634,13.2908929 30.5743135,22.978889 C28.3198943,38.6108373 26.0428572,49.5045217 37.9180164,54.1951377 C45.5505898,57.2102179 62.326222,56.4119929 73.1265371,55.4064749 L81.7855227,61.8374672 L81.5799944,54.4350964 C82.0404663,54.3670631 82.4060411,54.3071348 82.6484465,54.2609606 C94.4530475,52.0153693 101.141076,16.9502022 82.2196889,17.2292126" id="Fill-72" fill="#78C2D0"></path>
                        <path d="M77.6754485,27.329584 C72.4738126,27.5621745 66.6941899,27.6751541 60.0061616,27.6751541 L60.0041948,27.6751541 C54.5490904,27.6751541 49.2014213,27.5997525 45.1528089,27.5339296 L44.9487557,27.5302455 L44.9344966,28.4711686 L45.1444501,28.4750984 C49.214697,28.5409212 54.58523,28.6163228 60.0305005,28.6163228 C66.7214789,28.6163228 72.50061,28.5033433 77.6992957,28.2717352 L77.914412,28.2616653 L77.8745848,27.3209877 L77.6754485,27.329584" id="Fill-73" fill="#FFFFFF"></path>
                        <path d="M45.1636262,34.4748035 C50.3539531,34.2424586 56.120546,34.1294791 62.7933317,34.1294791 C68.2481903,34.1294791 73.6177398,34.2056174 77.6860199,34.2721771 L77.8900732,34.2756156 L77.9040865,33.3339557 L77.6946246,33.3305172 C73.596597,33.2637119 68.1992667,33.1873279 62.7950527,33.1873279 C56.1055493,33.1873279 50.3305976,33.300553 45.1395332,33.5326523 L44.9244169,33.5427222 L44.9647358,34.483891 L45.1636262,34.4748035" id="Fill-74" fill="#FFFFFF"></path>
                        <path d="M61.5483613,40.0908694 C61.5483613,39.7816493 61.5648331,39.4780781 61.5958098,39.1845769 C55.4442202,39.1973485 50.0510693,39.3103281 45.1432209,39.5284277 L44.9281046,39.5380064 L44.9686694,40.478684 L45.1673139,40.4700877 C50.0309099,40.2524793 55.4009511,40.1397453 61.5483613,40.1267281 L61.5483613,40.0908694" id="Fill-75" fill="#FFFFFF"></path>
                        <g id="Group-108" transform="translate(130.200038, 7.392241)">
                            <g id="Clip-110-+-Clip-143-Mask"></g>
                        </g>
                        <g id="Group-141" transform="translate(147.087958, 154.236807)"></g>
                        <g id="Group-174" transform="translate(130.370346, 7.870083)"></g>
                        <g id="Clip-110-+-Clip-143-Mask" transform="translate(130.000000, 7.000000)"></g>
                        <path d="M119.07219,15.7111055 C119.372124,13.4220417 116.369591,12.5255735 115.587305,13.9196429 C115.83807,11.7334887 114.424202,8.86650987 111.999411,8.61991973 C107.421489,8.08523174 108.748327,12.3330171 106.547994,12.3939278 C104.537947,12.3462799 106.036386,8.71889963 101.464857,10.5363967 C100.370099,10.9426318 99.8157133,12.4703118 99.0420321,14.357807 C97.4757393,12.2060379 96.5157058,13.6072299 96.2278187,15.7111055 C103.804093,17.0580182 111.49567,17.0580182 119.07219,15.7111055 Z" id="Mask" fill="#E8EAEC"></path>
                        <path d="M169.969944,161.54732 C170.269878,159.257765 167.266608,158.361788 166.484814,159.755858 C166.735578,157.569458 165.321956,154.702479 162.896919,154.455643 C158.319243,153.921201 159.645589,158.168986 157.445748,158.229897 C155.435455,158.182249 156.933894,154.554623 152.362365,156.372366 C151.267853,156.778601 150.713221,158.306281 149.93954,160.193776 C148.373247,158.042007 147.412968,159.443199 147.125081,161.54732 C154.701601,162.893987 162.393178,162.893987 169.969944,161.54732 Z" id="Clip-110" fill="#E8EAEC"></path>
                        <path d="M130.613735,21.6189572 C130.186944,17.2203688 134.45731,15.4979219 135.569277,18.1760284 C135.213045,13.9749085 137.224567,8.46666438 140.673066,7.99190468 C147.184084,6.96403642 145.296961,15.1268086 148.426105,15.2447003 C151.285062,15.1538255 149.154058,8.18274187 155.656226,11.6752835 C157.212931,12.4553336 158.001855,15.3915738 159.102021,19.0196908 C161.329643,14.883657 165.016614,21.4696277 162.531344,22.5770729 C151.75586,25.1650413 129.831203,24.7912264 130.613735,21.6189572 Z" id="Clip-143" fill="#E8EAEC"></path>
                        <path d="M118.37005,46.8138892 C111.98171,42.5729809 100.91293,37.8366818 95.1173268,32.7955836 C86.8344874,41.7104066 102.608538,57.4125987 109.266819,62.443627 L118.37005,46.8138892" id="Fill-206" fill="#E3BFB5"></path>
                        <path d="M104.671934,46.8372219 C102.282545,43.8083877 100.278152,42.9612867 98.9515603,42.4010555 C98.3172744,42.1328519 97.8164836,41.9213836 97.4789353,41.5652525 L97.6756131,41.379573 C97.9738258,41.6944421 98.4519987,41.8963317 99.0570288,42.1520093 C100.408943,42.7230472 102.452179,43.5863583 104.884838,46.6697175 L104.671934,46.8372219" id="Fill-207" fill="#B99765"></path>
                        <path d="M108.48527,43.3296982 C110.502939,44.6051391 106.528326,57.6159619 103.43901,57.2416557 C102.567236,57.5265607 102.731216,48.3216749 100.279135,42.5464553 C97.1086894,35.0785072 91.7543824,39.6942129 94.2804627,44.0458903 C94.0188813,45.9427187 94.4857452,59.5729641 95.7629216,63.1161009 C97.5539187,67.0971563 108.811756,81.4836279 109.743271,85.9713719 L121.973679,78.7568911 C121.71554,69.160261 120.311752,70.4801569 121.260722,54.5014105 C121.768151,45.9498413 121.234171,41.60062 117.699871,39.6423897 C107.232925,33.8431005 89.3357372,27.7186266 89.4043286,27.6906273 C87.0422283,29.9249207 94.4582103,34.465716 108.48527,43.3296982" id="Fill-208" fill="#F7D0C2"></path>
                        <path d="M206.541196,134.381388 C209.100466,142.602615 195.471924,136.859816 201.194018,144.578284 C182.252718,147.890304 159.265018,140.032822 138.578202,123.553036 C116.893246,107.899965 105.861589,84.2005404 104.506233,76.0652762 C110.805085,75.6998119 116.973392,74.9047798 122.972065,73.7096526 C130.201203,88.1243691 144.321193,100.448718 159.092433,107.003497 C173.872523,113.865285 189.303371,114.957503 199.375978,113.990791 C199.27936,114.601617 203.981926,126.454154 206.541196,134.381388" id="Fill-209" fill="#2879FF"></path>
                        <path d="M126.708943,80.0976636 C125.320398,78.0244889 124.066331,75.8913859 122.972065,73.7096526 C116.973392,74.9047798 110.805085,75.6998119 104.506233,76.0652762 C104.809117,77.8844925 105.597795,80.4832677 106.879642,83.5948717 C113.498341,82.4832512 120.10819,81.3129305 126.708943,80.0976636" id="Fill-210" fill="#78C2D0"></path>
                        <path d="M105.214765,77.5568518 L105.171741,77.2901218 C107.794931,76.8664485 110.058939,76.6242793 112.056447,76.410355 C115.351046,76.057908 118.195745,75.7533544 121.50239,74.790081 L121.578357,75.0496883 C118.248356,76.0198388 115.392349,76.3253748 112.085212,76.6792955 C110.09139,76.892483 107.831071,77.1346522 105.214765,77.5568518" id="Fill-211" fill="#FFFFFE"></path>
                        <path d="M122.774895,79.3925238 C122.185599,79.6550785 121.494769,79.3903134 121.232204,78.8018373 C120.969639,78.2126244 121.234171,77.5229579 121.823466,77.2604033 C122.412762,76.9978487 123.103839,77.2626138 123.366158,77.8515811 C123.628723,78.4400571 123.363945,79.1299692 122.774895,79.3925238" id="Fill-212" fill="#FFFFFE"></path>
                        <path d="M132.471356,31.8463098 C133.80729,34.2424586 134.343975,38.677397 132.755064,40.8097631 C132.225509,41.5207975 126.572498,41.7104066 126.572498,41.7104066 L127.069109,30.9987176 C127.069109,30.9987176 130.957183,29.130871 132.471356,31.8463098" id="Fill-213" fill="#FFFFFF"></path>
                        <polyline id="Fill-214" fill="#4F4E4F" points="126.835308 30.4276797 86.0492513 34.9218095 87.3011055 46.2652016 128.087654 41.7708261 126.835308 30.4276797"></polyline>
                        <polyline id="Fill-215" fill="#F7D0C2" points="86.1001417 34.8071107 73.3642713 42.060152 87.3763347 46.3654095 86.1001417 34.8071107"></polyline>
                        <path d="M78.6915352,43.6976186 L73.3642713,42.060152 L78.6915352,43.6968818 L78.6915352,43.6976186 M73.3642713,42.060152 L78.2064786,39.3024686 L73.3642713,42.060152" id="Fill-216" fill="#19301F"></path>
                        <polyline id="Fill-217" fill="#FFFFFF" points="78.6915352 43.6968818 73.3642713 42.060152 78.2064786 39.3024686 78.6915352 43.6968818"></polyline>
                        <polyline id="Fill-218" fill="#FFFFFE" points="86.5355372 38.0845 86.5057897 37.8155596 127.156385 33.3364118 127.186132 33.6051066 86.5355372 38.0845"></polyline>
                        <polyline id="Fill-219" fill="#FFFFFE" points="87.1157367 43.3412418 87.086235 43.072547 127.736584 38.5931536 127.766824 38.862094 87.1157367 43.3412418"></polyline>
                        <polyline id="Fill-220" fill="#FFB839" points="128.613767 29.6938038 130.188173 42.4410896 127.881388 42.7982032 126.366723 30.0091641 128.613767 29.6938038"></polyline>
                        <path d="M102.014079,59.71075 C100.68085,56.6571094 101.345375,49.4563826 100.370591,44.1586243 C98.9031284,36.1810403 94.2064627,35.702842 93.6112666,40.7198707 C93.4003296,42.2509892 97.9561248,58.5298682 99.2903378,62.1496346 C101.315627,58.9442084 100.058365,62.9188779 102.014079,59.71075" id="Fill-221" fill="#F7D0C2"></path>
                        <path d="M94.5152469,43.2304727 C94.5956389,43.2557703 94.6910276,43.283524 94.7846954,43.3090672 C95.0037453,43.3687499 95.2168949,43.4149241 95.4197189,43.4586423 C95.6075461,43.4996588 95.7872605,43.5384648 95.9546824,43.5841478 L96.0259781,43.6040421 C96.0783436,43.5895512 96.2111011,43.3603992 96.2194599,42.5489113 C96.2344566,41.124141 95.8787157,39.4188867 95.5396923,39.2904339 C95.5138783,39.2825744 95.4799514,39.2729957 95.4470079,39.2639082 C94.824031,39.0944389 94.4041239,39.1764719 94.1627019,39.5146737 C93.5102233,40.4302992 94.3493,42.912902 94.5152469,43.2304727 Z M94.7133997,43.5701482 C94.6054728,43.5406753 94.4960708,43.508255 94.3854395,43.4709227 C94.1661438,43.3579431 93.3211668,40.835552 93.7904892,39.6426353 C93.975858,39.1705773 94.4508349,38.6727305 95.6272139,39.0347562 C96.3809816,39.3201524 96.6536261,42.6795746 96.3755729,43.533307 C96.2597789,43.8899294 96.0640845,43.894596 95.9576326,43.8656143 L95.8836326,43.8449832 C95.7206359,43.8005282 95.5455926,43.762459 95.3624364,43.7229162 C95.1551872,43.6782156 94.9376124,43.6308133 94.7133997,43.5701482 Z" id="Fill-222" fill="#B99765"></path>
                        <path d="M124.665461,172.841345 C124.757162,172.712401 124.849108,172.584439 124.940564,172.454759 C132.488074,161.784577 137.17048,149.769694 138.704321,137.131458 C138.723252,136.979427 138.741936,136.825676 138.759145,136.673891 C138.814953,136.183412 138.868056,135.692933 138.913783,135.20049 C139.225272,131.97124 136.377623,128.94437 132.845536,128.490242 C131.441502,128.298668 130.036977,128.107339 128.633927,127.916011 C128.552797,132.153481 128.096996,136.335443 127.277588,140.430706 C128.667608,140.751961 130.05812,141.072234 131.447403,141.394225 C131.635476,141.437943 131.82232,141.469627 132.008918,141.498854 C130.348711,149.815131 127.239973,157.791733 122.776616,165.190911 C122.611653,165.105439 122.445706,165.022424 122.269679,164.946777 C120.971606,164.388756 119.674516,163.830981 118.376442,163.273697 C116.179797,166.918024 113.641916,170.419162 110.775092,173.745918 C111.994248,174.412252 113.212913,175.078095 114.432069,175.745165 C117.480575,177.442069 121.776018,176.751911 123.767381,174.071349 C124.071002,173.663394 124.369706,173.252738 124.665461,172.841345 Z" id="Fill-223" fill="#78C2D0"></path>
                        <path d="M128.633927,127.916011 C128.552797,132.153481 128.096996,136.335443 127.277588,140.430706 C128.07905,140.615894 128.878791,140.799855 129.679023,140.985534 C130.444592,136.801852 130.900147,132.546699 131.03905,128.244143 C130.23808,128.134602 129.43588,128.025798 128.633927,127.916011" id="Fill-224" fill="#2879FF"></path>
                        <path d="M118.376442,163.273697 C116.179797,166.918024 113.641916,170.419162 110.775092,173.745918 C111.509683,174.146996 112.243537,174.548319 112.977145,174.949396 C115.829957,171.526853 118.399798,167.958173 120.683965,164.264478 C119.9152,163.934627 119.145207,163.602811 118.376442,163.273697" id="Fill-225" fill="#2879FF"></path>
                        <path d="M113.083105,175.033394 L112.870693,174.865398 C115.706295,171.295736 118.097897,168.0601 120.625453,164.374019 L120.848928,164.526787 C118.317439,168.218517 115.922641,171.458819 113.083105,175.033394" id="Fill-227" fill="#DADADA"></path>
                        <path d="M109.110066,122.032807 C108.96875,122.035283 109.110066,122.3969 109.110066,122.3969 C102.744472,119.808339 58.8613163,118.094925 57.4644005,127.782351 C55.2102175,143.41444 52.9331703,154.308357 64.8081943,158.998919 C72.4406822,162.014045 89.216619,161.215956 100.016478,160.210639 L108.675923,166.641311 L108.469871,159.239447 C108.930735,159.171196 109.296561,159.111477 109.5387,159.065243 C121.343203,156.819586 128.031375,121.754301 109.110066,122.032807" id="Fill-228" fill="#FC5D16"></path>
                        <path d="M79.7208421,135.640502 C79.7158836,135.531246 79.6960497,135.412083 79.6602384,135.275857 C79.6384761,135.196874 79.6244271,135.141283 79.6222233,135.111561 C79.6222233,135.057346 79.6012875,134.886445 79.5536309,134.596656 L79.422231,133.828289 C79.422231,133.692889 79.398816,133.476029 79.3470273,133.147161 C79.2993708,132.84141 79.2462048,132.519698 79.1891822,132.180097 L79.0324389,131.253213 C78.9891899,131.003328 78.9657748,130.845087 78.9657748,130.777111 C78.9657748,130.601257 78.9420843,130.432007 78.8944277,130.272389 C78.7341033,129.73244 78.4255753,129.806745 78.2228283,129.852979 C78.1151189,129.876096 78.0258662,129.936641 77.9660889,130.019752 C77.9068625,130.062409 77.8473607,130.125981 77.795572,130.219275 C77.7206438,130.34862 77.6848325,130.465857 77.6848325,130.577589 L77.6848325,131.309905 L77.8517682,131.309905 C77.8738059,131.388888 77.8848248,131.471724 77.8848248,131.561165 L78.0148473,132.152026 C78.0751756,132.415121 78.1371567,132.701057 78.1980358,133.012311 C78.259466,133.323841 78.316764,133.621061 78.3682772,133.906446 C78.4357677,134.269439 78.4412772,134.38585 78.4412772,134.41282 C78.4412772,134.628029 78.4613866,134.876813 78.5013299,135.153942 C78.5418242,135.426669 78.5864506,135.667196 78.6442996,135.905247 C78.6817637,136.015879 78.7049033,136.169717 78.7123411,136.359607 C78.7217071,136.577018 78.7263901,136.783971 78.7263901,136.978814 C78.7263901,137.217691 78.7101373,137.528946 78.6776317,137.913404 C78.6437487,138.32043 78.6266694,138.730207 78.6266694,139.131178 C78.6266694,139.405281 78.6200581,139.738001 78.6062846,140.129065 L77.2052367,140.067144 C76.9964293,140.067144 76.7182031,140.083932 76.3713846,140.118607 C76.0518377,140.150256 75.7730605,140.166493 75.4876721,140.169795 C75.193744,140.211351 74.9551857,140.222909 74.7876991,140.193462 C74.5940427,140.160988 74.3761447,140.120258 74.175877,140.084482 C74.0282243,140.035496 73.8588093,139.984308 73.6673566,139.930919 C73.4885757,139.87918 73.3290777,139.83157 73.2018099,139.789464 L72.9293686,139.688465 L72.9293686,139.046416 C72.9293686,138.817997 72.9613233,138.506192 73.0293647,138.063115 C73.0296402,138.010276 73.046444,137.801672 73.0783986,137.435101 C73.1120062,137.033305 73.1288099,136.581421 73.1288099,136.094862 C73.1288099,135.569774 73.1453382,135.084316 73.1772929,134.653348 C73.2073193,134.269439 73.2235721,134.0135 73.2277042,133.88443 C73.2759117,133.720684 73.3045607,133.526116 73.3147532,133.293844 C73.3243947,133.065426 73.3290777,132.849116 73.3290777,132.64464 C73.3290777,132.437412 73.3125494,132.154503 73.2775645,131.798941 C73.2453344,131.468147 73.2290815,131.16102 73.2290815,130.87701 C73.2290815,130.575938 73.2241231,130.316972 73.214757,130.099011 C73.2067683,129.919578 73.185557,129.445954 72.7814404,129.445954 L72.7087159,129.453659 C72.5555538,129.486409 72.4293879,129.551907 72.3332483,129.649879 L72.2701654,129.737669 C72.205705,129.867015 72.1569466,130.045897 72.1159013,130.303762 C72.0924863,130.458977 72.0682448,130.791422 72.1335315,131.860311 C72.1335315,132.446494 72.1288485,132.952592 72.119207,133.377781 C72.1084636,133.87755 72.0721014,134.126059 72.0431769,134.246598 L72.0338108,134.327232 C72.0338108,134.465384 72.0194863,134.736184 71.9916637,135.138256 C71.9621883,135.558491 71.9478637,135.972397 71.9478637,136.379972 C71.9478637,136.774063 71.9316109,137.241358 71.8991053,137.783784 C71.8646714,138.343547 71.8481431,138.825978 71.8508978,139.189797 C71.8024148,139.591043 71.757513,140.004123 71.7142639,140.430137 C71.669913,140.872939 71.6484263,141.189698 71.6484263,141.398302 C71.6484263,141.571955 71.6294187,141.757717 71.5914037,141.948983 C71.5423697,142.191162 71.5038037,142.28996 71.4853472,142.326287 C71.4181321,142.461687 71.3773623,142.614975 71.3641397,142.782298 C71.3533963,142.920175 71.3487133,143.013469 71.3487133,143.065483 C71.3487133,143.166482 71.3657925,143.383342 71.4005019,143.716338 C71.4324566,144.013007 71.448434,144.359488 71.448434,144.748625 C71.448434,145.161154 71.4663396,145.56763 71.5002226,145.954015 C71.5316264,146.326089 71.5487056,146.608723 71.5487056,146.801365 C71.5487056,147.029509 71.5327282,147.274164 71.5016,147.527351 C71.4655132,147.812737 71.448434,148.031523 71.448434,148.184261 C71.448434,148.302323 71.429151,148.462491 71.3914114,148.657886 C71.3556001,148.83952 71.3189624,148.992808 71.2792945,149.118025 C71.1773701,149.279845 71.0994116,149.460653 71.0470721,149.654947 C70.9903249,149.861899 70.9633287,150.02482 70.9633287,150.151688 L70.9809589,150.26177 C71.0068532,150.339377 71.0302683,150.405151 71.0490004,150.458265 L71.0490004,150.852631 L71.2465134,150.778326 C71.3250228,150.838045 71.4363132,150.884554 71.5963622,150.884554 C71.6883696,150.884554 71.8263808,150.859511 71.9654939,150.737871 C72.0552976,150.656136 72.113973,150.555411 72.1357353,150.446156 L72.6792405,150.24168 L72.2315994,150.130498 C72.2404144,150.042158 72.2445465,149.949689 72.2445465,149.852267 C72.2445465,149.798603 72.2536371,149.746589 72.2715427,149.695952 C72.297988,149.626326 72.317271,149.563029 72.3291163,149.506337 C72.3784257,149.430656 72.413686,149.343142 72.4362747,149.243518 L72.4442633,149.17224 C72.4459162,149.127933 72.4618935,149.042345 72.4869614,148.916852 C72.5249765,148.73109 72.543984,148.551933 72.543984,148.384059 C72.543984,148.25664 72.5599613,148.099499 72.5902632,147.910434 C72.6189122,147.724947 72.635716,147.579365 72.6420518,147.474237 C72.6921877,147.332783 72.718082,147.139865 72.722214,146.880349 C72.7277235,146.620832 72.7296518,146.366544 72.7296518,146.11721 C72.7296518,145.912459 72.7153273,145.595975 72.6861273,145.166659 C72.6583047,144.757431 72.6439801,144.384531 72.6439801,144.049884 L72.6439801,142.479575 C72.6957688,142.372521 72.7335084,142.223361 72.7682178,142.009253 C72.8089876,141.754415 72.8296479,141.515814 72.8296479,141.298678 L72.8296479,140.907339 C72.8921799,140.919999 72.9381837,140.932933 72.9709648,140.943941 C73.1252288,140.995955 73.3199871,141.044115 73.5566171,141.090625 C73.7637717,141.131905 73.939247,141.153921 74.0891035,141.159701 C74.2122392,141.207586 74.3623712,141.238134 74.5439068,141.252995 C74.6912841,141.264553 74.8243368,141.290147 74.9403103,141.3284 L75.0499479,141.346839 C75.1507705,141.346839 75.353242,141.332253 75.6559852,141.302256 C75.9289774,141.275561 76.1837885,141.261526 76.4531996,141.259049 C76.6022296,141.245839 76.7573201,141.238959 76.9176445,141.238959 L77.0405047,141.240335 C77.2531687,141.244188 77.4572931,141.25327 77.6515005,141.26703 C77.8465343,141.281065 78.0115417,141.295651 78.1467982,141.309136 C78.2175943,141.316566 78.2754433,141.32152 78.3208961,141.325648 C78.3936206,141.365828 78.4704771,141.393348 78.5572506,141.407108 C78.5465073,141.785513 78.5409978,142.143827 78.5409978,142.481777 C78.5409978,142.949347 78.524745,143.44086 78.4919639,143.940353 C78.45753,144.456634 78.4412772,144.787704 78.4412772,144.934112 C78.4412772,145.067585 78.4247489,145.275914 78.3930696,145.559649 C78.3589112,145.873931 78.341281,146.162344 78.341281,146.416356 C78.341281,146.643949 78.3255791,146.878147 78.2950018,147.111244 C78.2578132,147.384246 78.2415603,147.546891 78.2415603,147.60028 C78.2415603,147.678438 78.2264094,147.786042 78.1980358,147.92502 C78.1591944,148.119864 78.1415642,148.272877 78.1415642,148.384059 C78.1415642,148.530742 78.1462472,148.715954 78.1556132,148.941345 C78.1658057,149.166461 78.1944547,149.386073 78.2418358,149.594402 C78.244866,149.748516 78.2635981,149.91639 78.2977565,150.088392 C78.3236508,150.225443 78.3390772,150.314609 78.341281,150.355889 L78.3434848,150.497068 L78.4432055,150.596417 C78.5622091,150.71613 78.6880996,150.741174 78.7732203,150.741174 L78.9412579,150.719983 L79.031888,150.657787 C79.0941445,150.61403 79.1572275,150.559815 79.2205859,150.497068 C79.3321519,150.386161 79.3911028,150.226819 79.4073556,149.99785 C79.4169971,149.853368 79.422231,149.676688 79.422231,149.467258 C79.422231,149.31397 79.4054273,149.098761 79.3693405,148.824659 C79.3387632,148.584131 79.3225104,148.371124 79.3225104,148.184261 C79.3225104,148.009232 79.3539141,147.768429 79.422231,147.401308 C79.4233329,147.352322 79.4401367,147.205639 79.4698876,146.964561 C79.504597,146.677524 79.5225027,146.324989 79.5225027,145.916862 C79.5214008,145.536532 79.5376536,145.196931 79.5698837,144.908243 C79.6051441,144.587081 79.6222233,144.400493 79.6222233,144.350681 C79.6227743,144.296191 79.6393026,144.03007 79.6718082,143.552592 C79.7043138,143.050897 79.7216685,142.494436 79.7222195,141.897245 C79.7222195,141.584614 79.7241478,141.242262 79.7296572,140.867435 C79.7335138,140.495635 79.7431553,140.125212 79.7583062,139.757541 L79.7993515,138.712869 C79.8147779,138.378773 79.8219401,138.094488 79.8219401,137.862217 C79.8219401,137.317314 79.8172571,136.853872 79.8078911,136.470789 C79.7982496,136.087156 79.7701515,135.820484 79.7208421,135.640502" id="Fill-229" fill="#FFFFFE"></path>
                        <path d="M90.6011386,149.74769 L90.5220783,149.704483 L90.4317237,149.704483 C90.3275954,149.704483 90.235588,149.710263 90.1545994,149.722096 C90.0444108,149.737783 89.9303656,149.778788 89.8077808,149.847039 C89.8050261,149.848139 89.7400148,149.878136 89.5177093,149.88254 C89.304219,149.888044 88.9918343,149.889695 88.5764233,149.889695 C88.1802954,149.889695 87.8808579,149.872908 87.6877524,149.838232 C87.4938205,149.803281 87.3323942,149.765578 87.1808849,149.716042 C86.9924624,149.66678 86.7905418,149.621372 86.5773269,149.582018 C86.1811989,149.507713 85.6511918,149.522299 85.0861999,149.511841 C84.8242265,149.506612 84.6798794,149.476065 84.6055022,149.451572 L84.4953136,149.433683 C84.3809929,149.433683 84.2608873,149.417722 84.1363742,149.386899 C84.0454687,149.364332 84.0071781,149.344793 84.0019442,149.351122 C83.9760499,149.316447 83.9074575,149.208292 83.8115934,148.929786 C83.7870764,148.856307 83.7567746,148.706321 83.7504387,148.414606 C83.7463066,148.145733 83.7438274,147.896949 83.7438274,147.671282 C83.7438274,147.535607 83.7600802,147.320398 83.7917594,147.022904 C83.8270198,146.685505 83.8443745,146.384708 83.8443745,146.1029 C83.8443745,145.789443 83.8570462,145.468832 83.8851443,145.141065 C83.9151707,144.791281 83.9300461,144.522133 83.9300461,144.334995 C83.9300461,144.178679 83.9440952,144.028694 83.9710914,143.893569 C84.0223291,143.650014 84.0292158,143.560023 84.0292158,143.50856 C84.0292158,143.43508 84.0432649,143.322797 84.0675064,143.172261 C84.0991856,142.980995 84.114612,142.782298 84.114612,142.581951 L84.114612,141.469029 L84.0983592,141.359773 L84.2212195,141.317117 C84.2231478,141.316566 84.2721817,141.289597 84.42314,141.289597 C84.5468267,141.289597 84.6630757,141.30776 84.7696831,141.342986 L84.8867585,141.360874 C84.9539736,141.360874 85.0919848,141.365828 85.2996902,141.374634 C85.5266787,141.383716 85.7646861,141.392247 86.0145387,141.396651 C86.2646668,141.401604 86.4908289,141.403806 86.6930249,141.403806 L87.040119,141.403806 C87.1569189,141.403806 87.3059489,141.390871 87.4120055,141.302256 C87.4720582,141.254646 87.5238469,141.189147 87.5918883,141.071085 C87.6726015,140.970636 87.7241146,140.831383 87.7508354,140.649749 L87.8012466,140.252631 L87.3998847,140.252631 C87.3621451,140.252631 87.2406622,140.250154 87.0337831,140.244375 L86.2619121,140.231165 C85.9745953,140.226212 85.6845239,140.219056 85.3916977,140.209149 C84.6085323,140.18383 84.2438081,140.194838 84.0405102,140.187408 C84.047397,140.099618 84.0581403,139.981281 84.071363,139.831845 C84.100563,139.500501 84.114612,139.127601 84.114612,138.689752 C84.114612,138.289607 84.1476686,137.774427 84.220944,137.120269 C84.2738345,137.01404 84.3008307,136.889098 84.3008307,136.750671 C84.3008307,136.669486 84.317359,136.446021 84.3482118,136.083028 C84.3823703,135.69967 84.399725,135.266776 84.399725,134.797004 C84.399725,134.289804 84.4148759,133.756736 84.4432495,133.196973 C84.472174,132.624825 84.4856721,132.173492 84.4856721,131.846551 C84.4856721,131.481081 84.4911815,131.177807 84.5005475,130.932601 L84.5013739,130.916915 C84.6044003,130.929574 84.6964077,130.945536 84.7702341,130.9648 C84.9222943,131.015437 85.1217357,131.06635 85.3663543,131.116987 C85.5784674,131.16102 85.7498106,131.205052 85.8558671,131.239728 C85.9473237,131.278807 86.0880896,131.315409 86.310946,131.360267 C86.5046024,131.399071 86.7172664,131.437324 86.9497643,131.476403 C87.1792321,131.514931 87.4007111,131.550432 87.6169562,131.584282 C87.8285183,131.617031 87.990771,131.64235 88.0728615,131.655285 C88.3486084,131.727938 88.5328988,131.780502 88.6546572,131.842423 L88.6612686,131.869668 C88.7138836,132.068915 88.8802684,132.158356 89.0218607,132.158356 L89.0918305,132.152026 C89.2133134,132.128909 89.2967812,132.059008 89.5212905,131.835818 C89.7400148,131.617031 89.8058525,131.524838 89.8378072,131.468147 L89.9245807,131.274679 L89.8865656,131.133224 C89.8623241,131.042958 89.8105355,130.963699 89.733128,130.899577 C89.607513,130.736657 89.3590378,130.688221 89.2336983,130.664003 C89.0292984,130.624649 88.806442,130.603458 88.5706384,130.601257 C88.3574235,130.556399 88.1544011,130.511816 87.962122,130.467233 C87.7921561,130.427053 87.7384391,130.401734 87.7461523,130.412192 L87.6434015,130.316146 L87.4993299,130.315045 C87.4709563,130.315045 87.406496,130.310642 87.3018169,130.302661 C87.1814358,130.292754 87.0464548,130.282021 86.8968738,130.26716 L86.4475798,130.224779 C86.2847762,130.208542 86.1674254,130.201937 86.0867122,130.201937 L86.0861613,130.201937 C85.9806557,130.201937 85.8704671,130.187351 85.7591767,130.15928 L85.7382408,129.995259 L85.3900449,129.995259 C85.2853657,129.949576 85.1952866,129.924532 85.108513,129.918753 C85.1165017,129.917102 85.1101659,129.910222 85.0795885,129.890132 C84.9790415,129.811424 84.8782189,129.744274 84.7784982,129.688958 C84.6751964,129.632266 84.5509588,129.579152 84.4060608,129.532918 C84.2462874,129.483106 84.1418837,129.46164 84.0363781,129.46054 C83.9774272,129.46054 83.9237103,129.463567 83.8870726,129.468796 C83.7223406,129.486409 83.5953483,129.591536 83.5446615,129.740146 C83.4868125,129.826009 83.4498994,129.926459 83.4364012,130.035439 C83.4251069,130.129008 83.4187711,130.204964 83.4187711,130.263582 C83.4187711,130.315045 83.4044466,130.593826 83.3774504,131.100475 C83.3482504,131.63547 83.3333749,132.255503 83.3333749,132.944061 C83.3333749,133.683532 83.3162957,134.347872 83.2835146,134.92057 C83.2501825,135.519963 83.2339297,135.911577 83.2339297,136.094862 C83.2339297,136.223657 83.2154731,136.398686 83.1810392,136.618023 C83.1449524,136.846992 83.1041827,137.047615 83.0592808,137.217691 L83.047711,137.306031 C83.047711,137.482436 83.0339374,137.760942 83.0063903,138.143199 C82.9771903,138.547197 82.9623149,138.914869 82.9623149,139.245388 L82.9623149,142.495537 C82.9623149,142.711846 82.9463375,142.955126 82.9138319,143.226476 C82.8821527,143.504432 82.8656244,143.735877 82.8628697,143.920814 C82.8149376,144.124189 82.7722395,144.419757 82.7350509,144.823205 C82.6962094,145.245917 82.6769264,145.676335 82.6769264,146.1029 C82.6769264,146.463966 82.6637038,146.818153 82.6358812,147.165184 C82.6061302,147.538084 82.5909793,147.766778 82.5909793,147.856219 C82.5909793,148.00648 82.6075076,148.251411 82.6433189,148.58936 C82.6747226,148.902541 82.714666,149.159581 82.762598,149.354425 C82.7642509,149.578715 82.7799527,149.80218 82.8086018,150.019591 C82.8344961,150.211958 82.8479942,150.346257 82.8479942,150.423039 C82.8479942,150.521837 82.85433,150.619259 82.8656244,150.713103 C82.8901413,150.925009 83.0036356,151.053254 83.1361374,151.108295 C83.251009,151.187278 83.3598202,151.204891 83.4350239,151.204891 C83.5317144,151.204891 83.675786,151.17627 83.8339066,151.016102 C83.9011216,150.934917 83.9614499,150.840522 84.0107593,150.734844 C84.0336234,150.686133 84.0529064,150.635496 84.0669554,150.584858 L84.1242535,150.584858 C84.1994572,150.584858 84.3308571,150.60137 84.5195551,150.630267 C84.998049,150.704296 85.5206184,150.672648 86.0126104,150.725487 C86.2938668,150.755759 86.5302213,150.770345 86.721123,150.770345 C86.8511455,150.770345 87.0279982,150.788784 87.2527829,150.822909 C87.4938205,150.859511 87.7257675,150.902167 87.962122,150.950603 C88.1866312,150.988031 88.3794612,151.022982 88.5430913,151.05463 C88.7976269,151.106093 88.8959702,151.089581 88.994589,151.043071 C89.0615286,151.034265 89.1485776,151.019954 89.255736,150.999314 C89.4042151,150.969867 89.583547,150.955282 89.7818865,150.955282 L89.9592901,150.957483 C90.302803,150.957483 90.7198668,150.957483 90.8441044,150.682005 C90.9250931,150.561191 90.9644855,150.448082 90.9644855,150.3369 C90.9644855,150.245257 90.9468553,150.15334 90.9107685,150.065275 C90.8606327,149.939507 90.7589838,149.835755 90.6011386,149.74769" id="Fill-230" fill="#FFFFFE"></path>
                        <path d="M97.9143551,149.347545 C97.8162873,149.347545 97.6377818,149.334335 97.379665,149.306264 C97.0827067,149.277368 96.7843711,149.289477 96.4940242,149.347545 C96.1370132,149.347545 95.8604398,149.350572 95.665957,149.355526 C95.3257497,149.363507 95.158814,149.46258 95.0819575,149.58422 C95.0626745,149.596328 95.0373311,149.610639 95.0026217,149.625775 L94.9376104,149.647516 C95.0227311,149.491476 95.0665311,149.299384 95.072316,149.065186 C95.0778254,148.879424 95.0797537,148.733842 95.0797537,148.625687 C95.0797537,148.523036 95.0819575,148.360391 95.0866405,148.133073 C95.0904971,147.936303 95.1177688,147.744762 95.1673536,147.563128 L95.1800253,147.471485 C95.1800253,147.278017 95.1982064,147.039141 95.2342932,146.76091 C95.2734102,146.452683 95.294346,146.154638 95.294346,145.874206 C95.294346,145.66918 95.3100479,145.276465 95.3439309,144.696887 C95.376712,144.095293 95.3935157,143.499203 95.3935157,142.924028 C95.3935157,142.298216 95.4130742,141.708456 95.4499874,141.17291 C95.4833194,140.692131 95.5015005,140.378674 95.5061835,140.231165 C95.564859,140.045403 95.5979155,139.817535 95.6078325,139.532149 C95.6092099,139.47931 95.627391,139.360698 95.6596212,139.176312 C95.7006664,138.939362 95.7224286,138.704063 95.7224286,138.475369 C95.7224286,138.281626 95.7403343,138.034219 95.7766965,137.741127 C95.8199455,137.389142 95.8689795,137.202555 95.902587,137.109811 L95.92187,135.937996 C95.92187,135.885432 95.9295832,135.792138 95.9687001,135.637474 C96.0133265,135.458042 96.0356397,135.272004 96.0356397,135.082665 C96.0356397,134.951943 96.0656661,134.770034 96.1248925,134.542991 L96.1353604,134.456578 C96.1370132,134.397959 96.1557453,134.22348 96.1899037,133.933692 C96.230398,133.603448 96.2499565,133.241005 96.2499565,132.859023 L96.2499565,131.492089 C96.3022961,131.4054 96.3359036,131.3033 96.3496772,131.177807 C96.35133,131.128821 96.3695111,131.036903 96.3989866,130.899852 C96.4400318,130.714916 96.4606922,130.533557 96.4642733,130.358803 C96.5466393,129.963061 96.5444355,129.84775 96.5116544,129.752805 C96.4747412,129.63777 96.360696,129.445954 96.0023077,129.445954 L95.554942,129.437423 L95.554942,129.784178 C95.554942,129.785279 95.5510854,129.8128 95.5196816,129.880224 C95.4808402,129.966913 95.4348364,130.058831 95.3596327,130.204964 C95.294346,130.389625 95.2387008,130.648867 95.1858102,130.9981 C95.1373273,131.331646 95.0849877,131.861412 95.0263122,132.64464 C95.0263122,133.164499 95.0073047,133.636197 94.970667,134.04625 C94.9309991,134.485749 94.9119916,134.759851 94.9119916,134.868832 C94.9119916,134.970382 94.9097878,135.095599 94.9056557,135.240907 C94.9015237,135.359244 94.8767312,135.482535 94.8315539,135.608578 L94.8095162,135.672975 L94.8122709,135.738749 C94.8332068,136.20054 94.7781125,136.427307 94.7290785,136.535462 L94.6979503,136.678293 C94.6971238,136.730856 94.6800446,136.842589 94.6530484,137.01404 C94.6164107,137.234203 94.5979541,137.437303 94.5979541,137.619763 C94.5979541,137.812405 94.5794975,138.041099 94.5445127,138.299514 C94.5031919,138.593707 94.4836335,138.823776 94.4836335,139.003484 C94.4836335,139.143562 94.4662788,139.316115 94.4321203,139.514811 C94.3907996,139.749835 94.3481015,139.852486 94.3266147,139.89184 L94.2839166,139.969172 L94.2839166,140.058338 C94.2839166,140.161539 94.2792336,140.395462 94.2695921,140.762307 C94.2610525,141.118695 94.2285469,141.508383 94.1698715,141.968248 L94.1698715,144.192164 C94.1698715,144.449754 94.1533432,144.763211 94.1208375,145.132809 C94.087781,145.523597 94.0698753,145.879985 94.0698753,146.203349 C94.0698753,146.464792 94.0651923,146.718804 94.0558263,146.966212 L94.0536225,147.009694 L93.9555547,147.009694 L93.9555547,147.357826 C93.9555547,147.411766 93.9539018,147.504785 93.9486679,147.639359 C93.9456377,147.739808 93.9211207,147.855118 93.8756679,147.982262 L93.855834,148.098948 C93.855834,148.25664 93.8514264,148.465244 93.8415095,148.720357 C93.8335208,148.945198 93.8070755,149.12463 93.7616227,149.252325 L93.7415133,149.367359 C93.7415133,149.50386 93.7252605,149.649443 93.6927549,149.800804 C93.6657587,149.925196 93.6395889,149.973357 93.6561172,149.965101 C93.4869777,150.112885 93.4704494,150.279933 93.4765098,150.367723 C93.4880796,150.545229 93.5985436,150.700994 93.8043208,150.830339 L93.889166,150.884554 L94.5180674,150.884554 C94.6505692,150.884554 94.8188822,150.859786 95.0309953,150.811075 C95.2307121,150.765942 95.4166553,150.711727 95.5896514,150.650907 C95.7397833,150.597793 95.902587,150.551559 96.0783378,150.512755 C96.2130433,150.483033 96.3383828,150.464044 96.4546318,150.458265 C96.5788694,150.512755 96.7157788,150.545229 96.8615032,150.555411 C96.9975861,150.565044 97.0964803,150.569997 97.1590123,150.570548 L97.1653482,150.641275 L97.481314,150.670446 C97.4829668,150.670446 97.5121668,150.674024 97.5854422,150.702095 C97.7840571,150.781904 97.9655928,150.803369 98.2564907,150.767593 C98.5460112,150.731266 98.6760337,150.517433 98.6760337,150.32259 L98.6760337,150.009408 C98.6760337,149.753469 98.5677734,149.600181 98.4774188,149.517896 C98.3507019,149.40176 98.1719209,149.347545 97.9143551,149.347545" id="Fill-231" fill="#FFFFFE"></path>
                        <path d="M106.910427,133.781229 L106.902714,133.85691 C106.902714,134.048726 106.881778,134.266963 106.842385,134.50694 C106.7928,134.814617 106.744868,134.92002 106.731095,134.945063 L106.688397,135.02212 L106.688397,135.111561 C106.688397,135.198525 106.673246,135.314111 106.644046,135.459143 C106.606582,135.657289 106.588125,135.817457 106.588125,135.937996 C106.588125,136.00432 106.579035,136.065415 106.558925,136.122107 C106.530001,136.203567 106.510442,136.27567 106.499423,136.340618 C106.418435,136.472165 106.318714,136.703061 106.203292,137.168705 C106.095858,137.415562 106.027816,137.531147 105.991454,137.584261 C105.888703,137.605452 105.79339,137.658841 105.709922,137.740302 C105.637749,137.813781 105.587888,137.900745 105.563647,138.000093 C105.425911,138.004221 105.29947,138.053758 105.201953,138.142098 C105.142175,138.194937 105.096172,138.257959 105.065043,138.327035 C104.896179,138.433263 104.776625,138.506742 104.73007,138.534813 C104.580489,138.591505 104.438897,138.642968 104.307772,138.690303 C104.192901,138.730758 104.107505,138.780019 104.044973,138.832032 L104.044973,135.425017 C104.044973,135.221642 104.066459,134.876813 104.107229,134.39273 C104.151305,133.897915 104.199788,133.419887 104.258738,132.915165 C104.258738,132.466859 104.275267,132.03534 104.307221,131.633544 C104.342206,131.20863 104.35901,130.942233 104.35901,130.834078 C104.35901,130.779588 104.359836,130.738308 104.36204,130.70721 C104.392893,130.696202 104.433387,130.684368 104.486553,130.668406 L105.052647,130.668406 C105.126749,130.668406 105.221236,130.684368 105.333904,130.713815 C105.450153,130.744637 105.547945,130.782065 105.65042,130.837381 C105.706341,130.861599 105.740499,130.88334 105.760333,130.897375 L105.760333,131.18221 L106.20219,131.18221 C106.255631,131.260093 106.314031,131.331095 106.376288,131.393291 C106.397223,131.414482 106.446257,131.471724 106.534684,131.610427 C106.610989,131.731516 106.676827,131.841322 106.731095,131.941496 C106.760295,131.995711 106.804921,132.097811 106.84817,132.274217 C106.892797,132.448971 106.902714,132.548869 106.902714,132.601984 L106.902714,132.691149 L106.945136,132.767931 C106.949268,132.776462 106.988385,132.855446 106.988385,133.114962 C106.988385,133.326318 106.962215,133.550609 106.910427,133.781229 Z M108.095505,132.282197 C108.06906,132.010297 107.972645,131.79151 107.830777,131.65556 C107.830777,131.655285 107.820034,131.631617 107.813698,131.569697 C107.833532,131.363019 107.757226,131.163497 107.596626,131.001677 L107.420875,130.82885 C107.197744,130.553922 107.000506,130.358803 106.827234,130.239364 C106.606582,130.079747 106.393091,129.942145 106.190895,129.831513 L105.747111,129.588509 C105.594775,129.505673 105.420126,129.459164 105.228673,129.453109 C105.086255,129.448431 104.960915,129.445954 104.85293,129.445954 L104.125135,129.445954 L104.002825,129.46742 C103.866467,129.519158 103.75435,129.55576 103.66675,129.57585 C103.409735,129.637495 103.24886,129.84087 103.24886,130.106717 C103.248309,130.15873 103.232056,130.276517 103.203407,130.458977 C103.167045,130.686845 103.149139,130.918841 103.149139,131.148085 C103.149139,131.389714 103.130958,131.674549 103.094321,131.992684 C103.054102,132.336688 103.034819,132.647392 103.034819,132.915165 C103.034819,133.118815 103.018841,133.422639 102.98606,133.829114 C102.951902,134.260358 102.935098,134.692151 102.935098,135.111561 C102.935098,135.525742 102.918294,136.144123 102.885513,136.964504 C102.852181,137.780481 102.835102,138.597009 102.835102,139.387943 C102.835102,139.754513 102.828215,140.155484 102.813615,140.587829 L102.770917,141.899722 C102.756868,142.339772 102.746951,142.758081 102.742819,143.154373 C102.737585,143.550666 102.735657,143.891918 102.736759,144.147031 C102.679185,144.779723 102.644751,145.523872 102.635661,146.355536 C102.625744,147.184173 102.621612,147.883189 102.621612,148.455336 C102.621612,148.980699 102.625744,149.461479 102.635661,149.895749 C102.646679,150.381758 102.657423,150.884554 103.083026,150.884554 L103.379709,150.884554 L103.462075,150.834743 C103.578875,150.764566 103.66675,150.653109 103.722946,150.501196 C103.764543,150.389464 103.790437,150.223241 103.808894,149.944736 C103.822392,149.712739 103.833135,149.369286 103.838369,148.914375 C103.842501,148.467445 103.844429,147.862549 103.844429,147.100786 C103.844429,146.663764 103.847735,146.221512 103.851867,145.772105 C103.856826,145.322424 103.866467,144.903014 103.879965,144.51195 C103.895392,144.120061 103.908339,143.776332 103.923214,143.481865 C103.935886,143.205836 103.943875,142.998883 103.944976,142.861557 C103.97335,142.7168 103.992633,142.513425 104.002275,142.244827 C104.011365,141.97155 104.018527,141.656718 104.022935,141.303082 L104.03781,140.168694 C104.038637,140.086408 104.039463,140.003022 104.039739,139.920186 L104.103373,139.927341 C104.326229,139.941927 104.446059,139.94688 104.739987,139.834873 C104.894251,139.77653 105.050443,139.693418 105.215451,139.583887 C105.382111,139.517563 105.528937,139.437204 105.65042,139.341709 C105.769699,139.250066 105.861707,139.170532 105.894488,139.108061 C106.032499,139.108061 106.176571,139.048617 106.36031,138.914869 C106.50631,138.810842 106.621733,138.690578 106.703548,138.557105 C106.826408,138.422255 106.949268,138.221632 107.079842,137.946704 C107.211242,137.668749 107.310136,137.411984 107.347325,137.248238 C107.462196,137.018994 107.54897,136.802134 107.605441,136.605364 C107.687256,136.324106 107.698,136.22118 107.698,136.154306 C107.699928,136.100916 107.720864,135.986707 107.755298,135.814705 C107.797169,135.608578 107.844826,135.404102 107.904328,135.186416 C107.963003,134.92057 108.014792,134.610967 108.059418,134.255404 C108.103494,133.89764 108.126358,133.55171 108.126358,133.229172 C108.126358,132.794901 108.11589,132.485848 108.095505,132.282197 Z" id="Fill-232" fill="#FFFFFE"></path>
                        <g id="Group-15" transform="translate(57.823284, 78.581897)">
                            <path d="M0.77994597,5.34051724 C0.35440341,6.22868843 0.137402954,24.8045816 0.77994597,25.8660124 L15.2916983,16.3030709 L1.16916863,5.34051724" id="Fill-233" fill="#FFB839"></path>
                            <path d="M20.3557654,21.6062964 L14.8302862,16.7844828 L0.764584914,25.8933706 C1.80919999,27.6668739 4.2185541,29.3479056 6.20117308,29.6959294 C6.83880659,29.7981504 32.0710828,29.7449719 32.3787155,29.6959294 C34.6140639,29.302113 38.7925242,28.1253908 39.7584155,26.0298621 L25.8829876,16.7844828 L20.3557654,21.6062964" id="Fill-234" fill="#FFB839"></path>
                            <path d="M39.645002,4.4409054 L25.9508793,16.2335294 L39.4564228,26.3711899 C39.8822766,25.4651387 40.7869115,24.0601972 40.7869115,23.0932897 C40.7869115,17.4058763 41.2875854,13.9991003 41.2875854,8.31139143 C41.2875854,7.01981801 40.3686577,5.57767908 39.645002,4.4409054 Z" id="Fill-235" fill="#FFB839"></path>
                            <path d="M39.7584155,4.49056808 C38.7039553,2.81630599 37.0100233,1.51220588 35.1003206,1.1782362 C25.3284853,-0.392745401 16.8300757,-0.392745401 7.05795,1.1782362 C4.83257707,1.5681127 1.73511817,3.27415341 0.764584914,5.35182734 L20.3497833,21.362069 L39.7584155,4.49056808" id="Fill-236" fill="#FFB839"></path>
                            <polyline id="Fill-237" fill="#FFFFFE" points="39.2398356 25.9396552 25.8447632 17.1987501 20.3519435 21.8918401 14.8571173 17.1956094 1.27313155 25.8114568 0.764584914 25.0157129 14.9411106 16.0244069 20.3519435 20.6489721 25.7682232 16.0215517 39.7584155 25.1513348 39.2398356 25.9396552"></polyline>
                            <polyline id="Fill-238" fill="#FFFFFE" points="20.3527075 21.362069 0.764584914 5.39322327 1.35757523 4.65074157 20.3341229 20.1212289 39.1445533 3.81465517 39.7584155 4.53835815 20.3527075 21.362069"></polyline>
                        </g>
                    </g>
                    <g id="Page-1" transform="translate(179.000000, 35.000000)">
                        <g id="Group-3" fill="#F87C45">
                            <path d="M23.4703843,5.0134991 L1.46903165,41.3904839 C-0.441807338,44.5498606 -0.49224874,48.5039873 1.33847744,51.7104603 C3.16821457,54.9159521 6.61207656,56.9077331 10.3249594,56.9077331 L32.3273011,56.9077331 L32.3273011,0.0389525636 C28.6648597,0.0389525636 25.3545191,1.89925636 23.4703843,5.0134991" id="Fill-1"></path>
                        </g>
                        <path d="M60.968826,41.3901895 L39.6145719,5.01320475 C37.7868129,1.898962 34.5728752,0.0386582117 31.0191127,0.0386582117 L31.0191127,56.9074387 L52.3733667,56.9074387 C55.9780071,56.9074387 59.319619,54.9166389 61.0965003,51.7101659 C62.8714617,48.503693 62.8234638,44.5495662 60.968826,41.3901895" id="Fill-4" fill="#FC5D16"></path>
                        <path d="M29.3351055,8.78713574 L7.38611601,45.0546068 C5.84588798,47.5999328 7.69495097,50.8378378 10.6895647,50.8378378 L32.6385542,50.8378378 L32.6385542,6.93243243 C31.3607866,6.93243243 30.0830189,7.55066687 29.3351055,8.78713574" id="Fill-7" fill="#EFEFEF"></path>
                        <path d="M57.8909924,45.0536286 L35.9420029,8.78615752 C35.1940895,7.55066687 33.9163219,6.93243243 32.6385542,6.93243243 L32.6385542,50.8378378 L54.5875437,50.8378378 C57.5821575,50.8378378 59.4312205,47.5989546 57.8909924,45.0536286" id="Fill-9" fill="#E1E1E1"></path>
                        <path d="M31.1597377,15.4054054 C30.7111759,15.4054054 30.3503598,15.8859803 30.3617062,16.4687632 L30.7815237,38.2734956 C30.7921137,38.8356404 31.146122,39.2837838 31.5795552,39.2837838 L32.6385542,39.2837838 L32.6385542,15.4054054 L31.1597377,15.4054054 Z" id="Fill-11" fill="#4F4E4F"></path>
                        <path d="M32.6385542,46.9864865 L32.6385542,42.3648649 C31.3809906,42.3648649 30.3614458,43.3994995 30.3614458,44.6756757 C30.3614458,45.9518519 31.3809906,46.9864865 32.6385542,46.9864865 Z" id="Fill-13" fill="#4F4E4F"></path>
                        <path d="M34.1173708,15.4054054 L32.6385542,15.4054054 L32.6385542,39.2837838 L33.6975533,39.2837838 C34.1309865,39.2837838 34.4849947,38.8356404 34.4955847,38.2734956 L34.9154022,16.4687632 C34.9267486,15.8859803 34.5659325,15.4054054 34.1173708,15.4054054" id="Fill-15" fill="#404041"></path>
                        <path d="M32.6385542,42.3648649 L32.6385542,46.9864865 C33.8961178,46.9864865 34.9156627,45.9516389 34.9156627,44.6761512 C34.9156627,43.3987613 33.8961178,42.3648649 32.6385542,42.3648649" id="Fill-17" fill="#404041"></path>
                    </g>
                    <g id="Page-1" transform="translate(0.000000, 59.000000)">
                        <g id="Group-28" transform="translate(28.313316, 3.788444)">
                            <path d="M18.0461319,1.58487579 C18.0461319,2.36967148 17.4185948,3.00456238 16.6441873,3.00456238 C15.8697799,3.00456238 15.2416623,2.36967148 15.2416623,1.58487579 C15.2416623,0.801255825 15.8697799,0.165189205 16.6441873,0.165189205 C17.4185948,0.165189205 18.0461319,0.801255825 18.0461319,1.58487579" id="Fill-10" fill="#000000"></path>
                            <path d="M23.7997355,14.2216148 C23.7997355,18.2231911 20.5947103,21.4658375 16.6443034,21.4658375 C12.6921551,21.4658375 9.49061299,18.2231911 9.49061299,14.2216148 C9.49061299,10.2206265 12.6921551,6.97621643 16.6443034,6.97621643 C20.5947103,6.97621643 23.7997355,10.2206265 23.7997355,14.2216148" id="Fill-12" fill="#000000"></path>
                            <path d="M20.2007145,16.0867832 C20.2007145,14.8975385 19.2492499,13.9334449 18.0742869,13.9334449 L17.4926105,13.9334449 C18.3517732,13.5907214 18.9613143,12.7442002 18.9613143,11.7518893 C18.9613143,10.4562415 17.9239334,9.40573226 16.6444776,9.40573226 C15.3644413,9.40573226 14.3270604,10.4562415 14.3270604,11.7518893 C14.3270604,12.7442002 14.936021,13.5907214 15.7951837,13.9334449 L15.2152488,13.9334449 C14.0391248,13.9334449 13.0882407,14.8975385 13.0882407,16.0867832 L12.6000273,19.0372623 L20.6877669,19.0372623 L20.2007145,16.0867832 Z" id="Fill-14" fill="#000000"></path>
                            <path d="M33.4842406,29.709837 C33.4842406,31.8249643 31.7926189,33.5403454 29.7039247,33.5403454 L3.81410185,33.5403454 C1.72540768,33.5403454 0.0326249618,31.8249643 0.0326249618,29.709837 C0.0326249618,27.5958855 1.72540768,25.8816801 3.81410185,25.8816801 L29.7039247,25.8816801 C31.7926189,25.8816801 33.4842406,27.5958855 33.4842406,29.709837" id="Fill-16" fill="#000000"></path>
                            <polygon id="Fill-18" fill="#3F46AD" points="7.05715076 28.3756256 6.56429324 27.6743063 4.88892599 28.8788354 4.88892599 26.7966284 4.04021257 26.7966284 4.04021257 28.8788354 2.36484532 27.6743063 1.87256831 28.3756256 3.7307979 29.7100722 1.87256831 31.0486338 2.36484532 31.7481895 4.04021257 30.5436604 4.04021257 32.623516 4.88892599 32.623516 4.88892599 30.5436604 6.56429324 31.7481895 7.05715076 31.0486338 5.19776014 29.7100722"></polygon>
                            <polygon id="Fill-20" fill="#3F46AD" points="13.1695709 28.3756256 12.6772939 27.6743063 11.0030876 28.8788354 11.0030876 26.7966284 10.1543742 26.7966284 10.1543742 28.8788354 8.47784594 27.6743063 7.98614945 28.3756256 9.84495955 29.7100722 7.98614945 31.0486338 8.47784594 31.7481895 10.1543742 30.5436604 10.1543742 32.623516 11.0030876 32.623516 11.0030876 30.5436604 12.6772939 31.7481895 13.1695709 31.0486338 11.3113413 29.7100722"></polygon>
                            <polygon id="Fill-22" fill="#3F46AD" points="19.283152 28.3756256 18.7902945 27.6743063 17.1160883 28.8788354 17.1160883 26.7966284 16.2673748 26.7966284 16.2673748 28.8788354 14.5908466 27.6743063 14.0997306 28.3756256 15.9573797 29.7100722 14.0997306 31.0486338 14.5908466 31.7481895 16.2673748 30.5436604 16.2673748 32.623516 17.1160883 32.623516 17.1160883 30.5436604 18.7902945 31.7481895 19.283152 31.0486338 17.4249224 29.7100722"></polygon>
                            <polygon id="Fill-24" fill="#3F46AD" points="25.3955721 28.3756256 24.9050366 27.6743063 23.2290889 28.8788354 23.2290889 26.7966284 22.3797949 26.7966284 22.3797949 28.8788354 20.7044277 27.6743063 20.2121507 28.3756256 22.0709608 29.7100722 20.2121507 31.0486338 20.7044277 31.7481895 22.3797949 30.5436604 22.3797949 32.623516 23.2290889 32.623516 23.2290889 30.5436604 24.9050366 31.7481895 25.3955721 31.0486338 23.537923 29.7100722"></polygon>
                            <polygon id="Fill-26" fill="#3F46AD" points="31.5090952 28.3756256 31.0173987 27.6743063 29.342612 28.8788354 29.342612 26.7966284 28.493318 26.7966284 28.493318 28.8788354 26.8173703 27.6743063 26.3262543 28.3756256 28.1844839 29.7100722 26.3262543 31.0486338 26.8173703 31.7481895 28.493318 30.5436604 28.493318 32.623516 29.342612 32.623516 29.342612 30.5436604 31.0173987 31.7481895 31.5090952 31.0486338 29.6508656 29.7100722"></polygon>
                        </g>
                        <path d="M76.5224758,44.1630525 C76.5224758,45.7180243 75.2505649,46.9767008 73.6837435,46.9767008 L8.96228231,46.9767008 C7.39370898,46.9767008 6.12179807,45.7180243 6.12179807,44.1630525 L6.12179807,2.81306966 C6.12179807,1.25867651 7.39370898,0 8.96228231,0 L73.6837435,0 C75.2505649,0 76.5224758,1.25867651 76.5224758,2.81306966 L76.5224758,44.1630525 Z" id="Fill-29" fill="#2879FF"></path>
                        <path d="M12.4138728,42.4305685 C11.4786775,42.4305685 10.7131466,41.6731338 10.7131466,40.747701 L10.7131466,6.23015447 C10.7131466,5.30356704 11.4786775,4.54613234 12.4138728,4.54613234 L70.229235,4.54613234 C71.1667625,4.54613234 71.9311273,5.30356704 71.9311273,6.23015447 L71.9311273,40.747701 C71.9311273,41.6731338 71.1667625,42.4305685 70.229235,42.4305685 L12.4138728,42.4305685 Z" id="Fill-31" fill="#FFFFFF"></path>
                        <path d="M82.6442739,45.3533355 C82.6442739,46.6683254 81.378922,47.7343896 79.818302,47.7343896 L2.82597185,47.7343896 C1.26535186,47.7343896 0,46.6683254 0,45.3533355 L0,41.7814589 C0,40.4646952 1.26535186,39.3998136 2.82597185,39.3998136 L79.818302,39.3998136 C81.378922,39.3998136 82.6442739,40.4646952 82.6442739,41.7814589 L82.6442739,45.3533355 Z" id="Fill-33" fill="#2879FF"></path>
                        <path d="M47.443935,42.8085467 C47.443935,43.8565615 46.3534656,44.7036347 45.0088395,44.7036347 L37.6365792,44.7036347 C36.2913807,44.7036347 35.2003389,43.8565615 35.2003389,42.8085467 C35.2003389,41.7639964 36.2913807,40.9151911 37.6365792,40.9151911 L45.0088395,40.9151911 C46.3534656,40.9151911 47.443935,41.7639964 47.443935,42.8085467" id="Fill-35" fill="#FFFFFF"></path>
                        <path d="M43.6178112,2.27306617 C43.6178112,3.11075929 42.9328947,3.78844362 42.0876785,3.78844362 C41.2424623,3.78844362 40.5569122,3.11075929 40.5569122,2.27306617 C40.5569122,1.43662802 41.2424623,0.757688723 42.0876785,0.757688723 C42.9328947,0.757688723 43.6178112,1.43662802 43.6178112,2.27306617" id="Fill-37" fill="#FFFFFF"></path>
                        <path d="M48.9743845,14.7755142 C48.9743845,18.7512589 45.7178097,21.972973 41.7038645,21.972973 C37.6881498,21.972973 34.4351141,18.7512589 34.4351141,14.7755142 C34.4351141,10.8003535 37.6881498,7.57688723 41.7038645,7.57688723 C45.7178097,7.57688723 48.9743845,10.8003535 48.9743845,14.7755142" id="Fill-39" fill="#FFFFFF"></path>
                        <path d="M45.4066127,16.6825169 C45.4066127,15.4663026 44.4158243,14.4803453 43.1936505,14.4803453 L42.588303,14.4803453 C43.481825,14.1298495 44.1161712,13.264131 44.1161712,12.2493164 C44.1161712,10.9242861 43.0365743,9.8499534 41.7050514,9.8499534 C40.3735285,9.8499534 39.2939316,10.9242861 39.2939316,12.2493164 C39.2939316,13.264131 39.9276737,14.1298495 40.8211957,14.4803453 L40.2182647,14.4803453 C38.9942785,14.4803453 38.0040943,15.4663026 38.0040943,16.6825169 L37.4960132,19.6999068 L45.9134855,19.6999068 L45.4066127,16.6825169 Z" id="Fill-41" stroke="#4F4E4F" stroke-width="1.17088608"></path>
                        <path d="M58.9223064,30.3063858 C58.9223064,32.398928 57.2196468,34.0959925 55.1173238,34.0959925 L29.0585683,34.0959925 C26.9562452,34.0959925 25.252417,32.398928 25.252417,30.3063858 C25.252417,28.2150067 26.9562452,26.5191053 29.0585683,26.5191053 L55.1173238,26.5191053 C57.2196468,26.5191053 58.9223064,28.2150067 58.9223064,30.3063858" id="Fill-43" fill="#FFFFFF"></path>
                        <polygon id="Fill-45" fill="#4F4E4F" points="32.1394398 28.9193702 31.6302325 28.189812 29.8992874 29.442842 29.8992874 27.276794 29.023019 27.276794 29.023019 29.442842 27.2914741 28.189812 26.7828665 28.9193702 28.7033399 30.3075489 26.7828665 31.7000083 27.2914741 32.427732 29.023019 31.174702 29.023019 33.3383038 29.8992874 33.3383038 29.8992874 31.174702 31.6302325 32.427732 32.1394398 31.7000083 30.2183667 30.3075489"></polygon>
                        <polygon id="Fill-47" fill="#4F4E4F" points="38.2612379 28.9193702 37.7525164 28.189812 36.0223834 29.442842 36.0223834 27.276794 35.1453188 27.276794 35.1453188 29.442842 33.4127862 28.189812 32.9046646 28.9193702 34.8255681 30.3075489 32.9046646 31.7000083 33.4127862 32.427732 35.1453188 31.174702 35.1453188 33.3383038 36.0223834 33.3383038 36.0223834 31.174702 37.7525164 32.427732 38.2612379 31.7000083 36.3409343 30.3075489"></polygon>
                        <polygon id="Fill-49" fill="#4F4E4F" points="44.383036 28.9193702 43.8737146 28.189812 42.1435816 29.442842 42.1435816 27.276794 41.266517 27.276794 41.266517 29.442842 39.5345843 28.189812 39.0264627 28.9193702 40.9461664 30.3075489 39.0264627 31.7000083 39.5345843 32.427732 41.266517 31.174702 41.266517 33.3383038 42.1435816 33.3383038 42.1435816 31.174702 43.8737146 32.427732 44.383036 31.7000083 42.4627323 30.3075489"></polygon>
                        <polygon id="Fill-51" fill="#4F4E4F" points="50.504834 28.9193702 49.9979123 28.189812 48.2659796 29.442842 48.2659796 27.276794 47.3889149 27.276794 47.3889149 29.442842 45.6569822 28.189812 45.1482607 28.9193702 47.0691643 30.3075489 45.1482607 31.7000083 45.6569822 32.427732 47.3889149 31.174702 47.3889149 33.3383038 48.2659796 33.3383038 48.2659796 31.174702 49.9979123 32.427732 50.504834 31.7000083 48.5851303 30.3075489"></polygon>
                        <polygon id="Fill-53" fill="#4F4E4F" points="56.6266321 28.9193702 56.1184536 28.189812 54.3875269 29.442842 54.3875269 27.276794 53.509764 27.276794 53.509764 29.442842 51.7776373 28.189812 51.2700588 28.9193702 53.1905775 30.3075489 51.2700588 31.7000083 51.7776373 32.427732 53.509764 31.174702 53.509764 33.3383038 54.3875269 33.3383038 54.3875269 31.174702 56.1184536 32.427732 56.6266321 31.7000083 54.7061134 30.3075489"></polygon>
                    </g>
                </g>
            </g>
        </g>
    </g>
</svg>