<svg width="451" height="260" viewBox="0 0 451 260" xmlns="http://www.w3.org/2000/svg" xmlns:xlink="http://www.w3.org/1999/xlink"><defs><path d="M36.661 80.39c-11.52-12.58-10.725-32.17 1.776-43.76 12.503-11.592 31.971-10.798 43.494 1.78 11.52 12.578 10.724 32.169-1.778 43.766C67.65 93.766 48.175 92.96 36.66 80.39zm-21.71 2.634a50705.17 50705.17 0 0 1-4.639 10.084l11.652 12.725c3.465-1.283 6.93-2.559 10.398-3.838a49.164 49.164 0 0 0 12.178 5.64 7665.81 7665.81 0 0 0 3.809 10.451l17.178.704a7044.9 7044.9 0 0 0 4.659-10.115 49.337 49.337 0 0 0 12.593-4.661c3.338 1.558 6.678 3.12 10.021 4.668l12.64-11.72c-1.273-3.488-2.538-6.973-3.818-10.46a50.113 50.113 0 0 0 5.623-12.26c3.456-1.275 6.913-2.555 10.377-3.834l.695-17.28c-3.353-1.567-6.706-3.128-10.05-4.687a50.286 50.286 0 0 0-4.632-12.676c1.554-3.354 3.09-6.718 4.644-10.082L96.622 12.96c-3.464 1.28-6.932 2.564-10.395 3.84a49.709 49.709 0 0 0-12.177-5.647L70.235.718 53.061.009c-1.553 3.37-3.106 6.748-4.659 10.122a49.127 49.127 0 0 0-12.593 4.656c-3.34-1.559-6.678-3.116-10.02-4.672l-12.64 11.726a5715.01 5715.01 0 0 1 3.81 10.455 50.45 50.45 0 0 0-5.615 12.261C7.887 45.836 4.428 47.11.966 48.392L.265 65.675c3.354 1.565 6.709 3.125 10.06 4.686a50.337 50.337 0 0 0 4.626 12.663z" id="a"/><path d="M3.947.141C4.22-.28.952 6.736.952 6.736S.588 4.15.056 3.802c-.059-.038 1.757-.37 3.89-3.66z" id="b"/></defs><g fill="none" fill-rule="evenodd"><path d="M91.586 10.654l-.046-.419a39.428 39.428 0 0 1 5.05-.228l-.008.422a38.979 38.979 0 0 0-4.996.225zm14.828 1.414a31.786 31.786 0 0 0-4.854-1.188l.068-.416c1.69.277 3.344.682 4.917 1.204l-.131.4zm-24.567.84l-.14-.397a44.364 44.364 0 0 1 4.851-1.425l.094.41c-1.612.376-3.229.85-4.805 1.413zm33.33 3.874a27.738 27.738 0 0 0-4.173-2.747l.198-.371a28.06 28.06 0 0 1 4.236 2.788l-.261.33zm-42.324.526l-.225-.355a44.64 44.64 0 0 1 4.416-2.478l.183.379a44.38 44.38 0 0 0-4.374 2.454zm-7.727 6.37l-.305-.288a39.755 39.755 0 0 1 3.706-3.462l.266.327a39.348 39.348 0 0 0-3.667 3.424zm-5.748 8.183l-.375-.188a33.158 33.158 0 0 1 2.605-4.356l.342.244a32.826 32.826 0 0 0-2.572 4.3zm-2.9 9.552l-.416-.053a29.614 29.614 0 0 1 1.06-4.97l.4.124a29.208 29.208 0 0 0-1.043 4.899zm.04 10.067a31.978 31.978 0 0 1-.648-5.041l.42-.02c.076 1.641.291 3.315.64 4.974l-.411.087zm3.432 9.53a41.38 41.38 0 0 1-2.031-4.648l.393-.145a41.216 41.216 0 0 0 2.011 4.602l-.373.192zm5.493 8.502a57.686 57.686 0 0 1-2.95-4.116l.35-.23a57.494 57.494 0 0 0 2.93 4.085l-.33.26zm6.8 7.482a79.555 79.555 0 0 1-3.529-3.623l.31-.284a78.93 78.93 0 0 0 3.51 3.603l-.291.304zm7.636 6.614a107.192 107.192 0 0 1-3.902-3.209l.274-.32a106.247 106.247 0 0 0 3.885 3.197l-.257.332zm-2.185.61a41.944 41.944 0 0 0-5.004-.043l-.022-.421a42.595 42.595 0 0 1 5.053.044l-.027.42zm-14.77 1.905l-.145-.395a31.449 31.449 0 0 1 4.872-1.362l.08.413a31.02 31.02 0 0 0-4.807 1.344zm-8.576 5.03l-.272-.32a28.646 28.646 0 0 1 4.127-2.942l.211.364a28.187 28.187 0 0 0-4.066 2.898zm-6.411 7.646l-.359-.22a33.65 33.65 0 0 1 2.94-4.134l.32.27a33.335 33.335 0 0 0-2.901 4.084zm-4.049 9.171l-.4-.124a45.078 45.078 0 0 1 1.762-4.758l.384.17a44.613 44.613 0 0 0-1.746 4.712zm-2.031 9.851l-.417-.048c.198-1.708.465-3.394.795-5.01l.411.084a59.219 59.219 0 0 0-.79 4.974zm-.821 10.08a71.348 71.348 0 0 1 .018-5.07l.418.015a71.401 71.401 0 0 0-.017 5.041l-.42.013zm.955 10.09a84.073 84.073 0 0 1-.634-5.03l.417-.04a83.72 83.72 0 0 0 .631 5.005l-.414.066zm2.137 9.907a91.53 91.53 0 0 1-1.208-4.923l.41-.089a91.18 91.18 0 0 0 1.203 4.9l-.405.112zm3.218 9.605a93.15 93.15 0 0 1-1.74-4.758l.398-.135a92.17 92.17 0 0 0 1.731 4.738l-.39.155zm4.24 9.184a90.775 90.775 0 0 1-2.247-4.533l.38-.178a91.095 91.095 0 0 0 2.237 4.514l-.37.197zm5.247 8.65a86.632 86.632 0 0 1-2.749-4.248l.358-.22a85.574 85.574 0 0 0 2.736 4.229l-.345.24zm6.244 7.958a79.673 79.673 0 0 1-3.246-3.88l.33-.261a79.268 79.268 0 0 0 3.228 3.86l-.312.281zm7.22 7.069a72.594 72.594 0 0 1-3.73-3.411l.293-.301a72.474 72.474 0 0 0 3.708 3.391l-.27.32zm8.137 5.965a66.985 66.985 0 0 1-4.178-2.83l.248-.34a66.983 66.983 0 0 0 4.15 2.812l-.22.358zm8.953 4.655a64.15 64.15 0 0 1-4.568-2.15l.193-.375a63.055 63.055 0 0 0 4.538 2.137l-.163.388zm9.573 3.169a64.09 64.09 0 0 1-4.849-1.392l.131-.4a63.11 63.11 0 0 0 4.817 1.382l-.099.41zm25.057 1.238l-.052-.418a82.043 82.043 0 0 0 4.957-.79l.078.414a82.45 82.45 0 0 1-4.983.794zm-15.108.373a66.76 66.76 0 0 1-5.005-.61l.066-.418a65.01 65.01 0 0 0 4.973.607l-.034.421zm5.705.236c-.222 0-.444-.001-.665-.003l.004-.421c1.646.015 3.336-.03 5.015-.132l.026.422a73.368 73.368 0 0 1-4.38.134z" fill="#FFF"/><path d="M434.012 217.54c-2.878 6.121-3.69 17.723-10.466 19.615-2.81.784-6.343-.307-9.898-1.398-4.161-1.277-8.357-2.554-11.462-.82-8.374 4.675 1.484 11.58-8.624 14.085-4.163 1.03-22.666 2.496-26.872 1.795-.616-.102-1.583-.022-2.734.059-3.344.233-8.234.466-10.512-3.776-6.737-12.546 65.012-65.687 93.623-53.22 13.11 5.715-10.544 18.314-13.055 23.66" fill="#64840E"/><path d="M361.938 250c-.308 0-.622-.012-.938-.037.273-.197.541-.408.805-.63.793-.02 1.556-.092 2.256-.164.82-.085 1.555-.169 2.149-.169.301 0 .567.022.79.076-1.001.36-2.912.924-5.062.924" fill="#187070"/><path d="M361 252c2.963-1.705 5.27-4.471 6.647-5.218 4.253-2.308 8.123-5.198 11.134-9.033 6.642-8.467-2.832-11.589-1.422-19.641 6.914-5.076 14.707-9.994 22.641-14.108-3.475 26.478-16.144 43.435-34.196 47.838a4.582 4.582 0 0 0-.73-.048c-.55 0-1.23.054-1.988.107-.647.045-1.353.09-2.086.103" fill="#556F0D"/><path d="M352.764 245l-.764-.865c37.376-32.251 58.708-38.688 81.295-45.505 1.778-.54 3.564-1.079 5.358-1.63l.347 1.095c-1.799.552-3.585 1.092-5.37 1.632-22.46 6.778-43.678 13.182-80.866 45.273" fill="#FFF"/><path d="M421.282 214c-5.941-3.557-10.673-3.275-17.224-2.883-.958.055-1.951.115-2.987.165l-.071-.896c1.029-.05 2.016-.107 2.966-.164 6.557-.391 11.736-.7 18.034 3.07l-.718.708m-41.198 10.62l-.084-1.087c1.14-.079 2.168-.18 3.076-.269 4.162-.41 6.675-.659 11.924 1.757l-.503.979c-4.956-2.282-7.21-2.057-11.303-1.651-.915.089-1.951.192-3.11.272M416.202 205l-1.202-.233c2.797-1.432 5.718-4.482 7.892-6.68 1.382-1.4 2.81-2.843 4.387-4.087l.721.889c-1.518 1.197-2.925 2.617-4.28 3.99-2.24 2.264-4.55 4.605-7.518 6.121" fill="#FFF"/><path d="M406.553 166.673c1.699 7.496 2.178 15.455-2.647 21.872-4.34 5.775-21.453 16.821-24.418 23.715-4.314 10.03 8.072 12.867.653 22.154-3.057 3.824-6.986 6.706-11.303 9.007-2.462 1.311-7.854 8.873-14.659 5.887-14.966-6.567-10.173-16.86-12.38-23.41-4.538-13.467-6.359-29.571 2.31-38.06 1.756-1.718 4.313-1.643 6.857-1.567 2.597.078 5.18.155 6.88-1.677 3.085-3.325 1.529-16.452 3.503-21.309 2.37-5.83 6.106-5.746 9.231-5.66 2.282.061 4.237.122 5.096-2.118 4.35-11.356 26.599-25.61 33.78-21.91 14.585 7.515-4.39 26.528-2.903 33.076" fill="#85A52B"/><path d="M352 250.162c10.955-55.66 25.658-75.87 41.33-97.922 1.234-1.737 2.47-3.476 3.709-5.24l.961.666c-1.24 1.764-2.478 3.507-3.712 5.246-15.597 21.946-30.328 42.676-41.236 98.088l-1.052-.838z" fill="#FFF"/><path d="M372.752 187l-.752-.865a221.34 221.34 0 0 0 2.464-2.242c5.41-4.974 9.683-8.904 18.536-8.893l-.002 1.156c-8.412-.013-12.337 3.596-17.769 8.592-.792.727-1.61 1.48-2.477 2.252m-9.97 24l-.782-.865c.983-.88 1.844-1.704 2.604-2.43 3.48-3.323 5.582-5.328 12.156-6.705l.24 1.138c-6.248 1.308-8.144 3.12-11.589 6.407-.764.73-1.634 1.56-2.63 2.455m18.334-40.888L380 171c1.265-3.346 1.846-8.46 2.18-12.07.212-2.288.43-4.652.88-6.93l.94.277c-.436 2.205-.652 4.535-.86 6.788-.341 3.7-.695 7.529-2.025 11.047M172 64.909a77.325 77.325 0 0 1-.746-3.909l-.254.07c.211 1.288.464 2.61.75 3.93l.25-.091M169.465 51l-.465.018c.1 1.3.28 2.64.54 3.982l.46-.045a35.093 35.093 0 0 1-.535-3.955M275 32.13a34.86 34.86 0 0 1 1.604 3.87l.396-.095A35.54 35.54 0 0 0 275.38 32l-.38.13m-105 7.916l-.485-.046a27.37 27.37 0 0 0-.515 3.988l.49.012c.074-1.338.246-2.668.51-3.954m67-38.79a63.02 63.02 0 0 1 3.907.744l.093-.25a63.37 63.37 0 0 0-3.933-.75l-.067.256m33 20.957A39.844 39.844 0 0 1 272.63 26l.37-.177A40.283 40.283 0 0 0 270.346 22l-.346.213M263.224 15l-.224.237A36.337 36.337 0 0 1 265.75 18l.25-.212A36.705 36.705 0 0 0 263.224 15M173 31.122l-.409-.122A29.965 29.965 0 0 0 171 34.916l.424.084c.43-1.32.961-2.626 1.576-3.878m82-20.782a46.554 46.554 0 0 1 3.772 2.66l.228-.32a46.861 46.861 0 0 0-3.804-2.68l-.196.34M226 .492c1.32.095 2.652.266 3.958.508L230 .512A36.432 36.432 0 0 0 226.016 0L226 .492m-51 71.38c-.269-.964-.527-1.927-.762-2.872l-.238.116c.235.949.495 1.916.765 2.884a3.81 3.81 0 0 1 .235-.128m35-70.596L209.94 1a59.32 59.32 0 0 0-3.94.729l.085.271A59.535 59.535 0 0 1 210 1.276m68 44.694a38.854 38.854 0 0 0-.627-3.97l-.373.06c.271 1.28.48 2.606.621 3.94l.379-.03m95 69.022a29.109 29.109 0 0 0-.441-3.992l-.559.036c.24 1.32.387 2.654.44 3.964l.56-.008m-94.869-63.533c0 1.153-.044 2.336-.131 3.519l.368.022a48.734 48.734 0 0 0 .13-4l-.369.003c.002.152.002.303.002.456M220 .568L219.992 0A31.8 31.8 0 0 0 216 .435l.034.565A31.22 31.22 0 0 1 220 .568m-37 13.675l-.218-.243A34.744 34.744 0 0 0 180 16.783l.244.217A34.468 34.468 0 0 1 183 14.243m18-10.895L200.884 3A46.564 46.564 0 0 0 197 4.664l.145.336A46.188 46.188 0 0 1 201 3.348m-24 17.865l-.348-.213A36.63 36.63 0 0 0 174 24.826l.374.174A36.053 36.053 0 0 1 177 21.213m16-11.859L192.812 9A45.169 45.169 0 0 0 189 11.668l.22.332A44.768 44.768 0 0 1 193 9.354m53-5.024A47.766 47.766 0 0 1 249.846 6l.154-.317A48.203 48.203 0 0 0 246.125 4l-.125.33M362.256 83l-.256.187A71.497 71.497 0 0 1 363.734 87l.266-.166A71.55 71.55 0 0 0 362.256 83m-9.498-13l.242-.219A56.665 56.665 0 0 0 350.226 67l-.226.235A56.154 56.154 0 0 1 352.758 70M359 78.777A70.246 70.246 0 0 0 356.293 75l-.293.244A70.092 70.092 0 0 1 358.69 79l.31-.223m-7 79.945l.188.278a47.96 47.96 0 0 0 2.812-2.742l-.207-.258a47.762 47.762 0 0 1-2.793 2.722m13-13.912l.258.19a47.725 47.725 0 0 0 1.742-3.843l-.272-.157a47.61 47.61 0 0 1-1.728 3.81m-7 7.917l.263.273a52.08 52.08 0 0 0 2.737-3.756l-.285-.244a51.296 51.296 0 0 1-2.715 3.727M371.265 101l-.265.087a63.41 63.41 0 0 1 .73 3.913l.27-.062a63.638 63.638 0 0 0-.735-3.938M367 93.136A57.07 57.07 0 0 1 368.642 97l.358-.114A57.383 57.383 0 0 0 367.35 93l-.35.136m5 31.813l.428.051c.266-1.303.46-2.642.572-3.978l-.432-.022a33.593 33.593 0 0 1-.568 3.949m-3 9.934l.417.117a35.042 35.042 0 0 0 1.583-3.915l-.43-.085a34.424 34.424 0 0 1-1.57 3.883m-35 33.804l.139.313a78.012 78.012 0 0 0 3.861-1.695l-.156-.305a76.773 76.773 0 0 1-3.844 1.687M313 51.438a29.65 29.65 0 0 1 3.947.562l.053-.433a29.77 29.77 0 0 0-3.98-.567l-.02.438m-20 2.155l.118.407A35.188 35.188 0 0 1 297 52.42l-.087-.42A35.385 35.385 0 0 0 293 53.593m10-2.038l.051.445a28.168 28.168 0 0 1 3.949-.55l-.016-.45c-1.327.09-2.667.276-3.984.555m-18 5.185l.185.26A54.225 54.225 0 0 1 289 55.273l-.158-.273A54.212 54.212 0 0 0 285 56.74m-7.465 5.55c.044-.235.087-.469.128-.702l-.386-.04c-.063.355-.129.712-.201 1.073L277 63l.39-.238a65.443 65.443 0 0 1 2.61-1.516l-.225-.246c-.75.412-1.5.845-2.24 1.29M343 165.637l.186.363a65.082 65.082 0 0 0 3.814-2.65l-.207-.35a63.724 63.724 0 0 1-3.793 2.637m3-101.926A62.329 62.329 0 0 0 342.225 61l-.225.306A62.087 62.087 0 0 1 345.752 64l.248-.289m-23-11.288c1.294.44 2.601.97 3.882 1.577l.118-.41a36.863 36.863 0 0 0-3.913-1.59l-.087.423m14 4.311A54.679 54.679 0 0 0 333.155 55l-.155.278A54.52 54.52 0 0 1 336.818 57l.182-.266" fill="#FFF"/><path d="M126 242.469V120.536c0-5.27 4.286-9.536 9.582-9.536h204.843c5.286 0 9.575 4.267 9.575 9.536v121.933c0 5.257-4.29 9.531-9.575 9.531H135.582c-5.296 0-9.582-4.274-9.582-9.531z" fill="#A5B7C5"/><path d="M348.167 121.463c0-4.759-3.87-8.63-8.624-8.63h-204.08c-4.757 0-8.63 3.871-8.63 8.63V243.54c0 4.756 3.873 8.626 8.63 8.626h204.08c4.755 0 8.624-3.87 8.624-8.626V121.463M125 243.54V121.463c0-5.77 4.694-10.463 10.464-10.463h204.079c5.765 0 10.457 4.693 10.457 10.463V243.54c0 5.767-4.692 10.46-10.457 10.46h-204.08c-5.77 0-10.463-4.693-10.463-10.46" fill="#7E98AC"/><path fill="#F9F9F9" d="M136 239h203V120H136z"/><path fill="#CFCFD1" d="M136 127h203v-7H136z"/><path d="M347.224 246H127.776a7.692 7.692 0 0 1-.776-3h221a7.692 7.692 0 0 1-.776 3" fill="#7E98AC"/><path d="M350 246h-1.708a7.66 7.66 0 0 0 .78-3H350v3m-222.29 0H126l-.001-.008V243h.929a7.661 7.661 0 0 0 .78 3" fill="#14323B"/><path d="M367 245H108v7.42c3.074 4.422 10.55 7.58 14.388 7.58h230.274c3.808 0 11.237-3.128 14.338-7.517V245" fill="#A5B7C5"/><path d="M108 253c3.172 4.096 10.467 7 14.244 7h230.52c3.767 0 11.063-2.904 14.236-7H108" fill="#7E98AC"/><path d="M215 245c.243 2.237 2.744 4 5.8 4h32.4c3.055 0 5.558-1.763 5.8-4h-44" fill="#F2F1F0"/><use fill="#78C2D0" xlink:href="#a" transform="translate(194 43)"/><path d="M254 65.85c-19.933 0-36.15 16.217-36.15 36.15s16.217 36.15 36.15 36.15 36.15-16.217 36.15-36.15S273.933 65.85 254 65.85zm0 73.15c-20.402 0-37-16.598-37-37s16.598-37 37-37 37 16.598 37 37-16.598 37-37 37z" fill="#FFFFFE"/><path d="M231.554 158.399c-.43-.674-1.13-1.287-1.547-1.619l1.635-14.332c-6.113-1.2-2.024-2.823-2.024-9.283v-5.867l-19.111 6.218c.252-.698 16.712-17.418 14.829-21.233-.687-1.416-2.427-1.923-4.57-.15 0 0-8.3 6.664-13.804 9.445-6.795 3.42-13.125 9.254-42.351 16.611-.943.237-1.413.613-1.506 1.1L134 145.424l20.49 18.523 12.48-1.509c1.898 2.33 34.54 6.561 36.458 6.561l25.629-3.889.221-1.947c1.424-.65 2.462-1.591 2.72-2.975 0 0 .062-.99-.444-1.79" fill="#F7D0C2"/><path d="M191.83 184.274a4.894 4.894 0 0 1-1.558-6.726 4.868 4.868 0 0 1 6.708-1.566 4.901 4.901 0 0 1 1.56 6.732 4.867 4.867 0 0 1-6.71 1.56zm-3.126 5.027c5.045 3.155 12.17 1.867 14.847-3.455 29.192-57.988 44.521-79.948 44.521-79.948s6.212-4.01 8.032-5.258c1.9-1.301 4.538-5.547 4.868-7.832.338-2.338-2.52-9.099-2.52-9.099l-6.503 10.464-5.934-3.706L252.52 80s-7.314.408-9.26 1.742c-1.9 1.3-4.539 5.547-4.869 7.83-.315 2.19-.123 5.922-.123 5.922s-35.747 51.926-52.053 75.959c-6.082 8.962-2.554 14.698 2.49 17.848z" fill="#FFB839"/><path d="M251.012 83c-1.478.239-2.617.515-3.017.764-1.348.906-3.616 4.488-3.85 6.083-.233 1.584-.153 4.441-.104 5.409l.045.852-.492.704c-.363.517-36.438 51.987-52.783 75.646-2.881 4.17-3.551 7.72-1.993 10.554v.001c.756 1.373 2.02 2.61 3.758 3.676a9.061 9.061 0 0 0 4.712 1.311 8.74 8.74 0 0 0 2.321-.31c1.977-.545 3.54-1.767 4.398-3.442 29.35-57.258 45.183-79.72 45.34-79.94l.288-.406.42-.267c.063-.04 6.292-3.99 8.089-5.2 1.35-.907 3.617-4.49 3.85-6.084.05-.464-.2-1.591-.633-3l-5.857 6.724-7.74-4.163L251.011 83zm-.65.538l-3 8.232-.122.338.32.172 7.739 4.163.303.163 5.57-6.393c.328 1.175.427 1.844.4 2.078-.217 1.485-2.41 4.953-3.669 5.798-1.781 1.2-8.018 5.156-8.078 5.193l-.422.268-.07.045-.049.067-.286.405c-.156.219-15.96 22.612-45.371 79.993-.804 1.567-2.272 2.713-4.133 3.227a8.341 8.341 0 0 1-2.206.293c-1.584 0-3.177-.443-4.487-1.246-1.648-1.011-2.85-2.174-3.573-3.458l-.035-.064c-1.477-2.685-.814-6.088 1.97-10.119 16.3-23.594 52.442-75.16 52.781-75.642l.492-.705.083-.117-.007-.143-.045-.851c-.049-.959-.127-3.784.1-5.329.218-1.484 2.411-4.952 3.655-5.787.217-.135.89-.35 2.14-.581z" fill="#FFFFFE"/><path d="M235.576 137.71s2.91-3.38 2.353-5.597c-.531-2.135-4.534-3.113-4.534-3.113-5.762 2.467-23.88 5.209-19.803 12.004 2.044 5.387 18.63-1.658 21.984-3.294" fill="#F7D0C2"/><path d="M234.576 145.71s2.91-3.381 2.353-5.598c-.53-2.134-4.533-3.112-4.533-3.112-5.764 2.466-23.88 5.208-19.804 12.004 2.044 5.387 18.63-1.658 21.984-3.294" fill="#F7D0C2"/><path d="M234.576 153.71s2.91-3.381 2.353-5.598c-.531-2.135-4.534-3.112-4.534-3.112-5.763 2.466-23.88 5.207-19.804 12.004 2.045 5.387 18.631-1.658 21.985-3.295" fill="#F7D0C2"/><path d="M232.05 162.843s2.34-2.655 1.893-4.397c-.427-1.677-3.646-2.446-3.646-2.446-4.636 1.937-18.742 2.137-15.93 9.432 1.644 4.233 14.986-1.303 17.683-2.589" fill="#F7D0C2"/><path d="M31.77 143.538c-4.218 12.606-24.684 24.017-6.083 29.84 41.337 9.418 125.765-1.72 147.313-8.615l-7.574-27.409C119.311 138.752 64.165 127.09 35.101 119c-.22.897.749 12.347-3.33 24.538" fill="#2879FF"/><path d="M156 137.103c3.49.03 6.945 0 10.35-.103l7.65 27.664c-2.592.828-6.22 1.614-10.665 2.336-2.038-10.072-4.233-20.114-7.335-29.897" fill="#81B0FF"/><path d="M170.586 165c-.48-5.108-1.936-10.853-3.345-16.409-.85-3.355-1.654-6.522-2.241-9.51l.408-.081c.586 2.977 1.388 6.14 2.236 9.488 1.412 5.571 2.873 11.332 3.356 16.473l-.414.039" fill="#FFFFFE"/><path d="M220.742 132c-1.227.088-2.417.508-3.471 1.163a9.264 9.264 0 0 0-2.725 2.572 7.706 7.706 0 0 0-.9 1.689c-.22.599-.363 1.24-.323 1.867.031.628.287 1.22.732 1.6.441.385 1.02.572 1.602.647l-.02-.002a20.43 20.43 0 0 0 2.849-.093 21.314 21.314 0 0 0 2.809-.51l2.798-.724c.94-.23 1.89-.425 2.846-.573l.061.437c-1.889.31-3.724.87-5.605 1.34-.941.235-1.902.408-2.869.5-.966.094-1.937.106-2.903.064l-.012-.001-.007-.001c-.627-.098-1.27-.314-1.782-.782-.517-.459-.803-1.183-.819-1.881-.029-.703.143-1.38.388-2.003.25-.625.584-1.2.97-1.728a9.341 9.341 0 0 1 2.84-2.555c1.095-.62 2.313-.991 3.54-1.026m-3.472 11c-1.003.32-1.982.743-2.846 1.354-.857.607-1.615 1.422-1.967 2.428-.366 1-.223 2.15.353 3.013.564.874 1.471 1.462 2.437 1.755h.001l-.055-.01c.99.037 1.978.02 2.961-.078a21.737 21.737 0 0 0 2.923-.501l2.908-.73a36.05 36.05 0 0 1 2.953-.595l.063.437a35.87 35.87 0 0 0-2.92.59l-2.91.728c-.979.233-1.974.414-2.977.512a22.347 22.347 0 0 1-3.016.079l-.03-.002-.026-.008c-1.03-.352-1.994-1.02-2.58-1.996a3.74 3.74 0 0 1-.527-1.606c-.05-.57.04-1.145.243-1.666.41-1.055 1.22-1.857 2.108-2.442.896-.587 1.892-.978 2.904-1.262" fill="#B99765"/><path d="M217.628 151.282c-1.054.108-2.087.371-3.035.834-.945.459-1.807 1.117-2.43 1.967-.616.838-.992 1.916-.773 2.932.107.501.362.964.72 1.327.357.367.808.634 1.287.828.97.39 2.027.447 3.093.45 1.062.014 2.125-.02 3.17-.174 1.043-.148 2.063-.456 3.112-.706a29.77 29.77 0 0 1 3.177-.578l.051.425a29.22 29.22 0 0 0-3.137.553c-1.034.24-2.072.546-3.15.694-1.074.153-2.156.178-3.229.161-1.063-.01-2.185-.072-3.215-.494-.512-.21-1.004-.503-1.4-.915a3.053 3.053 0 0 1-.802-1.5c-.239-1.148.19-2.31.845-3.195.666-.896 1.57-1.577 2.554-2.047.985-.475 2.058-.741 3.13-.844l.032.282m2.179 9.183c-1.603-.121-3.217.504-4.47 1.569a6.648 6.648 0 0 0-1.57 1.915c-.39.73-.635 1.582-.498 2.406.123.83.709 1.513 1.433 1.888.725.388 1.55.553 2.367.625 1.648.13 3.307-.096 4.931-.422-1.617.362-3.272.629-4.939.535-.828-.053-1.669-.199-2.433-.584a3.203 3.203 0 0 1-1.016-.796 2.65 2.65 0 0 1-.559-1.204c-.167-.896.08-1.807.472-2.585a7.016 7.016 0 0 1 1.6-2.043c1.284-1.142 2.98-1.852 4.702-1.761l-.02.457" fill="#B99765"/><path d="M219 139.393l-.212-3.393s-2.295.612-2.989 1.162c-.982.865-.782 2.344-.782 2.344.09 1.174 3.983-.113 3.983-.113" fill="#F7D0C2"/><path d="M218.457 136.603c-.546.235-1.95.878-2.427 1.447-.822 1.09-.66 3.009-.658 3.028.007.139.025.48.702.48.865 0 2.162-.574 2.557-.76l-.174-4.195zM216.074 142c-.836 0-1.037-.48-1.057-.883-.007-.076-.18-2.13.76-3.377.657-.788 2.704-1.617 2.791-1.65l.221-.09.211 5.093-.118.06c-.07.034-1.714.847-2.808.847z" fill="#B99765"/><path d="M215.63 149.909c.851-.166 1.192-.563 1.192-.563L217 144s-2.142.743-2.666 1.697c-.75 1.488-.2 4.904 1.295 4.212" fill="#F7D0C2"/><path d="M216.604 144.553c-.826.242-2.436.813-2.872 1.42-.428.645-.482 1.834-.118 2.699.14.333.467.894 1.076.894.129 0 .265-.025.406-.075.752-.113 1.159-.334 1.31-.433l.198-4.505zM214.69 150c-.601 0-1.101-.404-1.41-1.137-.428-1.017-.358-2.377.162-3.164.669-.929 3.21-1.608 3.318-1.636L217 144l-.232 5.294-.069.062c-.018.015-.461.402-1.527.558a1.4 1.4 0 0 1-.482.086z" fill="#B99765"/><path d="M213.826 156.998c.847-.057 1.174-.31 1.174-.31l-.012-3.688s-2.276.404-2.766 1.03c-.322.467-.199 1.557-.199 1.557.015 1.275 1.38 1.436 1.803 1.41" fill="#F7D0C2"/><path d="M215.615 152.39c-.864.13-2.61.46-3.022.856-.27.294-.231 1.023-.193 1.278.02 1.127 1.821 1.14 1.898 1.14l.089-.002c.692-.035 1.081-.155 1.24-.218l-.012-3.054zm-1.317 3.61c-.834 0-2.25-.306-2.268-1.451-.014-.09-.146-1.058.284-1.525.626-.604 3.17-.957 3.459-.996l.212-.028.015 3.639-.085.05c-.018.01-.449.255-1.51.309a2.069 2.069 0 0 1-.107.002z" fill="#B99765"/><path d="M215.946 164.999c.759-.045 1.054-.203 1.054-.203l-.193-2.796s-1.937.568-2.382.955c-.637.602-.369 1.129-.369 1.129-.002.774 1.512.933 1.89.915" fill="#F7D0C2"/><path d="M216.472 162.554c-.558.234-1.525.68-1.78.977-.476.606-.29 1.118-.288 1.123l.013.073c0 .17.058.311.177.44.317.334.97.443 1.237.443h.045c.39-.032.627-.112.744-.162l-.148-2.894zm-.64 3.446c-.27 0-1.066-.1-1.498-.559a1.003 1.003 0 0 1-.284-.68c-.048-.163-.181-.792.365-1.488.414-.482 1.985-1.11 2.163-1.18l.234-.093.188 3.665-.086.062c-.03.022-.319.217-1.012.27l-.07.003z" fill="#B99765"/><path d="M219.095 115.816C218.037 117.32 217 118 217 118l.6-3.965s2.546-2.894 3.048-3.032c.698-.087.143 1.57.143 1.57s-.113.978-1.696 3.243" fill="#F7D0C2"/><path d="M218.341 114.098l-.704 3.14a11.626 11.626 0 0 0 2.369-1.747c2.056-1.981 2.254-2.868 2.255-2.877l.017-.049c.17-.341.357-.931.221-1.115-.012-.017-.054-.055-.185-.044-.425.08-2.638 1.675-3.973 2.692zM217 118l.924-4.116.059-.046c.588-.45 3.556-2.7 4.262-2.83a.875.875 0 0 1 .117-.008c.29 0 .442.125.52.23.308.416-.072 1.264-.176 1.478-.047.182-.374 1.138-2.364 3.056-1.457 1.394-2.866 2.025-2.925 2.052L217 118zm-23.71 31.368c1.949-.323 3.758-1.232 5.363-2.404 1.609-1.178 3.03-2.61 4.338-4.132 1.305-1.528 2.495-3.154 3.635-4.815 1.143-1.659 2.22-3.364 3.374-5.017-1.114 1.68-2.147 3.41-3.252 5.098-1.1 1.691-2.254 3.352-3.532 4.923-1.28 1.564-2.68 3.05-4.298 4.295-1.61 1.24-3.478 2.24-5.513 2.628l-.289.056-.116-.584.29-.048" fill="#B99765"/><path d="M160 140.999a1 1 0 1 0 2 .002 1 1 0 0 0-2-.002" fill="#FFFFFE"/><path d="M162.57 182.269c-7.214-2.909-56.937-4.836-58.52 6.054-2.555 17.57-5.135 29.816 8.32 35.088 8.649 3.39 27.658 2.491 39.895 1.362l9.812 7.227-.233-8.32c.522-.076.936-.143 1.21-.195 13.376-2.524 20.955-41.94-.485-41.626-.16.004 0 .41 0 .41z" fill="#FC5D16"/><path d="M155.732 193.007c-5.835.18-12.32.266-19.823.266h-.002c-6.12 0-12.12-.058-16.662-.109l-.23-.003-.015.728.235.002c4.567.05 10.593.109 16.701.109 7.506 0 13.99-.087 19.823-.266l.241-.008-.044-.726-.224.007m-36.464 6.987c5.823-.18 12.293-.267 19.78-.267 6.119 0 12.143.058 16.707.11l.23.003.015-.727-.235-.003a1502.6 1502.6 0 0 0-16.716-.11c-7.505 0-13.984.087-19.807.266l-.242.008.045.726.223-.006m18.678 7.707c0-.24.019-.474.054-.701-7.012.01-13.16.098-18.755.266l-.245.007.046.727.226-.007c5.544-.168 11.666-.254 18.674-.265v-.027" fill="#FFFFFE"/><path d="M387.688 92.804c.752-4.745-6.778-6.605-8.74-3.714.629-4.533-2.918-10.478-9-10.99-11.482-1.108-8.155 7.7-13.672 7.827-5.043-.099-1.285-7.621-12.751-3.852-2.745.842-4.137 4.01-6.076 7.924-3.93-4.463-6.338-1.556-7.06 2.805a196.961 196.961 0 0 0 57.3 0zM331.962 33.58c.538-3.392-4.846-4.721-6.248-2.655.45-3.24-2.086-7.49-6.434-7.856-8.208-.792-5.83 5.504-9.774 5.595-3.605-.07-.918-5.448-9.115-2.753-1.963.601-2.958 2.866-4.344 5.664-2.81-3.19-4.53-1.112-5.047 2.006a140.804 140.804 0 0 0 40.962 0zm-291 56c.538-3.392-4.846-4.721-6.248-2.655.45-3.24-2.086-7.49-6.434-7.856-8.208-.792-5.83 5.504-9.774 5.595-3.605-.07-.918-5.448-9.115-2.753-1.963.601-2.958 2.866-4.344 5.664-2.81-3.19-4.53-1.112-5.047 2.006a140.804 140.804 0 0 0 40.962 0z" fill="#E8EAEC"/><path d="M326.975 113.932c.167.003 0 .424 0 .424 7.507-3.021 59.245-5.021 60.893 6.287 2.657 18.246 5.342 30.961-8.659 36.437-8.999 3.52-28.779 2.586-41.512 1.414L327.487 166l.243-8.64c-.543-.08-.974-.15-1.26-.204-13.917-2.62-21.803-43.55.505-43.224" fill="#FC5D16"/><path d="M323.439 138.78l-.002.001c-.002.01-.002.013 0 .01l.002-.01zm0 0c.19-.05.436-.204.736-.46.3-.258.556-.563.765-.916a4.36 4.36 0 0 0 .472-1.135 3.72 3.72 0 0 0 .123-1.165 4.733 4.733 0 0 0-.24-1.262 5.124 5.124 0 0 0-.55-1.148 5.353 5.353 0 0 0-.806-.978 5.133 5.133 0 0 0-1.015-.755 5.113 5.113 0 0 0-.496-.24 3.318 3.318 0 0 0-.246-.092c-.089-.03-.19-.065-.304-.106-.182-.086-.299-.197-.349-.331a.52.52 0 0 1-.007-.38.55.55 0 0 1 .288-.287.575.575 0 0 1 .26-.054c.072 0 .154.013.245.04.479.201.906.419 1.282.654a6.15 6.15 0 0 1 1.022.793c.305.293.575.627.81 1.001.235.374.45.798.646 1.271.055.142.1.288.137.438.036.15.066.302.089.455.023.152.043.304.061.454.019.15.041.299.069.444a1.936 1.936 0 0 1 .013.431 2.575 2.575 0 0 1-.075.424c-.036.137-.073.271-.11.403a3.97 3.97 0 0 0-.088.404c-.05.268-.146.534-.287.796a2.517 2.517 0 0 1-.52.673c-.323.301-.651.602-.984.903-.173.15-.367.267-.581.352a2.29 2.29 0 0 1-.554.154c-.032.14-.063.26-.092.355-.03.096-.055.169-.075.219-.02.05-.038.095-.052.136-.013.042-.03.108-.047.199a.552.552 0 0 0 0 .212c.013.072.02.115.02.13a7.04 7.04 0 0 1 .089.02 1.45 1.45 0 0 0 .273-.116 4.393 4.393 0 0 0 .667-.438c.102-.082.208-.17.318-.266h-.007c.091-.1.207-.213.349-.339l.444-.393a1.23 1.23 0 0 1 .396-.089.952.952 0 0 1 .339.045.369.369 0 0 1 .222.184c.045.09.027.188-.055.298-.15.118-.294.234-.43.348a12.31 12.31 0 0 1-.42.335 9.35 9.35 0 0 1-.968.643l-.205.102a2.873 2.873 0 0 1-.274.12 4.15 4.15 0 0 1-.31.106 1.097 1.097 0 0 1-.312.048h-.034c-.123 0-.241-.02-.355-.062a1.487 1.487 0 0 0-.288-.082c-.177-.045-.284-.132-.32-.26.004-.1 0-.199-.011-.297a.97.97 0 0 1 .017-.31c.041-.156.096-.303.164-.442.06-.122.117-.244.17-.364-.008-.022-.015-.023-.02-.001-.036 0-.137-.014-.304-.041a4.317 4.317 0 0 1-.468-.103 2.053 2.053 0 0 1-.82-.434 3.392 3.392 0 0 1-.575-.656 6.07 6.07 0 0 1-.423-.749c-.123-.26-.246-.506-.37-.738a1.514 1.514 0 0 1-.136-.356 4.834 4.834 0 0 0-.103-.355 6.436 6.436 0 0 1-.191-.937 4.175 4.175 0 0 1 .15-1.907c.1-.31.253-.6.458-.868.173-.232.366-.435.578-.608a3.76 3.76 0 0 1 .673-.441 4.73 4.73 0 0 1 .739-.301c.255-.08.587-.163.998-.25v.007c-.082.018-.1.028-.055.028h.048c.182.054.312.134.39.239a.521.521 0 0 1 .112.325.49.49 0 0 1-.137.317.694.694 0 0 1-.386.205 10.33 10.33 0 0 1-.564.103c-.18.027-.347.084-.502.17-.2.106-.393.22-.578.346a2.226 2.226 0 0 0-.482.441 2.103 2.103 0 0 0-.39.704c-.081.255-.13.52-.146.793-.016.274-.003.55.04.83a6.883 6.883 0 0 0 .35 1.354c.065.185.105.29.119.318.064-.068.184-.206.362-.413.178-.208.358-.416.54-.626a38.703 38.703 0 0 1 .342-.373c.041-.043.07-.074.089-.092.182-.15.364-.294.547-.43.182-.137.36-.276.533-.417a.544.544 0 0 1 .338-.137.64.64 0 0 1 .352.123c.046.05.097.097.154.14.057.043.112.092.164.147a.728.728 0 0 1 .13.188c.034.07.05.151.045.243-.019.205-.033.409-.045.611a5.14 5.14 0 0 1-.072.612c-.05.292-.112.581-.188.868-.075.288-.144.575-.208.862a22.175 22.175 0 0 0-.11.447l.003-.01zm-.978.83c-.112.346-.09.443.066.289a4.09 4.09 0 0 0 .12-.12c-.084.082-.138.063-.16-.058a.978.978 0 0 0-.026-.11zm.68-3.954a29.81 29.81 0 0 1-.2.169 7.649 7.649 0 0 0-.407.365c-.118.11-.232.239-.342.387a34.49 34.49 0 0 0-.341.471c-.119.167-.253.342-.404.527-.15.184-.28.343-.39.475a2.541 2.541 0 0 0 .698.628c.141.083.293.144.454.185.162.041.291.06.387.055.082-.342.17-.72.263-1.135.093-.415.17-.834.229-1.258.023-.177.036-.356.04-.536l.013-.333zm3.577-4.428a.616.616 0 0 1 .239-.404.593.593 0 0 1 .349-.116h.054a.6.6 0 0 1 .373.202.596.596 0 0 1 .133.44c-.068.561-.09 1.154-.068 1.778.023.624.09 1.247.202 1.87.111.622.267 1.216.468 1.784.2.567.449 1.067.745 1.5a.882.882 0 0 0 .17.188c.07.057.144.114.226.171.082.057.167.113.253.168.087.054.148.095.185.123.027-.005.08-.008.16-.01.08-.003.155-.007.226-.014.07-.007.133-.017.188-.031a.55.55 0 0 0 .15-.062c.183-.123.346-.283.49-.482a3.67 3.67 0 0 0 .372-.645c.105-.233.19-.47.256-.711.066-.242.115-.465.147-.67.05-.338.084-.64.103-.91a6.7 6.7 0 0 0 .01-.758 5.986 5.986 0 0 0-.072-.687c-.036-.221-.08-.452-.133-.69a36.88 36.88 0 0 0-.178-.77 35.433 35.433 0 0 1-.208-.923.588.588 0 0 1 .099-.444.58.58 0 0 1 .345-.226.549.549 0 0 1 .414.072.65.65 0 0 1 .283.393c.032.192.074.4.127.626.052.225.102.46.15.704.048.244.088.489.12.735.018.16.027.316.027.471 0 .096-.005.187-.014.274-.013.187-.024.375-.03.564a21.512 21.512 0 0 1-.072 1.135 6.308 6.308 0 0 1-.082.57c-.055.27-.11.503-.164.701a4.403 4.403 0 0 1-.181.533 2.907 2.907 0 0 1-.499.82c-.108.126-.226.257-.356.394-.13.136-.277.296-.44.478a.38.38 0 0 1-.12.072.545.545 0 0 1-.12.03 22.05 22.05 0 0 0-.663.117 2.226 2.226 0 0 1-.424.04c-.087 0-.17-.006-.253-.02a1.388 1.388 0 0 1-.64-.25c-.197-.138-.376-.365-.536-.68a9.532 9.532 0 0 0-.277-.488 17.365 17.365 0 0 1-.287-.492 7.746 7.746 0 0 1-.263-.513 2.86 2.86 0 0 1-.191-.55 62.63 62.63 0 0 0-.325-1.357 21.703 21.703 0 0 1-.29-1.33 13.139 13.139 0 0 1-.178-1.34 8.15 8.15 0 0 1-.028-.676c0-.233.01-.467.028-.704zm9.597 3.965a1.516 1.516 0 0 1-.273.02c-.155 0-.306.015-.455.044-.148.03-.258.058-.331.086-.005.396 0 .821.014 1.275.013.453.03.876.047 1.268.205.045.452.092.739.14.287.048.574.076.861.085a7.8 7.8 0 0 0 1.152-.058c.394-.048.79-.09 1.186-.126.187.054.317.13.39.225a.55.55 0 0 1 .123.328v.007a.49.49 0 0 1-.14.322c-.09.095-.227.164-.414.205a59.692 59.692 0 0 1-1.176-.134 11.87 11.87 0 0 0-1.148-.085c-.283-.01-.568-.008-.855.003-.287.012-.526.02-.718.024-.018.082-.084.164-.198.246a.525.525 0 0 1-.342.123h-.02a.589.589 0 0 1-.37-.157.63.63 0 0 1-.19-.396v.034a.496.496 0 0 1-.127-.178.505.505 0 0 1-.051-.246.492.492 0 0 1 .088-.246.424.424 0 0 1 .158-.157c.032-.36.068-.748.109-1.162.041-.415.068-.74.082-.978-.087.046-.182.1-.287.164-.196.041-.358.032-.485-.027a.518.518 0 0 1-.267-.253.407.407 0 0 1-.055-.205.67.67 0 0 1 .014-.13c.032-.119.12-.24.267-.362.186-.041.358-.078.516-.11a5.53 5.53 0 0 1 .338-.061l-.003-.117a13.707 13.707 0 0 0-.075-1.323c-.04-.366-.081-.71-.127-1.028-.046-.014-.098-.058-.157-.133a.517.517 0 0 1-.11-.236.52.52 0 0 1 .028-.26.365.365 0 0 1 .13-.191.883.883 0 0 1 .058-.325c.043-.125.144-.231.304-.318a.746.746 0 0 1 .38-.058.553.553 0 0 1 .458.345c.034.087.053.112.057.075l.387-.034c.202-.018.404-.04.605-.068.332-.05.664-.107.994-.171.33-.064.68-.12 1.05-.171.191.06.325.141.403.246a.521.521 0 0 1 .113.325.477.477 0 0 1-.137.314c-.089.098-.229.168-.42.209-.333-.037-.657-.07-.971-.1a3.713 3.713 0 0 0-1.036.045 11.708 11.708 0 0 0-.591.157l.007-.007c-.123.06-.236.108-.339.144a15.71 15.71 0 0 0-.208.075c.004.187.011.404.02.65.01.246.01.492 0 .738 0 .05-.002.123-.006.219a38.202 38.202 0 0 0-.028.68l-.007.175.192-.049c.068-.018.162-.048.28-.089.119-.04.247-.08.386-.116.14-.036.283-.06.43-.072a.693.693 0 0 1 .38.065c.028.014.054.03.079.048l.075.055a.888.888 0 0 1 .072.058c.023.02.043.038.061.051.11.15.155.294.137.431a.532.532 0 0 1-.184.342.562.562 0 0 1-.4.13c-.162-.005-.316-.08-.462-.226a.294.294 0 0 1-.007-.013zm-1.039-.616a6.212 6.212 0 0 1 0 .001zm8.62-3.65c.064-.022.096-.102.096-.24.05.005.121.048.212.13a.679.679 0 0 1 .008.007 2.261 2.261 0 0 1-.281.09l-.035.013zm.316-.103c.086.08.138.172.156.274a.51.51 0 0 1-.051.318.697.697 0 0 1-.29.283.922.922 0 0 1-.312.041 1.727 1.727 0 0 1-.294-.037 3.78 3.78 0 0 1-.266-.069 2.998 2.998 0 0 0-.222-.058 46.322 46.322 0 0 0-.56-.13 1.987 1.987 0 0 0-.541-.048 1.09 1.09 0 0 0-.219.035.431.431 0 0 0-.17.085.45.45 0 0 0-.113.15.426.426 0 0 0-.031.23c.018.246.096.477.232.693.137.217.304.422.503.616.198.193.409.377.632.55l.622.485c.146.123.33.275.554.455.223.18.449.371.677.574.227.203.44.41.635.622.196.212.338.41.424.591a23.139 23.139 0 0 1 .376.814c.068.155.103.313.103.475 0 .162.006.32.02.475v.055a.768.768 0 0 1-.075.321c-.05.1-.093.2-.13.3a.829.829 0 0 1-.383.462 1.83 1.83 0 0 1-.588.209 2.975 2.975 0 0 1-.526.048h-.068c-.196-.01-.363-.019-.5-.028a2.126 2.126 0 0 1-.43-.072 6.662 6.662 0 0 1-.41-.126 4.605 4.605 0 0 1-.868-.396 5.58 5.58 0 0 1-.728-.517 7.84 7.84 0 0 1-.646-.605 33.722 33.722 0 0 1-.636-.683.757.757 0 0 1-.082-.308.504.504 0 0 1 .185-.407.556.556 0 0 1 .358-.123.731.731 0 0 1 .441.161l.643.755c.2.235.413.448.639.64.226.191.47.358.731.502.262.144.564.252.906.325.255.054.475.073.66.054a.81.81 0 0 0 .44-.16c.11-.09.183-.226.22-.41.036-.185.015-.42-.062-.708a2.485 2.485 0 0 0-.325-.776 4.44 4.44 0 0 0-.882-.994c-.125-.105-.254-.21-.386-.315a6.255 6.255 0 0 0-.41-.325c-.141-.102-.285-.21-.43-.324a517.54 517.54 0 0 1-.602-.462 8.416 8.416 0 0 1-1.04-.933 6.696 6.696 0 0 1-.491-.588.98.98 0 0 1-.168-.396 4.584 4.584 0 0 0-.085-.39.467.467 0 0 1-.02-.181 2.26 2.26 0 0 1 .02-.188 4.615 4.615 0 0 1 .047-.26.902.902 0 0 1 .175-.41c.089-.114.196-.21.321-.29.125-.08.259-.142.4-.185.141-.043.278-.076.41-.1a2.47 2.47 0 0 1 .773.008c.237.04.464.082.683.123l.246.03c.087.012.173.029.26.052l.048.003c.023.003.05.005.082.007s.163.023.393.062c.147.024.155.064.025.12zm9.166-.403c.164.114.262.241.294.383.004.04.007.08.007.116 0 .087-.02.169-.062.246a.57.57 0 0 1-.335.246c-.15.046-.321.025-.512-.061a.973.973 0 0 0-.308-.09 6.622 6.622 0 0 0-.52-.068 17.619 17.619 0 0 0-.557-.044c-.18-.011-.252-.017-.215-.017v-.062a12.354 12.354 0 0 0-.728 3.862c-.011.434-.004.89.024 1.368.023.328.04.657.055.988.013.33.04.657.082.98.009.06.023.124.044.192.02.068.036.139.048.212.011.073.016.15.013.229a.53.53 0 0 1-.078.25c-.114.145-.24.227-.376.245a.347.347 0 0 1-.096.014.794.794 0 0 1-.342-.089.636.636 0 0 1-.164-.12 9.314 9.314 0 0 1-.13-.14.718.718 0 0 1-.075-.379.442.442 0 0 1 .096-.25 1.996 1.996 0 0 1-.007-.349l.041-.88c.014-.293.025-.584.034-.876.023-.756.041-1.515.055-2.276.014-.761.068-1.522.164-2.283a7.378 7.378 0 0 1 .144-.684 23.22 23.22 0 0 0-1.415.034c-.543.028-1.092.057-1.648.089-.21-.027-.362-.1-.458-.219a.547.547 0 0 1-.137-.383l.007-.006c0-.096.053-.196.157-.301.105-.105.263-.164.472-.178.565.05 1.116.106 1.651.168.536.061 1.077.092 1.624.092.241-.005.481-.014.72-.027.24-.014.48-.026.722-.035a5.82 5.82 0 0 0 .393-.027 5.22 5.22 0 0 1 .43-.024 3.31 3.31 0 0 1 .445.024c.148.018.295.062.44.13zm1.682 1.73a22.925 22.925 0 0 0-.007 1.216c.018.656.02 1.31.007 1.962a273.96 273.96 0 0 0-.031 1.846c.002 0 .003.045.003.137.018.241.028.484.028.728 0 .243.004.488.013.734a.639.639 0 0 1-.177.438.498.498 0 0 1-.363.157l-.11.02-.225-.095-.075-.075-.061-.048a.339.339 0 0 1-.13-.24l-.014-.122c.027-.347.063-.69.106-1.033l.126-1.022c.041-.34.076-.679.103-1.018.027-.34.04-.676.04-1.008 0-.301-.02-.61-.06-.927a165.38 165.38 0 0 1-.124-.96 17.68 17.68 0 0 1-.095-.964 5.168 5.168 0 0 1 .02-.957.71.71 0 0 1 .192-.356.638.638 0 0 1 .376-.15c.186.018.31.062.369.13a.454.454 0 0 1 .177.24l.028.088c.013.041.02.075.02.103a.76.76 0 0 1-.054.246 3.512 3.512 0 0 0-.02.195c-.01.102-.015.274-.015.516 0 .153-.015.227-.047.22zm-.034 5.091v-.014.014zm4.129-6.756h-.004c-.034.002.158-.079.578-.243-.105.105-.264.179-.476.222l-.098.02zm0 0a1.85 1.85 0 0 0 .102-.01h.068c.16.045.277.111.352.198.075.086.121.18.137.28a.476.476 0 0 1-.058.304.688.688 0 0 1-.267.263.582.582 0 0 1-.177.052 8.27 8.27 0 0 0-.513.11 2.244 2.244 0 0 0-.342.112c-.296.15-.47.24-.52.27a.499.499 0 0 0-.123.1c-.21.209-.397.391-.564.546-.166.155-.307.31-.423.465a2.071 2.071 0 0 0-.284.523 2.54 2.54 0 0 0-.137.728c-.027.392.022.765.147 1.12.126.356.306.688.54.995.235.308.512.585.83.831a5.309 5.309 0 0 0 2.127.991c.378.082.74.11 1.087.082a5.053 5.053 0 0 0 1.19-.225c.364-.119.665-.285.902-.5.236-.214.396-.486.478-.816.082-.33.057-.73-.075-1.2a4.855 4.855 0 0 0-.23-.581 7.666 7.666 0 0 0-.662-1.152c-.126-.18-.245-.35-.36-.51a11.34 11.34 0 0 0-1.124-1.315 24.424 24.424 0 0 0-1.268-1.18c-.132-.131-.2-.268-.205-.41a.502.502 0 0 1 .127-.362.596.596 0 0 1 .38-.184h.06a.72.72 0 0 1 .418.15c.314.292.622.595.922.91.301.314.59.637.865.97.276.333.536.679.78 1.04.243.36.459.728.645 1.107.11.218.22.438.329.66.109.22.177.451.205.693.013.096.034.196.061.3.028.106.051.21.072.315.02.105.033.212.038.322v.02c0 .105-.02.21-.062.315a7.91 7.91 0 0 0-.178.526 2.813 2.813 0 0 1-.232.547 1.24 1.24 0 0 1-.342.376 3.666 3.666 0 0 1-.51.324c-.184.098-.38.184-.587.257a5.758 5.758 0 0 1-.605.178c-.196.045-.38.077-.554.095a2.267 2.267 0 0 1-.328.028h-.116a4.469 4.469 0 0 0-.43-.021 7.177 7.177 0 0 1-.893-.058 1.834 1.834 0 0 1-.448-.12 3.062 3.062 0 0 0-.382-.14 6.408 6.408 0 0 1-.404-.133 4.813 4.813 0 0 1-.406-.171 1.896 1.896 0 0 1-.38-.24 13.355 13.355 0 0 0-.325-.232 23.794 23.794 0 0 1-.338-.239 3.645 3.645 0 0 1-.328-.267 1.586 1.586 0 0 1-.274-.328 52.193 52.193 0 0 0-.444-.656 4.922 4.922 0 0 1-.369-.629 3.348 3.348 0 0 1-.246-.69 2.87 2.87 0 0 1-.062-.834c.019-.342.081-.668.188-.978.107-.31.248-.6.42-.871.174-.272.378-.523.613-.756a4.944 4.944 0 0 1 1.343-.94c.196-.093.408-.17.636-.229l.061-.02a1.8 1.8 0 0 1 .147-.041c.048-.012.15-.033.305-.065zm12.588 1.134l.003-.01a.262.262 0 0 0-.003.01zm-.013.168c0 .028-.002.058-.004.089l-.02.355a24.02 24.02 0 0 0-.042.91c-.004.145-.007.262-.007.348.028.811.064 1.611.11 2.4.045.788.095 1.59.15 2.406-.01.09-.016.148-.02.17a4.117 4.117 0 0 1 .177.172.64.64 0 0 1 .137.369v.048a.55.55 0 0 1-.181.355.543.543 0 0 1-.4.127.682.682 0 0 1-.458-.223 21.886 21.886 0 0 1-.94-1.175 203.407 203.407 0 0 1-1.767-2.413 58.505 58.505 0 0 0-.889-1.204c-.273-.36-.558-.704-.854-1.032a40.161 40.161 0 0 0-.588-.642c.009.196.021.53.037 1.001.016.472.036.945.058 1.419l.028.471a8.655 8.655 0 0 1-.014 1.162 68.927 68.927 0 0 0-.096 1.364 6.889 6.889 0 0 0-.006.687.634.634 0 0 1-.175.434.527.527 0 0 1-.386.16h-.007a.549.549 0 0 1-.383-.15c-.114-.09-.182-.227-.205-.41a9.94 9.94 0 0 1 .14-.94c.062-.307.12-.614.175-.919.054-.305.101-.61.14-.916a5.3 5.3 0 0 0 .038-.91 9.273 9.273 0 0 0-.076-.94 33.11 33.11 0 0 0-.136-.936c-.05-.312-.106-.623-.168-.933-.061-.31-.12-.626-.174-.95a.67.67 0 0 1 .26-.427.486.486 0 0 1 .403-.093c.146-.013.298.04.458.158.333.392.65.788.954 1.19.303.4.601.804.895 1.21.294.405.587.81.878 1.216.292.405.59.809.896 1.21.219.296.448.58.687.85.24.272.39.442.455.51a47.419 47.419 0 0 0-.035-4.655 6.8 6.8 0 0 0-.027-.338 10.525 10.525 0 0 1-.034-.428 5.22 5.22 0 0 1-.007-.465 2.47 2.47 0 0 1 .055-.458c.032-.145.082-.281.15-.406a.765.765 0 0 1 .315-.304.754.754 0 0 1 .3-.069c.078 0 .15.014.22.041.14.06.24.145.296.257a.51.51 0 0 1 .035.369.535.535 0 0 1-.243.324c.005-.009.003-.002-.003.02-.007.024-.015.06-.024.11a.883.883 0 0 0-.02.198.485.485 0 0 1-.056.22l-.002.006zm.167 6.679l-.001-.001zm-.329-6.405c0-.702 0-1.05-.003-1.046-.002.004-.003.002-.003-.007l.745-.738c-.274.542-.52 1.139-.739 1.79zm4.86-1.135c.064-.022.096-.102.096-.24.05.005.121.048.212.13a.67.67 0 0 1 .008.007 2.261 2.261 0 0 1-.281.09l-.034.013zm.316-.103c.087.08.139.172.156.274a.51.51 0 0 1-.05.318.697.697 0 0 1-.291.283.922.922 0 0 1-.311.041 1.727 1.727 0 0 1-.294-.037 3.78 3.78 0 0 1-.267-.069 2.998 2.998 0 0 0-.222-.058 46.326 46.326 0 0 0-.56-.13 1.987 1.987 0 0 0-.54-.048 1.088 1.088 0 0 0-.22.035.431.431 0 0 0-.17.085.45.45 0 0 0-.113.15.426.426 0 0 0-.03.23c.017.246.095.477.231.693.137.217.305.422.503.616.198.193.409.377.632.55.224.173.43.335.622.485.146.123.33.275.554.455.223.18.449.371.677.574.228.203.44.41.636.622.195.212.337.41.423.591a23.146 23.146 0 0 1 .376.814c.069.155.103.313.103.475 0 .162.007.32.02.475v.055a.768.768 0 0 1-.075.321c-.05.1-.093.2-.13.3a.829.829 0 0 1-.383.462 1.83 1.83 0 0 1-.587.209 2.975 2.975 0 0 1-.527.048h-.068c-.196-.01-.362-.019-.5-.028a2.126 2.126 0 0 1-.43-.072 6.663 6.663 0 0 1-.41-.126 4.605 4.605 0 0 1-.868-.396 5.58 5.58 0 0 1-.728-.517 7.84 7.84 0 0 1-.646-.605 33.722 33.722 0 0 1-.636-.683.757.757 0 0 1-.082-.308.504.504 0 0 1 .185-.407.556.556 0 0 1 .359-.123.731.731 0 0 1 .44.161l.643.755c.2.235.414.448.64.64.225.191.469.358.73.502.263.144.565.252.906.325.256.054.475.073.66.054a.81.81 0 0 0 .441-.16c.11-.09.182-.226.219-.41.036-.185.016-.42-.062-.708a2.485 2.485 0 0 0-.325-.776 4.44 4.44 0 0 0-.881-.994c-.126-.105-.254-.21-.387-.315a6.255 6.255 0 0 0-.41-.325c-.141-.102-.285-.21-.43-.324a517.54 517.54 0 0 1-.602-.462 8.416 8.416 0 0 1-1.04-.933 6.696 6.696 0 0 1-.491-.588.98.98 0 0 1-.168-.396 4.584 4.584 0 0 0-.085-.39.467.467 0 0 1-.02-.181 2.26 2.26 0 0 1 .02-.188 4.618 4.618 0 0 1 .048-.26.902.902 0 0 1 .174-.41c.089-.114.196-.21.321-.29a1.63 1.63 0 0 1 .4-.185c.141-.043.278-.076.41-.1a2.47 2.47 0 0 1 .773.008c.237.04.465.082.683.123l.247.03c.086.012.173.029.26.052l.047.003c.023.003.05.005.082.007s.163.023.393.062c.147.024.155.064.025.12zm3.219.568l.01.058.017.092a.508.508 0 0 1 .164.284.466.466 0 0 1-.04.314.562.562 0 0 1-.254.24.746.746 0 0 1-.444.058c-.21-.096-.353-.223-.43-.38a1.272 1.272 0 0 1-.13-.502 1 1 0 0 1-.007-.123c0-.133.013-.262.04-.39.037-.164.08-.314.13-.451.05-.119.127-.23.23-.332a1.283 1.283 0 0 1 .946-.413h.02c.22 0 .447.032.684.095.233.064.469.154.708.27.24.117.46.244.663.383.203.14.384.288.543.448.16.16.276.314.35.465a.993.993 0 0 1 .122.437v.041c0 .128-.018.253-.055.376-.04.132-.1.26-.18.383-.08.123-.168.237-.264.342a13.43 13.43 0 0 1-.506.557c-.173.18-.343.362-.509.547a10.1 10.1 0 0 0-.475.567 4.727 4.727 0 0 0-.5.793 2.54 2.54 0 0 0-.098.233 1.29 1.29 0 0 0-.065.232.423.423 0 0 0 .007.202.563.563 0 0 0 .102.191c.05.064.1.14.15.226a.647.647 0 0 1 .004.41.522.522 0 0 1-.232.277.558.558 0 0 1-.383.065.677.677 0 0 1-.38-.199 2.874 2.874 0 0 1-.332-.632.605.605 0 0 1-.044-.243c.014-.113.024-.234.031-.362a.929.929 0 0 1 .1-.369 5.29 5.29 0 0 1 .656-1.036 12.22 12.22 0 0 1 1.12-1.196c.1-.093.194-.183.28-.27.065-.064.15-.141.257-.232.107-.091.206-.186.298-.284.09-.098.161-.2.212-.304a.43.43 0 0 0 .04-.294.789.789 0 0 0-.174-.287 1.984 1.984 0 0 0-.328-.29 3.424 3.424 0 0 0-.434-.264 4.54 4.54 0 0 0-.475-.212 2.837 2.837 0 0 0-.441-.13c-.137-.027-.248-.036-.335-.027a.368.368 0 0 0-.188.048.28.28 0 0 0-.092.116.736.736 0 0 0-.052.202c-.01.084-.023.174-.037.27zm1.45 6.548a.173.173 0 0 0 .02.041l.027.028c.023.023.03.027.02.013.055.01.117.047.185.113a.503.503 0 0 1 .144.492.88.88 0 0 1-.164.311l-.247.106a.597.597 0 0 1-.177.052.734.734 0 0 1-.14.071c-.053.021-.11.038-.175.052a.663.663 0 0 1-.13.013h-.054a7.046 7.046 0 0 1-.226-.034.467.467 0 0 1-.297-.177.7.7 0 0 1-.127-.294 1.163 1.163 0 0 1-.01-.322 1.368 1.368 0 0 1 .215-.611.716.716 0 0 1 .205-.209.438.438 0 0 1 .223-.079 7.07 7.07 0 0 0 .229-.01.743.743 0 0 1 .331.16.616.616 0 0 1 .147.284z" fill="#FFF"/><path d="M176.401 20.004c-.257.006 0 .66 0 .66-11.599-4.699-91.56-7.81-94.105 9.78-4.108 28.383-8.256 48.163 13.381 56.68 13.908 5.475 44.476 4.024 64.155 2.2L175.61 101l-.375-13.44a53.78 53.78 0 0 0 1.948-.316c21.509-4.078 33.696-67.746-.782-67.24" fill="#799921"/><path d="M119.603 44.69a2.976 2.976 0 0 0-.108-.627 1.721 1.721 0 0 1-.066-.286c0-.092-.04-.387-.123-.888l-.235-1.327c0-.233-.042-.606-.134-1.174a186.45 186.45 0 0 0-.28-1.668l-.282-1.6c-.076-.432-.117-.705-.117-.823 0-.303-.043-.594-.127-.871-.287-.931-.836-.802-1.197-.723a.757.757 0 0 0-.457.287 1.04 1.04 0 0 0-.304.345c-.134.223-.199.425-.199.619v1.263h.299c.04.136.058.278.058.434l.233 1.018c.108.456.217.95.325 1.485.11.539.212 1.052.304 1.544.12.627.13.827.13.874 0 .372.036.8.108 1.28.071.47.15.886.254 1.297.066.19.108.456.121.782.018.377.026.735.026 1.07 0 .412-.03.95-.088 1.611-.06.704-.09 1.413-.09 2.104 0 .472-.013 1.047-.037 1.722l-2.497-.107c-.37 0-.867.029-1.486.089a19.04 19.04 0 0 1-1.573.09c-.524.07-.95.09-1.249.037-.343-.055-.733-.124-1.089-.185a19.628 19.628 0 0 0-.905-.266c-.32-.088-.604-.173-.83-.245l-.486-.174V50.57c0-.394.058-.931.177-1.695.002-.091.031-.454.088-1.087.062-.692.09-1.472.09-2.313 0-.904.03-1.741.088-2.487.052-.662.081-1.103.088-1.326.088-.284.137-.62.155-1.02.018-.393.026-.767.026-1.12 0-.359-.029-.847-.09-1.46-.058-.573-.087-1.1-.087-1.591 0-.52-.009-.967-.026-1.343-.015-.31-.053-1.127-.772-1.127l-.13.014a1.315 1.315 0 0 0-.669.337l-.113.152c-.114.223-.2.533-.273.977-.044.267-.085.84.03 2.687 0 1.012-.008 1.885-.025 2.618-.02.864-.084 1.292-.137 1.5l-.016.14c0 .24-.024.705-.074 1.4a29.67 29.67 0 0 0-.078 2.142c0 .68-.028 1.487-.086 2.424-.063.966-.091 1.8-.087 2.426-.086.693-.167 1.404-.243 2.14-.079.765-.118 1.312-.118 1.671 0 .3-.034.62-.103.951-.085.419-.155.59-.188.652a2.067 2.067 0 0 0-.215.786c-.018.238-.027.4-.027.49 0 .174.029.548.092 1.122.056.512.085 1.11.085 1.782 0 .713.03 1.414.092 2.08.055.642.086 1.13.086 1.464 0 .392-.029.814-.084 1.252-.065.493-.094.87-.094 1.134 0 .203-.035.479-.102.818a7.24 7.24 0 0 1-.2.793 3.35 3.35 0 0 0-.414.925c-.1.358-.148.64-.148.859l.03.19c.048.133.09.247.121.34v.68l.354-.128c.14.102.337.182.623.182a.99.99 0 0 0 .657-.253.916.916 0 0 0 .303-.503l.97-.352-.798-.194c.014-.152.022-.311.022-.478 0-.092.016-.184.047-.27a2.09 2.09 0 0 0 .103-.329 1.3 1.3 0 0 0 .191-.451l.016-.124c.004-.077.03-.225.075-.442.068-.321.102-.63.102-.918 0-.221.028-.493.082-.819.051-.32.08-.57.093-.752.088-.245.135-.576.141-1.026.01-.447.014-.886.014-1.316 0-.353-.025-.898-.076-1.64a27.745 27.745 0 0 1-.076-1.928v-2.71c.09-.185.161-.443.22-.811.074-.44.11-.852.11-1.228v-.675c.113.023.193.045.251.063.276.09.624.174 1.044.253.37.071.682.11.951.119.217.083.485.136.808.162.263.018.501.063.708.129l.195.033c.18 0 .54-.026 1.078-.078.487-.045.943-.07 1.423-.073.264-.024.54-.035.827-.035l.218.003a22.508 22.508 0 0 1 1.971.119c.127.012.229.02.309.026a1.2 1.2 0 0 0 .423.14c-.02.656-.029 1.273-.029 1.857 0 .807-.03 1.655-.087 2.517a32.233 32.233 0 0 0-.092 1.716c0 .23-.029.588-.084 1.077a13.242 13.242 0 0 0-.093 1.48c0 .393-.027.797-.082 1.2-.066.47-.095.751-.095.842 0 .136-.028.321-.08.563-.068.336-.1.599-.1.792 0 .253.01.572.027.961.018.39.067.767.154 1.126.003.268.038.558.1.854.044.235.071.39.076.461l.003.246.178.17a.83.83 0 0 0 .588.25l.3-.037.16-.108c.111-.076.226-.169.337-.275.198-.194.304-.469.333-.864.017-.248.027-.555.027-.915 0-.265-.03-.637-.095-1.11a8.862 8.862 0 0 1-.082-1.104c0-.304.056-.717.177-1.35.002-.086.03-.34.086-.756a15.16 15.16 0 0 0 .092-1.808c-.002-.657.028-1.242.084-1.742.063-.552.096-.875.096-.96 0-.095.029-.554.087-1.379.058-.865.087-1.826.089-2.857 0-.539.004-1.129.013-1.777.007-.642.024-1.28.051-1.914l.074-1.805c.028-.575.04-1.067.04-1.467 0-.942-.01-1.742-.026-2.402-.015-.663-.065-1.123-.154-1.434m19.614 23.829l-.143-.074h-.163c-.186 0-.352.012-.499.03a1.906 1.906 0 0 0-.623.213c-.005.002-.122.052-.521.06-.385.01-.948.014-1.695.014-.713 0-1.251-.03-1.599-.089a6.93 6.93 0 0 1-.91-.209c-.341-.083-.703-.16-1.088-.226-.713-.128-1.666-.103-2.682-.12-.472-.01-.732-.061-.865-.103l-.199-.03c-.205 0-.422-.028-.645-.08-.164-.037-.233-.071-.242-.06-.046-.059-.17-.245-.343-.718-.044-.125-.099-.38-.109-.877-.009-.458-.014-.88-.014-1.263 0-.232.03-.597.086-1.105.064-.573.095-1.086.095-1.565 0-.533.024-1.078.075-1.638.053-.595.081-1.051.081-1.37 0-.266.024-.521.074-.752.092-.413.103-.568.103-.655 0-.124.026-.314.07-.572.056-.325.084-.664.084-1.005v-1.893l-.029-.186.222-.071c.004-.002.09-.048.361-.048.225 0 .433.031.625.092l.21.029c.122 0 .37.01.744.024.408.015.836.03 1.286.036.449.01.856.013 1.22.013h.626c.21 0 .478-.023.668-.173.109-.08.201-.192.324-.391.145-.173.238-.41.287-.72l.09-.674h-.724c-.065 0-.285-.006-.656-.015l-1.389-.02a143.87 143.87 0 0 1-1.568-.039c-1.408-.043-2.064-.026-2.43-.037l.055-.605a21.35 21.35 0 0 0 .078-1.944c0-.68.06-1.557.191-2.671.096-.18.144-.393.144-.63 0-.137.03-.516.086-1.134a23.71 23.71 0 0 0 .094-2.188c0-.863.026-1.77.076-2.723.053-.973.077-1.74.077-2.3 0-.62.01-1.137.028-1.553v-.027a3.9 3.9 0 0 1 .485.083c.272.085.632.171 1.072.26.38.073.69.15.88.206.164.067.418.129.82.205a80.882 80.882 0 0 0 2.349.382c.38.056.673.1.82.12.497.124.828.214 1.047.32l.013.045c.094.34.394.492.647.492l.126-.012c.22-.039.37-.157.773-.538.394-.371.51-.528.57-.626l.157-.328-.07-.24a.758.758 0 0 0-.276-.397c-.226-.278-.673-.36-.899-.403a7.187 7.187 0 0 0-1.192-.106 61.233 61.233 0 0 1-1.095-.228c-.307-.068-.402-.112-.388-.094l-.185-.163h-.26c-.05 0-.168-.01-.356-.022-.216-.018-.459-.036-.728-.06l-.808-.074a7.489 7.489 0 0 0-.651-.039 2.6 2.6 0 0 1-.588-.072l-.037-.279h-.627a1.585 1.585 0 0 0-.507-.13l-.051-.05a4.354 4.354 0 0 0-.542-.342 4.05 4.05 0 0 0-.67-.266c-.287-.083-.476-.12-.664-.122-.107 0-.203.005-.27.015a.712.712 0 0 0-.616.462c-.106.146-.17.316-.196.502-.02.16-.03.287-.03.387 0 .09-.027.562-.074 1.424a53.802 53.802 0 0 0-.082 3.138c0 1.257-.03 2.389-.088 3.363a44.36 44.36 0 0 0-.09 1.997c0 .22-.032.518-.094.892-.066.388-.14.73-.22 1.02l-.02.15c0 .301-.024.774-.074 1.425-.054.688-.08 1.313-.08 1.875v5.532c0 .366-.03.78-.086 1.242-.059.473-.088.868-.094 1.18-.086.348-.162.85-.229 1.537-.07.719-.105 1.451-.105 2.177 0 .614-.023 1.218-.073 1.808a18.727 18.727 0 0 0-.08 1.176c0 .256.029.671.094 1.247.056.534.128.971.214 1.302.004.381.031.762.083 1.131.045.328.07.555.07.688 0 .167.011.334.032.493.043.36.249.578.487.672a.99.99 0 0 0 .538.165c.174 0 .433-.049.718-.322.12-.138.228-.298.318-.477.041-.084.076-.17.1-.256h.104c.136 0 .37.028.71.076.862.126 1.801.072 2.688.163.505.051.932.076 1.274.076.235 0 .553.032.956.09.435.063.853.135 1.277.218.404.063.752.122 1.044.178.46.085.636.058.813-.021.122-.016.279-.04.47-.076a5.41 5.41 0 0 1 .948-.073l.32.003c.615 0 1.366 0 1.59-.47.147-.205.217-.396.217-.585 0-.157-.032-.313-.098-.463-.089-.214-.27-.392-.555-.542m12.917-.168c-.176 0-.495-.026-.958-.073a5.616 5.616 0 0 0-1.59.073c-.638 0-1.133.003-1.485.011-.61.014-.91.186-1.045.396a.9.9 0 0 1-.145.07l-.115.039c.153-.27.232-.6.243-1.005.01-.321.012-.573.012-.758 0-.176.005-.457.013-.851.007-.34.055-.668.145-.982l.02-.159c0-.332.035-.746.099-1.226.07-.53.108-1.046.108-1.529 0-.354.03-1.032.09-2.032a55 55 0 0 0 .087-3.058c0-1.08.036-2.097.103-3.022.059-.828.093-1.37.1-1.623.105-.32.164-.714.183-1.207a5.75 5.75 0 0 1 .09-.613 6.64 6.64 0 0 0 .114-1.209c0-.335.033-.762.096-1.266.08-.609.168-.931.226-1.091l.036-2.021c0-.091.016-.254.084-.517.08-.31.12-.632.12-.958 0-.226.054-.54.161-.93l.019-.151c.001-.1.036-.402.098-.903.072-.569.108-1.194.108-1.854v-2.357c.093-.15.153-.326.177-.542.004-.085.037-.243.09-.48a4.6 4.6 0 0 0 .115-.932c.15-.684.147-.882.086-1.047-.065-.2-.27-.53-.913-.53l-.803-.014v.598a.69.69 0 0 1-.063.166c-.07.15-.153.308-.288.56-.116.318-.218.766-.31 1.368-.087.575-.181 1.49-.288 2.842 0 .896-.032 1.71-.1 2.417-.07.758-.105 1.23-.105 1.419 0 .175-.003.392-.01.643a2.083 2.083 0 0 1-.132.634l-.04.11.005.114c.036.797-.062 1.187-.15 1.374l-.056.248a5.69 5.69 0 0 1-.081.579c-.066.378-.096.73-.096 1.044 0 .333-.035.727-.099 1.173a9.08 9.08 0 0 0-.108 1.213c0 .244-.033.541-.092.884-.075.406-.15.582-.188.65l-.078.135v.152c0 .179-.008.582-.025 1.215a19.74 19.74 0 0 1-.18 2.082v3.836c0 .443-.029.984-.087 1.622-.06.674-.091 1.289-.091 1.847 0 .45-.01.89-.026 1.315l-.003.077h-.176v.598c0 .095-.005.255-.014.487a1.92 1.92 0 0 1-.13.591l-.035.202c0 .273-.009.632-.026 1.073-.015.387-.063.696-.144.918l-.037.198c0 .233-.029.487-.087.748-.049.212-.094.297-.065.282-.304.255-.334.543-.322.695.022.305.218.575.588.798l.152.093h1.128c.237 0 .539-.041.919-.126.36-.08.692-.172 1.002-.276a7.73 7.73 0 0 1 .876-.24 4.26 4.26 0 0 1 .676-.092c.222.092.469.148.73.169.244.014.422.024.533.024l.01.121.568.05c.002 0 .053.008.186.056.358.139.683.176 1.204.112.52-.06.752-.43.752-.767v-.54c0-.442-.193-.705-.356-.848-.227-.201-.549-.292-1.01-.292m15.648-26.868l-.014.129c0 .331-.038.708-.11 1.121-.089.531-.178.716-.203.758l-.079.132v.154c0 .151-.026.35-.08.602a4.37 4.37 0 0 0-.102.826.857.857 0 0 1-.054.318 2.22 2.22 0 0 0-.109.376c-.146.229-.329.626-.539 1.43-.196.426-.32.625-.387.716-.189.038-.36.13-.513.27a.957.957 0 0 0-.267.447 1.056 1.056 0 0 0-.66.247.982.982 0 0 0-.25.32c-.309.183-.525.31-.61.357-.274.099-.532.187-.771.268-.208.07-.364.155-.48.246v-5.882c0-.349.04-.946.114-1.781.079-.852.17-1.678.276-2.549 0-.774.03-1.52.088-2.213a21.144 21.144 0 0 0 .101-1.6c.054-.018.13-.038.226-.064h1.035c.134 0 .306.026.513.078.21.052.39.117.577.211.102.044.163.08.2.105v.49h.806c.096.137.203.258.317.365.04.038.129.135.29.376.14.208.26.398.358.572.054.092.135.27.215.574.08.302.098.474.098.565v.154l.077.133c.009.015.08.15.08.6a5 5 0 0 1-.143 1.149zm2.162-2.588c-.048-.469-.222-.847-.483-1.082 0 0-.018-.04-.03-.147.035-.358-.104-.701-.396-.982l-.322-.296c-.406-.476-.766-.811-1.083-1.018a10.854 10.854 0 0 0-1.16-.702l-.81-.423a2.195 2.195 0 0 0-.946-.233 22.045 22.045 0 0 0-.686-.012h-1.327l-.224.037a5.31 5.31 0 0 1-.612.188c-.471.105-.764.456-.764.915 0 .09-.03.293-.082.607a7.143 7.143 0 0 0-.097 1.191c0 .418-.035.908-.102 1.457-.072.594-.107 1.13-.107 1.593 0 .35-.032.877-.091 1.576a27.3 27.3 0 0 0-.092 2.213c0 .717-.03 1.784-.092 3.2a99.476 99.476 0 0 0-.091 4.182c0 .632-.012 1.324-.04 2.071l-.077 2.264c-.026.76-.044 1.481-.05 2.166-.01.683-.015 1.272-.013 1.712a47.195 47.195 0 0 0-.183 3.813 297.817 297.817 0 0 0-.027 3.623c0 .907.009 1.737.027 2.486.019.839.04 1.706.817 1.706h.538l.151-.085a1.08 1.08 0 0 0 .476-.576c.077-.19.124-.48.158-.96.024-.4.043-.993.054-1.78.007-.77.013-1.814.013-3.128a109.433 109.433 0 0 1 .062-4.467c.028-.679.05-1.271.079-1.78.025-.475.036-.833.04-1.07.053-.25.086-.6.104-1.064.018-.471.03-1.016.038-1.626l.027-1.958c.003-.143.003-.286.005-.429l.115.012c.406.027.625.035 1.162-.159.28-.1.566-.243.866-.433.305-.114.573-.253.795-.417.217-.159.383-.298.444-.405.253 0 .515-.102.851-.332.267-.18.476-.387.625-.618.225-.233.45-.578.686-1.053.242-.48.422-.923.488-1.206.21-.396.37-.77.473-1.11.15-.485.168-.663.168-.777.005-.095.042-.29.105-.586.075-.356.162-.71.271-1.085.107-.46.202-.994.284-1.608.08-.616.121-1.213.121-1.77 0-.75-.018-1.283-.056-1.635z" fill="#FFF"/><path d="M235 242.603l-2.113-3.373.265-2.153c-1.676-1.72-1.907-4.054-2.388-5.914-.476-1.834-.45-2.616-1.045-4.709-.115-.403-.68-.54-1.24-.402-2.268.569-2.485 2.665-2.706 3.926-.21 1.252-.102 3.893-.135 5.162-.074 2.868.785 4.427-.228 4.68-.67.17-.557 3.177.619 3.18 3.026.01 7.44-.462 8.971-.397" fill="#0E1220"/><path d="M232.2 235.746c38.747-7.76 41.784-6.56 51.481-8.154 3.609-.591 44.142-4.283 46.319-4.592l-5.11 21c-26.084-.562-77.32-2.704-92.657-1.226-1.005-2.398-2.166-1.18-.033-7.028" fill="#1A60D7"/><path d="M298.01 200.015c2.306 1.515 6.763 4.366 11.868 7.89 6.284 3.052 4.654 1.003 10.979 10.377 1.812 1.351 7.888 4.726 8.737 6.869.037.096 2.322 4.412 3.423 6.619 4.629 8.555-8.076 17.761-17.478 8.105-6.168-12.06-25.07-25.14-25.177-26.448-.442-5.364-5.943 16.782-7.685 25.898-3.892-1.836-7.784-3.672-11.677-5.506 1.207-.447 4.216-49.233 27.01-33.804" fill="#1A60D7"/><path d="M261.38 211.3c.09-.05 2.032-1.34 2.858-2.3L272 223.716 270.284 228c-.119-.143-1.18-1.003-1.264-1.152l-7.869-14.477c-.227-.395-.234-.815.23-1.07" fill="#2879FF"/><path d="M263.55 209.001c.265-.01.448.067.71.067.262.001-2.867 2.339-2.82 2.224l8.82 15.805c-.012.067.019.06 1.595-3.902l18.991-.545c-1.54 4.014.157 5.547.154 5.646-.009.52-.368.712-.809.704l-19.168-.292c-.322-.005-.598-.12-.717-.385l-.024.063c-.468.252-.835.033-1.063-.36l-8.79-15.119c-.228-.392-.657-1.483-.28-1.62.617-.227 3.007-2.27 3.4-2.286z" fill="#78C2D0"/><path d="M287.666 225c.316.2.635.386.957.538 3.764 1.8 6.153 1.624 7.228 1.865.404.09.78.18 1.149.26-.326 1.066-.656 2.13-.98 3.195-3.054-.153-7.922.254-9.714.111-2.335-.182-2.566-.48-2.566-.48.332-.741 2.442-.731 3.578-.901.862.052 1.934-.005 2.01-.063.369-.275-1.175-.807-2.441-.617-1.248-.075-3.956 1.436-4.202 1.565-.511.259-3.255.438-3.622.291-.856.069 7.286-5.19 8.603-5.764" fill="#F7D0C2"/><path d="M286.664 221c.318.199.638.385.957.538 3.766 1.8 6.154 1.624 7.23 1.864.404.091.78.18 1.149.263-.326 1.064-.656 2.127-.98 3.191-3.054-.151-7.922.256-9.714.113-2.336-.18-2.566-.482-2.566-.482.33-.74 2.441-.73 3.577-.9.862.052 1.935-.006 2.011-.06.369-.279-1.175-.811-2.44-.619-1.25-.075-3.957 1.437-4.203 1.564-.511.26-3.256.439-3.622.291-.858.07 7.286-5.189 8.601-5.763" fill="#F7D0C2"/><path d="M292.043 222.537c3.595-.116 6.508-.934 9.012-1.883 13.55-5.177 15.812-14.765 18.606-22.344 1.647-3.675 5.663-9.003 5.318-1.57-.835 6.918-6.581 25.147-6.645 25.204-8.46 7.438-16.548 8.452-25.522 5.558.206-1.725-1.057-4.957-.769-4.965" fill="#F57C02"/><path d="M310.316 227.456c3.97-8.067 6.663-35.515 8.118-35.865.17-.04.499 1.88.499 1.88s7.38-3.172 8.074-3.502c.84-.404.286-.057 1.091-.54 2.676-1.608 13.014 1.182 12.901 10.445 0 0-.058.523-.171 1.454.085 2.012-.081 4.078-.368 5.414-.155.722-.38 1.473-.614 2.204-.086.61-.171 1.234-.263 1.878-.448 6.323.714 12.891-2.931 17.388-.115.549-.229 1.089-.347 1.618.896 3.71.567 5.527-3.052 5.437-6.757 2.501-25.936-1.72-22.937-7.811" fill="#FFB839"/><path d="M292.794 227.304c8.198-1.627 10.651-2.731 16.41-7.933 8.08-7.294 13.957-17.593 20.194-25.977 3.39-3.958 11.006.873 7.854 9.93-2.33 10.036-14.172 21.96-20.087 24.515-7.42 4.197-19.31 5.084-25.165 3.267l.794-3.802" fill="#FFB839"/><path d="M329.48 192.055c-1.725 2.434-3.39 4.972-5.151 7.662-4.426 6.755-9.005 13.74-14.734 19.166-5.55 5.26-7.994 6.525-16.054 8.219l-.66 3.316c2.156.64 5.101.91 8.347.766 5.867-.264 11.75-1.832 15.778-4.22 5.458-2.472 17.177-14.442 19.522-25.028 1.16-3.5.893-6.785-.736-9.02-1.018-1.397-2.46-2.195-3.857-2.134-.96.044-1.815.491-2.455 1.273zm-37.155 39.006l-.325-.107.898-4.513.245-.052c8.17-1.7 10.404-2.834 15.938-8.079 5.665-5.364 10.217-12.311 14.62-19.029 1.764-2.694 3.433-5.24 5.183-7.705.796-.975 1.84-1.52 3.019-1.572 1.647-.073 3.326.84 4.496 2.444 1.78 2.445 2.09 5.994.858 9.699-2.383 10.77-14.365 23.004-19.91 25.513-4.15 2.463-10.014 4.03-16.086 4.301-3.5.157-6.673-.163-8.936-.9z" fill="#F57C02"/><path d="M312.594 180.208c-.013-2.04-.668-4.283 1.691-5.305.9-.392.72-1.482 5.143-1.903.323-.005 1.537 4.649 1.72 6.474.079.22-.37 1.005-.033.342 1.425-2.622 3.686-1.27 3.545.1-.208 1.975.608.85 1.323 1.297.058.036.614 2.952.614 2.952l2.403 4.763s-2.13 4.23-7.164 5.827c-3.176 1.007-3.436-1.413-3.436-1.413s-.855-4.957-1.55-4.749c-3.656 1.083-1.915 1.374-3.21-4.585-.032-.142-.929.22-1.524.088-.434-.096.493-1.709.478-3.888" fill="#F7D0C2"/><g transform="translate(317 185)"><mask id="c" fill="#fff"><use xlink:href="#b"/></mask><path fill="#DEAB8C" mask="url(#c)" d="M-.053 6.872h4.448V4.566H-.053z"/><path fill="#DEAA8B" mask="url(#c)" d="M4.34 4.57l-4.393.2v-.017l4.393-.2"/><path fill="#DEAA8C" mask="url(#c)" d="M4.34 4.578l-4.393.2-.002-.084 4.394-.2"/><path fill="#DEA98C" mask="url(#c)" d="M4.339 4.534l-4.394.2-.002-.135L4.337 4.4"/><path fill="#DEA88B" mask="url(#c)" d="M4.337 4.405l-4.394.2v-.018l4.393-.199"/><path fill="#DEA88C" mask="url(#c)" d="M4.336 4.408l-4.394.199V4.54l4.393-.2"/><path fill="#DEA88C" mask="url(#c)" d="M4.335 4.37l-4.394.2-.002-.1 4.394-.2"/><path fill="#DDA78B" mask="url(#c)" d="M4.333 4.285l-4.394.199v-.05l4.393-.2"/><path fill="#DEA78C" mask="url(#c)" d="M4.332 4.259l-4.393.199-.002-.084 4.394-.199"/><path fill="#DEA68C" mask="url(#c)" d="M4.33 4.2l-4.393.2-.001-.085 4.393-.199"/><path fill="#DEA68B" mask="url(#c)" d="M4.33 4.12l-4.394.2v-.017l4.393-.199"/><path fill="#DEA68C" mask="url(#c)" d="M4.33 4.133l-4.395.2-.002-.1 4.395-.2"/><path fill="#DDA58C" mask="url(#c)" d="M4.328 4.058l-4.395.199-.001-.084 4.394-.2"/><path fill="#DDA48B" mask="url(#c)" d="M4.326 3.984l-4.394.199V4.15l4.393-.2"/><path fill="#DDA48C" mask="url(#c)" d="M4.325 3.97l-4.394.2v-.068l4.393-.2"/><path fill="#DDA38C" mask="url(#c)" d="M4.324 3.932l-4.394.2-.002-.1 4.395-.2"/><path fill="#DDA38C" mask="url(#c)" d="M4.323 3.866l-4.395.2-.002-.118L4.32 3.75"/><path fill="#DDA28B" mask="url(#c)" d="M4.32 3.764l-4.394.2v-.05l4.394-.2"/><path fill="#DEA28C" mask="url(#c)" d="M4.32 3.728l-4.395.2v-.05l4.394-.2"/><path fill="#DEA28C" mask="url(#c)" d="M4.319 3.707l-4.395.2-.001-.1 4.394-.2"/><path fill="#DEA18B" mask="url(#c)" d="M4.317 3.627l-4.394.199-.002-.067 4.395-.2"/><path fill="#DDA18C" mask="url(#c)" d="M4.316 3.565l-4.395.199v-.017l4.394-.2"/><path fill="#DDA08B" mask="url(#c)" d="M4.315 3.587l-4.394.2-.002-.135 4.394-.199"/><path fill="#DD9F8B" mask="url(#c)" d="M4.313 3.468l-4.394.199-.001-.05 4.394-.2"/><path fill="#DD9F8B" mask="url(#c)" d="M4.312 3.428l-4.394.199v-.034l4.394-.2"/><path fill="#DD9F8B" mask="url(#c)" d="M4.312 3.418l-4.395.2-.001-.084 4.394-.2"/><path fill="#DD9E8B" mask="url(#c)" d="M4.31 3.335l-4.394.14-.094-3.75 4.394-.141"/></g><path d="M310.027 172.687c.274-2.43 2.088-5.15 6.17-4.364 1.535.297 2.485-1.828 3.586-.824 2.981-1.963 6.142 2.365 6.614 4.333.11.455.15.959.166 1.442 1.386.156 1.508 1.249 1.376 2.494 3.232 1.903-2.005 5.877-1.412 8.085.794 2.958-2.635-.651-2.936-1.398 0 0 .716-.333.47-1.629-.278-1.47-1.946-2.904-2.95.15-.133.444-.396-1.492-.675-3.339-1.917 1.188-3.89-.177-5.173-1.822-1.625.28-3.252.363-4.065-.198-.646-.443-1.346-1.375-1.17-2.93" fill="#0E1220"/><path d="M314 185.434l.13.566c.306-.062.87-1 .87-1l-1 .434" fill="#FFFFFE"/></g></svg>